<svg xmlns="http://www.w3.org/2000/svg" data-name="Layer 1" width="80" height="84"><rect id="backgroundrect" width="100%" height="100%" x="0" y="0" fill="none" stroke="none"/><title>noun-project</title><g class="currentLayer"><title>Layer 1</title><path d="M61.23232889175415,41.390424728393555 a12.76,12.76 0 0 1 -0.46,1.28 c-0.35000000000000003,0.7300000000000001 -0.8900000000000001,0.8 -1.3900000000000001,0.18000000000000002 c-1,-1.23 -2,-2.46 -2.93,-3.72 a5.48,5.48 0 0 1 -0.78,-1.42 c-0.5,-1.4 -1,-2.8 -1.3900000000000001,-4.24 s-0.5900000000000001,-2.94 -0.8800000000000001,-4.4 c-1,1.6900000000000002 -2.6900000000000004,2.67 -4.3100000000000005,3.72 s-3.54,2.24 -5.32,3.33 A15.29,15.29 0 0 1 34.42232889175415,38.390424728393555 a30.2,30.2 0 0 1 -4.44,-0.93 a8.49,8.49 0 0 0 -5.71,0.46 s-0.06000000000000001,0 -0.08000000000000002,0 c-0.56,0.6900000000000002 -1.47,0.8800000000000001 -2.08,1.52 S20.77232889175415,40.65042472839355 20.23232889175415,41.320424728393554 a3.3,3.3 0 0 0 -0.78,2.81 c0.42000000000000004,2.46 0.92,4.9 1.33,7.35 a13.08,13.08 0 0 1 0.12000000000000001,2.31 a23.71,23.71 0 0 0 0.7600000000000001,5.7 a9.8,9.8 0 0 0 1.18,2.47 a25.2,25.2 0 0 1 3.3,8.25 a5.23,5.23 0 0 1 -0.7000000000000001,3.71 c-0.33000000000000007,0.54 -0.7100000000000001,1 -1,1.61 A1.79,1.79 0 0 0 25.23232889175415,78.23042472839356 c0.77,0.42000000000000004 1.62,0.7100000000000001 2.43,1.06 l5.19,2.27 a1.32,1.32 0 0 1 0.5,0.33000000000000007 c0.15000000000000002,0.18000000000000002 0.3400000000000001,0.47000000000000003 0.29000000000000004,0.6300000000000001 s-0.37000000000000005,0.32000000000000006 -0.6000000000000001,0.37000000000000005 a2.8,2.8 0 0 1 -0.8600000000000001,0 a23.24,23.24 0 0 0 -6.35,0.24000000000000002 a12.49,12.49 0 0 1 -1.8800000000000001,0.06000000000000001 c-0.09000000000000002,0 -0.17,0 -0.26,0 c-2.29,-0.12000000000000001 -4.59,-0.22000000000000003 -6.87,-0.38000000000000006 c-1.46,-0.1 -2.91,-0.27 -4.36,-0.46 a2.91,2.91 0 0 1 -1.26,-0.5 c-1.42,-1 -2.79,-2.11 -4.21,-3.14 A6.2,6.2 0 0 1 4.48232889175415,74.39042472839355 c-0.23,-1.53 -0.4,-3.07 -0.5,-4.61 c-0.12000000000000001,-1.8 -0.2,-3.62 -0.18000000000000002,-5.42 s0.17,-3.6100000000000003 0.27,-5.43 l-0.6200000000000001,0.41000000000000003 c-0.19000000000000003,-0.36000000000000004 -0.38000000000000006,-0.6600000000000001 -0.53,-1 c-0.29000000000000004,-0.6200000000000001 -0.52,-1.28 -0.8500000000000001,-1.8800000000000001 a21.17,21.17 0 0 1 -1.9,-5.6 A9.620000000000001,9.620000000000001 0 0 1 0.7223288917541506,45.390424728393555 a22.58,22.58 0 0 1 2.8600000000000003,-5.5600000000000005 a9.88,9.88 0 0 0 2.16,-6.65 a10.07,10.07 0 0 1 0.09000000000000002,-1.55 a10.68,10.68 0 0 1 0.8,-3.59 A28.82,28.82 0 0 0 8.23232889175415,22.480424728393555 a11.68,11.68 0 0 1 1.6500000000000001,-3.84 A47.78,47.78 0 0 1 17.23232889175415,9.880424728393555 c0.8300000000000001,-0.79 1.77,-1.45 2.67,-2.17 C21.34232889175415,6.560424728393555 22.742328891754152,5.390424728393555 24.23232889175415,4.290424728393555 a23.85,23.85 0 0 1 7.65,-3.8200000000000003 a11,11 0 0 1 4.59,-0.38000000000000006 a33,33 0 0 1 4,0.5900000000000001 A20.09,20.09 0 0 1 46.93232889175415,3.550424728393555 a1.49,1.49 0 0 0 0.8600000000000001,0.22000000000000003 A18,18 0 0 1 52.23232889175415,4.1504247283935545 A7.7,7.7 0 0 1 55.06232889175415,5.390424728393555 a20.91,20.91 0 0 1 5.69,5.5600000000000005 a44.86,44.86 0 0 0 7.25,8.26 a86.87,86.87 0 0 1 6.48,6.55 A19.86,19.86 0 0 1 79.23232889175415,36.63042472839356 a50.39,50.39 0 0 1 0.27,7.57 c0,1 -0.26,2 -0.36000000000000004,3.07 c-0.17,1.83 -0.32000000000000006,3.66 -0.43000000000000005,5.49 c-0.16000000000000003,2.81 -0.23,5.62 -0.42000000000000004,8.43 c-0.13,1.94 -0.51,3.87 -0.6100000000000001,5.82 s0,4.08 0,6.11 c0,1.52 0.19000000000000003,3 0.21000000000000002,4.5600000000000005 a7.5600000000000005,7.5600000000000005 0 0 1 -0.30000000000000004,2 a4.07,4.07 0 0 1 -1.44,2.08 A9.08,9.08 0 0 1 68.23232889175415,83.56042472839356 a17.39,17.39 0 0 1 -6.29,-2.42 c-0.31000000000000005,-0.2 -0.6500000000000001,-0.37000000000000005 -1,-0.55 A2.85,2.85 0 0 0 58.23232889175415,80.47042472839355 a20,20 0 0 1 -3,1 a3.17,3.17 0 0 1 -3.2800000000000002,-1.22 a1.37,1.37 0 0 1 -0.2,-1.6800000000000002 a10.51,10.51 0 0 1 0.8500000000000001,-1.29 c0.47000000000000003,-0.6200000000000001 1,-1.22 1.47,-1.8 a5.65,5.65 0 0 0 1,-6 a8,8 0 0 1 -0.27,-4.57 a6.22,6.22 0 0 1 0.7000000000000001,-1.7400000000000002 a22.77,22.77 0 0 0 2.66,-6.58 a51.43,51.43 0 0 1 1.77,-4.92 c0.49000000000000005,-1.4 0.93,-2.8200000000000003 1.33,-4.26 a7.27,7.27 0 0 0 0.18000000000000002,-1.79 c0,-1.4100000000000001 0,-2.81 0,-4.22 zM58.602328891754155,77.39042472839355 a9.93,9.93 0 0 1 -2.62,3.2 C56.722328891754145,80.39042472839355 57.602328891754155,80.39042472839355 57.77232889175416,79.39042472839355 c0,-0.12000000000000001 0.16000000000000003,-0.24000000000000002 0.26,-0.3400000000000001 a1.7200000000000002,1.7200000000000002 0 0 0 0.55,-1.7000000000000002 a3.83,3.83 0 0 1 0.47000000000000003,0.6500000000000001 A3,3 0 0 0 60.23232889175415,79.55042472839355 a6.4,6.4 0 0 0 -1.48,-2.54 zM51.08232889175415,30.740424728393556 c-0.36000000000000004,-0.12000000000000001 -0.51,-0.27 -0.29000000000000004,-0.6800000000000002 c0.31000000000000005,-0.5700000000000001 0.52,-1.19 0.77,-1.79 l-0.09000000000000002,0 l-2.51,3.94 l2.1,-1.46 a9.49,9.49 0 0 0 0.78,-0.6700000000000002 c0.21000000000000002,-0.22000000000000003 0.5,-0.48000000000000004 0.53,-0.7500000000000001 a17.88,17.88 0 0 0 0,-2 c-0.39000000000000007,1 -0.7600000000000001,1.92 -1.12,2.85 C51.23232889175415,30.320424728393554 51.15232889175415,30.530424728393555 51.08232889175415,30.740424728393556 zM5.8923288917541505,43.65042472839355 c-0.07,0.07 -0.17,0.14 -0.19000000000000003,0.23 A21.18,21.18 0 0 0 5.23232889175415,51.820424728393554 l0.6500000000000001,-8.18 A11.57,11.57 0 0 1 7.702328891754151,40.390424728393555 a3,3 0 0 0 0.81,-1.8900000000000001 a36.65,36.65 0 0 0 -2.17,3.48 A7.6,7.6 0 0 0 5.8923288917541505,43.65042472839355 zM67.54232889175415,30.590424728393558 l0.5,0.1 A34.81,34.81 0 0 1 63.70232889175415,23.390424728393555 c0.38000000000000006,1.11 0.8800000000000001,2.17 1.28,3.26 a11.11,11.11 0 0 0 2.12,3.66 c0,0.9 0.8400000000000001,1.12 1.22,1.71 l0.21000000000000002,-0.17 zM6.23232889175415,62.76042472839356 a15.73,15.73 0 0 0 0.8200000000000001,-2.05 c0.22000000000000003,-0.8800000000000001 0.2,-1.82 0.45,-2.6900000000000004 c0.38000000000000006,-1.31 0.9,-2.58 1.36,-3.87 l0.47000000000000003,-1.28 c-1.27,1.26 -2.33,2.6 -2.12,4.5 a8.71,8.71 0 0 1 -0.49000000000000005,3.71 c-0.18000000000000002,0.56 -0.31000000000000005,1.1400000000000001 -0.46,1.71 a1.12,1.12 0 0 0 -0.30000000000000004,0.22000000000000003 a6.6,6.6 0 0 0 -0.7000000000000001,4.51 A18.44,18.44 0 0 1 6.23232889175415,62.76042472839356 zM54.16232889175415,19.090424728393554 c0,1.26 0,2.52 0,3.79 a14.07,14.07 0 0 1 -0.6200000000000001,4.23 a2.35,2.35 0 0 0 -0.06000000000000001,0.4 A2.11,2.11 0 0 0 53.94232889175415,26.390424728393555 c0.18000000000000002,-1.59 0.36000000000000004,-3.18 0.44000000000000006,-4.78 a17.62,17.62 0 0 0 -0.23,-2.54 c-0.43000000000000005,-3.47 -0.81,-7 -2.66,-10 c0.22000000000000003,1.09 0.48000000000000004,2.16 0.77,3.23 c0.39000000000000007,1.46 0.81,2.92 1.2,4.38 c0.19000000000000003,0.6900000000000002 0.3400000000000001,1.3900000000000001 0.52,2.08 A1.58,1.58 0 0 0 54.16232889175415,19.090424728393554 zM12.23232889175415,39.83042472839355 l2.3,-1.62 a3.67,3.67 0 0 0 1.18,-1.23 a33.8,33.8 0 0 0 -3.52,2 a9.5,9.5 0 0 0 -1.57,1.6700000000000002 c0,0.05000000000000001 0.07,0.24000000000000002 0.11000000000000001,0.37000000000000005 a2.48,2.48 0 0 0 -0.6300000000000001,2 c1.57,-0.9400000000000001 5,-4.23 5.39,-5.16 c-0.2,0.15000000000000002 -0.35000000000000003,0.28 -0.52,0.37000000000000005 zM65.41232889175416,20.390424728393555 a4.21,4.21 0 0 1 1,0.53 c0.7000000000000001,0.6700000000000002 1.34,1.3900000000000001 2,2.08 c0.35000000000000003,0.36000000000000004 0.7400000000000001,0.6900000000000002 1.11,1 l0.12000000000000001,-0.13 a15.2,15.2 0 0 0 -1.19,-1.6800000000000002 c-0.91,-1 -1.9,-1.92 -2.85,-2.87 l-2.11,-2.15 l-0.45,-0.43000000000000005 l-0.09000000000000002,0.08000000000000002 L65.23232889175415,20.330424728393556 a2.5300000000000002,2.5300000000000002 0 0 0 0.81,1.73 a1.6500000000000001,1.6500000000000001 0 0 0 0,0.5 a9.71,9.71 0 0 0 1.6,3.31 c1.27,1.56 2.52,3.14 3.87,4.62 a14.83,14.83 0 0 1 3.47,6.53 c0.42000000000000004,1.6900000000000002 0.6000000000000001,3.44 0.8600000000000001,5.16 A25.65,25.65 0 0 1 76.23232889175415,45.390424728393555 c0,2.7 0,5.4 0,8.09 c0,2.18 0,4.37 0,6.55 c0,0.7100000000000001 -0.15000000000000002,1.42 -0.23,2.13 s-0.2,1.71 -0.29000000000000004,2.56 c0,0.28 0,0.54 0.44000000000000006,0.48000000000000004 c0.08000000000000002,-0.9 0.18000000000000002,-1.8 0.23,-2.71 c0.13,-2.72 0.19000000000000003,-5.44 0.38000000000000006,-8.16 c0.12000000000000001,-1.77 0.4,-3.5300000000000002 0.6100000000000001,-5.29 a3.13,3.13 0 0 0 0,-0.8500000000000001 c-0.6700000000000002,-4 -1.56,-8 -2.09,-12 a7.24,7.24 0 0 0 -1.71,-3.6 c-1,-1.26 -2,-2.6 -2.94,-3.92 c-1.27,-1.77 -2.52,-3.56 -3.7600000000000002,-5.34 c-0.26,-0.37000000000000005 -0.47000000000000003,-0.78 -0.7000000000000001,-1.1600000000000001 c0.77,0.8800000000000001 1.6,1.71 2.3,2.6500000000000004 c1.6600000000000001,2.23 3.26,4.51 4.9,6.76 c0.24000000000000002,0.33000000000000007 0.54,0.6300000000000001 0.81,0.9400000000000001 l0.18000000000000002,-0.11000000000000001 c-0.23,-0.41000000000000003 -0.43000000000000005,-0.8400000000000001 -0.7000000000000001,-1.23 c-0.81,-1.18 -1.75,-2.29 -2.45,-3.5300000000000002 c-1.1400000000000001,-2 -2.87,-3.49 -4.29,-5.24 C66.40232889175415,21.750424728393554 65.92232889175415,21.050424728393555 65.41232889175416,20.390424728393555 zM22.76232889175415,21.720424728393553 c0.4,-0.45 0.8,-0.8900000000000001 1.19,-1.34 a81.76,81.76 0 0 0 5.62,-7 A15.54,15.54 0 0 1 32.23232889175415,10.390424728393555 A24.93,24.93 0 0 1 39.23232889175415,6.160424728393554 a7.35,7.35 0 0 0 0.7000000000000001,-0.36000000000000004 l-0.08000000000000002,-0.18000000000000002 c-0.7000000000000001,0.30000000000000004 -1.42,0.56 -2.1,0.9 a22.24,22.24 0 0 0 -5.4,3.49 a49.2,49.2 0 0 0 -6.3100000000000005,7.17 c-1.08,1.52 -2.19,3 -3.29,4.51 l-1.22,1.45 l0.19000000000000003,0.14 zm40,47.44 a8.65,8.65 0 0 0 -0.46,1.35 a9.44,9.44 0 0 0 0.49000000000000005,5.63 A11.52,11.52 0 0 0 65.23232889175415,79.39042472839355 a2.74,2.74 0 0 0 2.46,0.56 a0.7600000000000001,0.7600000000000001 0 0 0 -0.32000000000000006,-0.24000000000000002 a8.1,8.1 0 0 1 -1.44,-0.6800000000000002 a7.93,7.93 0 0 1 -2.62,-4.33 a18.17,18.17 0 0 1 -0.55,-5.53 l0.41000000000000003,0.4 l0.11000000000000001,-2.42 l-0.18000000000000002,0 zM51.23232889175415,27.220424728393553 a7.85,7.85 0 0 0 0.6700000000000002,-3.25 a55.64,55.64 0 0 0 -0.37000000000000005,-8.69 a12.9,12.9 0 0 0 -2,-6.07 a21.29,21.29 0 0 1 -1.08,-2 c-0.21000000000000002,-0.38000000000000006 -0.46,-0.7500000000000001 -0.6900000000000002,-1.13 a1.2,1.2 0 0 0 0.2,0.7400000000000001 a20.66,20.66 0 0 1 2.68,7.57 a73.69,73.69 0 0 1 0.6600000000000001,10.65 c0,0.7200000000000001 -0.05000000000000001,1.4300000000000002 -0.08000000000000002,2.15 l-0.56,0.21000000000000002 V25.210424728393555 l-1,4.8 l0.12000000000000001,0 zM34.66232889175415,4.4804247283935545 a12.67,12.67 0 0 0 -2,0.13 a18.46,18.46 0 0 0 -7.77,3.43 a7.3100000000000005,7.3100000000000005 0 0 0 -1.4100000000000001,1.47 a18.66,18.66 0 0 0 -1.1600000000000001,2.1 a3.43,3.43 0 0 0 -0.15000000000000002,0.6000000000000001 c0.4,-0.36000000000000004 0.6500000000000001,-0.5900000000000001 0.91,-0.81 c1.34,-1.12 2.66,-2.27 4,-3.35 a15.43,15.43 0 0 1 6.63,-3.26 a4.85,4.85 0 0 0 0.8500000000000001,-0.3400000000000001 a2.74,2.74 0 0 0 0.5,-0.07 a19,19 0 0 1 5.49,-1.18 a20,20 0 0 0 -8.17,1 c0.5700000000000001,0 1.13,0 1.6800000000000002,0 A1.6400000000000001,1.6400000000000001 0 0 1 34.66232889175415,4.4804247283935545 zM22.082328891754152,32.73042472839356 c-0.25,0.33000000000000007 -0.52,0.6500000000000001 -0.7600000000000001,1 c-0.91,1.27 -1.79,2.5700000000000003 -2.72,3.83 c-0.5700000000000001,0.78 -1.2,1.52 -1.81,2.2800000000000002 l-0.41000000000000003,0.5800000000000001 a5.87,5.87 0 0 0 -2.09,4.47 l-0.32000000000000006,1.29 c-0.14,0.55 -0.27,1.1 -0.43000000000000005,1.6400000000000001 A21.18,21.18 0 0 0 13.23232889175415,56.930424728393554 a35.17,35.17 0 0 0 2.25,7.91 c0.30000000000000004,0.7600000000000001 0.7000000000000001,1.48 1.06,2.22 l0.18000000000000002,-0.06000000000000001 c-0.22000000000000003,-1.32 -0.39000000000000007,-2.66 -0.6700000000000002,-4 c-0.24000000000000002,-1.12 -0.5900000000000001,-2.21 -0.9,-3.31 A25.39,25.39 0 0 1 14.562328891754149,54.390424728393555 a29.69,29.69 0 0 1 0.33000000000000007,-6.52 A18.21,18.21 0 0 1 18.23232889175415,40.210424728393555 c1,-1.35 1.8900000000000001,-2.73 2.83,-4.1 q1,-1.53 2,-3.08 c0.7600000000000001,-1.18 1.54,-2.34 2.23,-3.56 a20.5,20.5 0 0 1 3.3,-4.49 c1.29,-1.27 2.51,-2.6 3.77,-3.9 s2.71,-2.8200000000000003 4.08,-4.2 c1.15,-1.1600000000000001 2.39,-2.25 3.49,-3.45 a32.73,32.73 0 0 0 2.06,-2.75 l-0.15000000000000002,-0.11000000000000001 a42.2,42.2 0 0 1 -5,5.07 c-2.18,1.9100000000000001 -4.27,3.92 -6.37,5.93 a22.6,22.6 0 0 0 -2.4,2.59 c-1.7200000000000002,2.26 -3.37,4.57 -5,6.88 c-0.4,0.55 -0.7100000000000001,1.1600000000000001 -1.06,1.7400000000000002 zM15.992328891754152,69.86042472839355 c-0.13,-0.17 -0.24000000000000002,-0.35000000000000003 -0.38000000000000006,-0.51 a16.09,16.09 0 0 1 -1.6,-1.79 a20.52,20.52 0 0 1 -2.67,-6.66 c-0.26,-1.12 -0.4,-2.27 -0.5900000000000001,-3.4 c-0.07,1.47 0,2.93 -0.09000000000000002,4.38 a5.38,5.38 0 0 0 0.6800000000000002,2.79 a48.4,48.4 0 0 0 5,7.52 a12.64,12.64 0 0 0 1.1600000000000001,1.13 l0.56,-1 C17.31232889175415,71.39042472839355 16.23232889175415,70.89042472839355 15.582328891754152,69.84042472839356 h0.43000000000000005 l2.21,2 a2.81,2.81 0 0 0 0.46,-1.7200000000000002 c-0.17,-1.6500000000000001 -0.32000000000000006,-3.31 -0.47000000000000003,-5 c0,-0.51 -0.08000000000000002,-1 -0.15000000000000002,-1.54 c-0.4,-2.75 -1,-5.46 -1.24,-8.24 a35,35 0 0 1 0,-7.55 a9.32,9.32 0 0 0 0,-1.12 a1.29,1.29 0 0 0 -0.28,0.6300000000000001 c-0.1,0.77 -0.17,1.54 -0.27,2.3 a25.91,25.91 0 0 0 0,6.86 c0.27,2.1 0.5700000000000001,4.2 0.7400000000000001,6.3100000000000005 a40.61,40.61 0 0 0 0.8400000000000001,6.640000000000001 a1.1,1.1 0 0 1 -0.22000000000000003,1.18 zM47.58232889175415,32.48042472839356 a3.25,3.25 0 0 0 1.18,-1.81 c0.23,-0.7600000000000001 0.46,-1.53 0.6600000000000001,-2.3 c0.1,-0.4 0.15000000000000002,-0.8200000000000001 0.24000000000000002,-1.37 l-2.1,5.2 a11.68,11.68 0 0 1 0.25,-1.25 c0.32000000000000006,-1 0.6600000000000001,-2 1,-3 c0.23,-0.6500000000000001 0.53,-1.27 0.7400000000000001,-1.92 A5.34,5.34 0 0 0 49.96232889175415,24.390424728393555 c0,-1.7200000000000002 -0.07,-3.44 -0.2,-5.16 c-0.09000000000000002,-1.31 -0.31000000000000005,-2.6 -0.47000000000000003,-3.9 h-0.23 a21.9,21.9 0 0 1 -1,10.51 a31.83,31.83 0 0 1 -4.6,9.71 a3.66,3.66 0 0 0 2.29,-2.33 a38.66,38.66 0 0 1 1.82,-4.62 a20.84,20.84 0 0 0 1.57,-5.68 c0.06000000000000001,-0.49000000000000005 0.17,-1 0.26,-1.45 l0.18000000000000002,0 a3,3 0 0 1 0.09000000000000002,0.38000000000000006 A13.88,13.88 0 0 1 48.23232889175415,28.390424728393555 c-0.6800000000000002,1.7000000000000002 -1.4300000000000002,3.37 -2.15,5.05 c-0.07,0.17 -0.12000000000000001,0.36000000000000004 -0.22000000000000003,0.7000000000000001 c0.7000000000000001,-0.45 1.3900000000000001,-0.6500000000000001 1.4300000000000002,-1.5 C47.31232889175415,32.61042472839355 47.48232889175415,32.54042472839355 47.58232889175415,32.48042472839356 zM46.03232889175415,6.390424728393555 l0.14,-0.81 a12.11,12.11 0 0 0 -1.55,1.7400000000000002 a1.33,1.33 0 0 0 -0.13,0.39000000000000007 a2.92,2.92 0 0 1 -0.27,0.77 c-0.7400000000000001,1.06 -1.58,2 -2.26,3.14 a26.47,26.47 0 0 1 -4.68,5.26 l-1,0.91 a17.69,17.69 0 0 0 2.33,-1.7200000000000002 a8.69,8.69 0 0 1 1.46,-1.19 a1.6300000000000001,1.6300000000000001 0 0 0 0.7500000000000001,-0.7400000000000001 c0.30000000000000004,-0.55 0.6100000000000001,-1.1 0.92,-1.6500000000000001 l0.2,0.1 l-0.93,1.9500000000000002 a0.6100000000000001,0.6100000000000001 0 0 0 0.37000000000000005,-0.29000000000000004 l4.29,-7.45 a3.79,3.79 0 0 1 0.35000000000000003,-0.45 c-0.4,0.91 -0.79,1.83 -1.21,2.73 c-0.27,0.5700000000000001 -0.6000000000000001,1.11 -0.8600000000000001,1.6800000000000002 s-0.5900000000000001,1.47 -0.93,2.19 c-0.56,1.19 -1.18,2.35 -1.75,3.54 c-0.25,0.51 -0.41000000000000003,1.07 -0.6800000000000002,1.58 a25.5,25.5 0 0 1 -7.55,9 a16.53,16.53 0 0 0 -3.77,3.75 C28.23232889175415,32.390424728393555 27.05232889175415,33.86042472839355 25.932328891754153,35.390424728393555 l-1,1.3800000000000001 l0.14,0.11000000000000001 l0.6100000000000001,-0.6900000000000002 c1.44,-1.6700000000000002 2.8600000000000003,-3.36 4.34,-5 c0.79,-0.8700000000000001 1.6900000000000002,-1.6300000000000001 2.5300000000000002,-2.45 l3.56,-3.51 a20.74,20.74 0 0 0 4.55,-5.57 c1.25,-2.6100000000000003 2.52,-5.21 3.7,-7.84 c0.6600000000000001,-1.46 1.15,-3 1.73,-4.49 C46.23232889175415,6.990424728393554 46.31232889175415,6.680424728393554 46.03232889175415,6.390424728393555 zM20.742328891754152,39.52042472839356 a4.17,4.17 0 0 0 1,-1.21 c0.81,-1.31 1.6900000000000002,-2.59 2.59,-3.85 s1.6600000000000001,-2.34 2.58,-3.43 a28.11,28.11 0 0 1 4.5,-4.23 a29.73,29.73 0 0 0 5.93,-6.54 c0.39000000000000007,-0.54 0.7300000000000001,-1.12 1.1,-1.6800000000000002 l-0.16000000000000003,-0.11000000000000001 c-1.18,1.27 -2.41,2.51 -3.54,3.83 a44,44 0 0 1 -4.27,3.71 c-0.52,0.48000000000000004 -1.06,0.9500000000000001 -1.54,1.46 s-0.6700000000000002,1.15 -1.1600000000000001,1.35 a3.3200000000000003,3.3200000000000003 0 0 0 -1.24,1.13 a44.94,44.94 0 0 0 -6.21,9 l0.39000000000000007,0.6000000000000001 a1.49,1.49 0 0 0 -0.41000000000000003,0 a4.17,4.17 0 0 0 -2,1.57 a16.33,16.33 0 0 0 -2.64,5.640000000000001 a23.91,23.91 0 0 0 -0.5700000000000001,6.83 a19.54,19.54 0 0 0 0.38000000000000006,5 c0.29000000000000004,1.06 0.5700000000000001,2.12 0.8500000000000001,3.18 l0.18000000000000002,0 c-0.1,-0.8800000000000001 -0.19000000000000003,-1.7600000000000002 -0.29000000000000004,-2.64 c-0.19000000000000003,-1.59 -0.51,-3.18 -0.56,-4.77 a26.69,26.69 0 0 1 1.15,-9.24 A12.13,12.13 0 0 1 20.742328891754152,39.52042472839356 zM62.42232889175415,56.000424728393554 c0,0.6500000000000001 -0.05000000000000001,1.29 -0.09000000000000002,1.94 s-0.12000000000000001,1.58 -0.17,2.38 c0,0.3400000000000001 0,0.6800000000000002 0,1 c-0.18000000000000002,1.11 -0.39000000000000007,2.22 -0.5900000000000001,3.33 c0.7100000000000001,-1.6 1.27,-3.24 1.82,-4.88 a0.8600000000000001,0.8600000000000001 0 0 0 0,-0.41000000000000003 c-0.21000000000000002,-1 -0.41000000000000003,-2.06 -0.6400000000000001,-3.09 c0,-0.1 -0.21000000000000002,-0.17 -0.32000000000000006,-0.25 l0.24000000000000002,-1.7000000000000002 l-0.26,-0.06000000000000001 a24.14,24.14 0 0 0 -0.81,2.49 c-0.4,1.85 -0.6600000000000001,3.72 -1.07,5.5600000000000005 s-0.9400000000000001,3.7800000000000002 -1.4100000000000001,5.66 c-0.24000000000000002,1 -0.43000000000000005,2 -0.7300000000000001,2.91 c-0.6800000000000002,2.1 -1.4100000000000001,4.18 -2.16,6.25 a12.12,12.12 0 0 1 -0.8800000000000001,1.86 A3.1,3.1 0 0 1 53.58232889175415,80.39042472839355 c2,-1.44 2.25,-3.7 2.9,-5.78 c-0.31000000000000005,0.5800000000000001 -0.5700000000000001,1.18 -0.8200000000000001,1.79 a7.61,7.61 0 0 1 -2.25,2.7800000000000002 a0.7300000000000001,0.7300000000000001 0 0 1 -1,0.18000000000000002 l0.55,-0.48000000000000004 A8.22,8.22 0 0 0 55.05232889175415,76.39042472839355 a16.68,16.68 0 0 0 1.86,-7.78 c0,-1.27 0.06000000000000001,-2.55 0.1,-3.83 a2.94,2.94 0 0 0 -0.45,0.9 a10.16,10.16 0 0 0 -0.1,4.94 a3.33,3.33 0 0 1 0,1 c0,0.15000000000000002 -0.25,0.27 -0.25,0.41000000000000003 a6.09,6.09 0 0 1 -1.53,3.75 c-0.6600000000000001,0.8300000000000001 -1.36,1.6300000000000001 -2,2.5 s-0.55,1.54 0.5,2.18 a3.72,3.72 0 0 0 0.46,0.23 c0.6600000000000001,0.28 0.7500000000000001,0.24000000000000002 1,-0.47000000000000003 a1.19,1.19 0 0 1 0.22000000000000003,-0.26 a10.2,10.2 0 0 0 2.14,-4.07 a28,28 0 0 1 1.7600000000000002,-4.83 a24,24 0 0 0 2.17,-6.32 c0.35000000000000003,-2.12 0.6000000000000001,-4.25 0.93,-6.38 C62.02232889175416,57.59042472839356 62.23232889175415,56.80042472839355 62.42232889175415,56.000424728393554 zM9.782328891754151,44.320424728393554 l0.19000000000000003,0.2 A17.62,17.62 0 0 0 14.602328891754151,41.390424728393555 c0.7400000000000001,-0.8400000000000001 1.44,-1.71 2.17,-2.56 a38.9,38.9 0 0 0 4.25,-5.73 c0.26,-0.45 0.56,-0.8700000000000001 0.8600000000000001,-1.29 c1.45,-2 2.88,-4.08 4.38,-6.07 a38.29,38.29 0 0 1 2.85,-3.44 c1.46,-1.54 3,-3 4.54,-4.47 c1.06,-1 2.19,-1.94 3.27,-2.93 S39.23232889175415,12.790424728393553 40.30232889175415,11.670424728393556 c1.4,-1.48 2.7,-3.06 4,-4.59 a3.08,3.08 0 0 0 0.27,-0.43000000000000005 l-0.16000000000000003,-0.15000000000000002 a33.17,33.17 0 0 0 -2.9,2.27 c-2.68,2.6 -5.28,5.27 -7.94,7.9 c-1.08,1.07 -2.24,2.06 -3.3200000000000003,3.13 a47.9,47.9 0 0 0 -4.53,5.07 c-1.25,1.6400000000000001 -2.6100000000000003,3.19 -3.71,5 c-1.55,2.48 -3.24,4.87 -4.87,7.3 a5,5 0 0 1 -0.36000000000000004,0.48000000000000004 a41.6,41.6 0 0 1 -6.49,6.15 A4.11,4.11 0 0 0 9.782328891754151,44.320424728393554 zm31.9,-39.57 l0,-0.11000000000000001 a7.53,7.53 0 0 0 -0.7500000000000001,0.11000000000000001 a24.21,24.21 0 0 0 -7,2.7600000000000002 A12.56,12.56 0 0 0 30.23232889175415,10.730424728393555 a21.67,21.67 0 0 1 -1.49,1.78 c-2.08,2.26 -4.48,4.21 -6.3,6.71 c-0.77,1.07 -1.59,2.1 -2.34,3.19 s-1.57,2.47 -2.42,3.6500000000000004 a14.16,14.16 0 0 1 -2.05,2.43 a22.14,22.14 0 0 0 -4.35,5.82 c-0.53,0.91 -0.8500000000000001,1.94 -1.34,2.88 a22.63,22.63 0 0 1 -2.27,4.13 a6.76,6.76 0 0 0 -1.51,4 c-0.15000000000000002,2.06 -0.23,4.12 -0.3400000000000001,6.18 c0,0.7500000000000001 -0.12000000000000001,1.5 -0.18000000000000002,2.24 l0.24000000000000002,0 c0.1,-0.93 0.2,-1.85 0.30000000000000004,-2.7800000000000002 s0.2,-2 0.36000000000000004,-3 s0.5,-2.12 0.6500000000000001,-3.19 a12.59,12.59 0 0 1 2.6,-6.09 c0.7200000000000001,-0.93 1.54,-1.79 2.17,-2.77 a44.69,44.69 0 0 0 2.51,-4.41 a17.53,17.53 0 0 1 3.49,-5.18 a50.35,50.35 0 0 0 5,-5.94 c2.6500000000000004,-3.43 5.15,-7 8.32,-10 a22.26,22.26 0 0 1 9,-5.27 zm27.12,57.2 l-0.30000000000000004,-0.41000000000000003 A13,13 0 0 1 66.23232889175415,57.070424728393554 a21.77,21.77 0 0 1 -0.07,-8.21 c0.32000000000000006,-2.15 0.7300000000000001,-4.3 0.9400000000000001,-6.46 c0.18000000000000002,-1.9100000000000001 0.15000000000000002,-3.84 0.16000000000000003,-5.76 a16.62,16.62 0 0 0 -1.6800000000000002,-7.3100000000000005 a20.75,20.75 0 0 1 -0.8700000000000001,-2 a32.34,32.34 0 0 0 -4.52,-8.36 a19,19 0 0 0 -4.47,-4.49 l-0.8700000000000001,-0.5900000000000001 A23.84,23.84 0 0 0 61.90232889175415,24.390424728393555 a16.42,16.42 0 0 0 -1.29,-1.75 a13.28,13.28 0 0 1 -2.63,-3.47 A9.67,9.67 0 0 0 55.572328891754154,15.390424728393555 c-0.09000000000000002,-0.08000000000000002 -0.11000000000000001,-0.25 -0.23,-0.54 a3.18,3.18 0 0 1 0.44000000000000006,0.25 a10.33,10.33 0 0 1 2.33,3.06 a10.28,10.28 0 0 0 1.9100000000000001,2.84 a20.16,20.16 0 0 1 1.9300000000000002,2.19 a17.75,17.75 0 0 1 3.14,6.44 a24.94,24.94 0 0 1 1.08,3.51 a70.41,70.41 0 0 1 0.29000000000000004,7.3 c0,1.57 -0.29000000000000004,3.14 -0.41000000000000003,4.71 c-0.27,3.43 -0.8900000000000001,6.83 -1,10.27 a2,2 0 0 0 0.26,0.7400000000000001 c0.06000000000000001,0.15000000000000002 0.18000000000000002,0.27 0.23,0.42000000000000004 a19.91,19.91 0 0 1 0.8900000000000001,2.59 A4.13,4.13 0 0 0 68.80232889175414,61.95042472839356 zM3.3923288917541505,55.390424728393555 l0.23,0 a12.14,12.14 0 0 1 -0.17,-1.44 c0,-1.6700000000000002 0,-3.33 0,-5 a12.91,12.91 0 0 1 1.26,-5.66 a32.52,32.52 0 0 0 2.31,-4.79 a1.5,1.5 0 0 1 0.2,-0.38000000000000006 a23.72,23.72 0 0 0 2.26,-4.62 c0.5900000000000001,-1.4300000000000002 1.35,-2.7800000000000002 2.06,-4.16 c1,-1.8900000000000001 2,-3.75 2.9,-5.65 a48,48 0 0 1 3.56,-6.57 a49.49,49.49 0 0 0 4.5,-6.92 c0.07,-0.15000000000000002 0.12000000000000001,-0.32000000000000006 0.18000000000000002,-0.48000000000000004 a26.91,26.91 0 0 0 -4.29,5.17 c-1.51,2.23 -2.7600000000000002,4.63 -4.12,7 a54,54 0 0 0 -2.7,4.69 c-1,2.29 -1.85,4.68 -2.8,7 c-0.51,1.24 -1,2.48 -1.6600000000000001,3.67 c-0.6900000000000002,1.35 -1.54,2.62 -2.23,4 a17.54,17.54 0 0 0 -2.05,7.4 c0,1.55 0,3.1 0.13,4.65 A17.3,17.3 0 0 0 3.3923288917541505,55.390424728393555 zm29.16,-49.8 A10.07,10.07 0 0 0 28.782328891754148,7.390424728393555 a54.32,54.32 0 0 0 -6.33,5.3 a15.67,15.67 0 0 0 -3.59,4.57 c-0.15000000000000002,0.31000000000000005 -0.36000000000000004,0.5900000000000001 -0.52,0.8900000000000001 l-4.75,8.95 c-0.11000000000000001,0.2 -0.18000000000000002,0.42000000000000004 -0.27,0.6300000000000001 a46.23,46.23 0 0 1 -3.5,6.88 c-0.35000000000000003,0.55 -0.6000000000000001,1.15 -0.8900000000000001,1.73 l0.17,0.09000000000000002 c0.35000000000000003,-0.49000000000000005 0.7200000000000001,-1 1,-1.47 c0.56,-0.9 1,-1.87 1.62,-2.73 a31.79,31.79 0 0 0 2.8200000000000003,-5.1 A35.56,35.56 0 0 1 18.43232889175415,20.390424728393555 c0.26,-0.3400000000000001 0.47000000000000003,-0.7200000000000001 0.7100000000000001,-1.08 c0.52,-0.79 1,-1.62 1.58,-2.35 c1.08,-1.34 2.2,-2.64 3.35,-3.93 C26.502328891754154,10.390424728393555 28.932328891754153,7.630424728393555 32.23232889175415,5.8504247283935555 C32.322328891754154,5.790424728393555 32.44232889175415,5.700424728393555 32.55232889175415,5.620424728393555 zm15.8,-1.05 l0.15000000000000002,0.06000000000000001 c1.46,0.4 2.93,0.7500000000000001 4.38,1.21 a17.61,17.61 0 0 1 1.75,0.9 a7.58,7.58 0 0 1 3.89,3.48 a12.64,12.64 0 0 0 3,3.71 a5.57,5.57 0 0 1 0.8600000000000001,1 a28.17,28.17 0 0 0 4,4.45 a17.51,17.51 0 0 1 3,3.23 a15.07,15.07 0 0 0 3.77,4 a4.73,4.73 0 0 1 1.6900000000000002,2.13 c0.31000000000000005,0.8 0.6000000000000001,1.61 1,2.38 a22.21,22.21 0 0 1 1.59,5.25 a9.23,9.23 0 0 0 1.34,3.42 c0,-0.43000000000000005 0,-0.7500000000000001 0,-1.06 s-0.11000000000000001,-0.6800000000000002 -0.14,-1 a20,20 0 0 0 -4,-10.71 a55.9,55.9 0 0 0 -6.91,-7.09 a43.62,43.62 0 0 1 -7.15,-8 a22.72,22.72 0 0 0 -5.35,-5.54 A9.94,9.94 0 0 0 48.35232889175415,4.560424728393555 zM14.23232889175415,42.77042472839356 l-0.18000000000000002,-0.12000000000000001 a5.72,5.72 0 0 0 -0.56,0.9 A43.58,43.58 0 0 0 11.23232889175415,51.70042472839356 a7.24,7.24 0 0 0 -0.16000000000000003,1.7000000000000002 c0.06000000000000001,1.1400000000000001 0.24000000000000002,2.2800000000000002 0.32000000000000006,3.42 a24.77,24.77 0 0 0 1.9,8 a10,10 0 0 0 2.92,4.19 c0.25,0.19000000000000003 0.52,0.35000000000000003 0.8400000000000001,0.55 a1.07,1.07 0 0 0 0,-0.24000000000000002 c-0.07,-0.15000000000000002 -0.15000000000000002,-0.31000000000000005 -0.23,-0.46 A34.11,34.11 0 0 1 12.23232889175415,52.560424728393556 a18.78,18.78 0 0 1 0.78,-5 C13.402328891754152,45.960424728393555 13.852328891754151,44.390424728393555 14.23232889175415,42.77042472839356 zM73.51232889175415,64.68042472839356 l0.15000000000000002,-0.12000000000000001 c-0.14,-0.39000000000000007 -0.26,-0.79 -0.42000000000000004,-1.17 c-0.6000000000000001,-1.45 -1.26,-2.88 -1.81,-4.35 a18.67,18.67 0 0 1 -1.3,-8.76 a35.52,35.52 0 0 0 0.16000000000000003,-4 c0,-1.3800000000000001 -0.12000000000000001,-2.75 -0.17,-4.13 a29.71,29.71 0 0 0 -1,-7.48 a7.06,7.06 0 0 0 -2.3,-3.62 c0.52,1.8900000000000001 1,3.64 1.48,5.4 c0.18000000000000002,0.6600000000000001 0.36000000000000004,1.32 0.48000000000000004,2 a12.36,12.36 0 0 0 0.24000000000000002,1.78 a6,6 0 0 1 0.29000000000000004,2.37 c-0.12000000000000001,2.18 -0.24000000000000002,4.36 -0.41000000000000003,6.53 A14.12,14.12 0 0 0 70.23232889175415,56.27042472839356 a9.870000000000001,9.870000000000001 0 0 1 0.6500000000000001,2 c0.42000000000000004,1.94 0.45,4 2,5.53 l-0.39000000000000007,0.30000000000000004 zm-42,-27.5 a1.8800000000000001,1.8800000000000001 0 0 0 2.47,-0.43000000000000005 c0.93,-0.9400000000000001 1.9100000000000001,-1.82 2.81,-2.79 s1.47,-1.8 2.19,-2.7 l-0.14,-0.12000000000000001 c-2,2 -3.68,4.52 -6.34,5.87 A34.83,34.83 0 0 0 38.23232889175415,31.190424728393552 c1.15,-1.34 2.09,-2.87 3.13,-4.3100000000000005 A29.92,29.92 0 0 0 43.23232889175415,24.320424728393554 a42.84,42.84 0 0 0 4,-8.71 a8.15,8.15 0 0 0 0.1,-2.46 c-0.27,0.53 -0.43000000000000005,1.08 -0.6500000000000001,1.6 c-0.54,1.29 -1.05,2.6 -1.6900000000000002,3.85 c-1,2 -2.2,4 -3.2800000000000002,6 a34.6,34.6 0 0 1 -7,9.22 C33.63232889175415,34.91042472839356 32.59232889175415,36.060424728393556 31.49232889175415,37.180424728393554 zM65.23232889175415,25.110424728393554 c0.23,0.47000000000000003 0.42000000000000004,0.91 0.6500000000000001,1.32 s0.5700000000000001,0.93 0.8900000000000001,1.37 a54.66,54.66 0 0 0 3.23,4.45 a12.79,12.79 0 0 1 3.1,6.3100000000000005 c0.08000000000000002,0.45 0.12000000000000001,0.91 0.18000000000000002,1.36 a22,22 0 0 1 0.45,3.11 c0,3.93 -0.08000000000000002,7.87 -0.14,11.8 a3.35,3.35 0 0 1 -0.33000000000000007,2 c-0.11000000000000001,0.16000000000000003 0,0.45 0,0.6700000000000002 c0.14,1.4 0.28,2.8 0.45,4.19 c0.11000000000000001,0.8800000000000001 0.27,1.75 0.43000000000000005,2.62 a3.11,3.11 0 0 0 0.33000000000000007,0.7000000000000001 c0.16000000000000003,-0.13 0.19000000000000003,-0.21000000000000002 0.17,-0.28 c-1.24,-3.71 -0.8600000000000001,-7.47 -0.45,-11.25 a46.55,46.55 0 0 0 0.36000000000000004,-6.26 c-0.07,-2.63 -0.33000000000000007,-5.27 -0.6400000000000001,-7.890000000000001 a14.83,14.83 0 0 0 -3.16,-7.59 A10.84,10.84 0 0 1 68.70232889175415,28.390424728393555 a2.48,2.48 0 0 0 -0.7400000000000001,-0.8900000000000001 C67.10232889175415,26.730424728393558 66.23232889175415,25.960424728393555 65.23232889175415,25.110424728393554 zM13.39232889175415,37.83042472839355 l0,0.07 c0.7200000000000001,-0.45 1.42,-0.9400000000000001 2.16,-1.35 a5.66,5.66 0 0 0 2.08,-2 a4.19,4.19 0 0 1 1,-1.26 A6.25,6.25 0 0 0 20.23232889175415,31.590424728393558 c1.29,-1.82 2.3200000000000003,-3.8200000000000003 3.8,-5.53 c2,-2.3200000000000003 3.9,-4.74 6.12,-6.87 c1.9300000000000002,-1.84 3.84,-3.71 5.76,-5.5600000000000005 l4.77,-4.61 a13.92,13.92 0 0 1 3.84,-2.72 a8.32,8.32 0 0 0 1.33,-1 l-0.11000000000000001,-0.17 a6.53,6.53 0 0 0 -0.6700000000000002,0.30000000000000004 A33,33 0 0 0 39.23232889175415,9.740424728393554 q-5.12,4.74 -10.19,9.53 A29.54,29.54 0 0 0 26.23232889175415,22.340424728393554 c-1.48,1.87 -2.8200000000000003,3.84 -4.26,5.73 s-3,3.95 -4.58,5.8100000000000005 C16.12232889175415,35.29042472839355 14.71232889175415,36.52042472839356 13.39232889175415,37.83042472839355 zM64.75232889175415,60.390424728393555 a14.17,14.17 0 0 1 -0.38000000000000006,-4.44 c0,-0.7100000000000001 0.06000000000000001,-1.4300000000000002 0.11000000000000001,-2.15 s0.13,-1.6 0.21000000000000002,-2.4 s0.21000000000000002,-1.71 0.31000000000000005,-2.56 c0.16000000000000003,-1.4 0.35000000000000003,-2.79 0.46,-4.19 q0.23,-2.83 0.36000000000000004,-5.67 a25.26,25.26 0 0 0 0,-2.83 a13.55,13.55 0 0 0 -0.44000000000000006,-3.66 c-0.49000000000000005,-1.4 -0.93,-2.8200000000000003 -1.3900000000000001,-4.23 c-0.05000000000000001,-0.16000000000000003 -0.1,-0.33000000000000007 -0.17,-0.49000000000000005 s-0.16000000000000003,-0.30000000000000004 -0.24000000000000002,-0.46 a28.9,28.9 0 0 1 1.17,8.83 a52,52 0 0 1 -0.28,7.48 c-0.39000000000000007,2.72 -0.77,5.45 -1.13,8.17 C63.23232889175415,52.490424728393556 63.23232889175415,53.19042472839355 63.23232889175415,53.87042472839355 l0.26,0 c0.4,-4.21 1.53,-8.34 1.47,-12.620000000000001 a2.75,2.75 0 0 1 0.21000000000000002,1.55 c0,3.37 -0.7300000000000001,6.66 -1.08,10 a41.58,41.58 0 0 0 -0.48000000000000004,4.34 A5.05,5.05 0 0 0 64.75232889175415,60.390424728393555 zM14.672328891754152,28.390424728393555 a2.44,2.44 0 0 0 1.21,-1.4100000000000001 a16.1,16.1 0 0 1 1.6600000000000001,-3 c1.6800000000000002,-2.2800000000000002 3.46,-4.5 5.2,-6.74 c0.79,-1 1.57,-2 2.38,-3.05 s1.9100000000000001,-2.22 2.81,-3.37 A17.8,17.8 0 0 1 36.23232889175415,5.0204247283935555 c0.8600000000000001,-0.30000000000000004 1.71,-0.6300000000000001 2.5700000000000003,-0.9400000000000001 a0.46,0.46 0 0 0 -0.35000000000000003,-0.08000000000000002 a20.89,20.89 0 0 0 -9.42,4.71 a77.8,77.8 0 0 0 -7.21,7.75 c-1.1,1.3 -1.87,2.89 -2.91,4.25 A47.48,47.48 0 0 0 15.582328891754152,26.390424728393555 C15.23232889175415,27.030424728393555 14.972328891754149,27.730424728393558 14.672328891754152,28.390424728393555 zm53.14,7.54 a4,4 0 0 0 0,0.42000000000000004 a46.76,46.76 0 0 1 -0.8300000000000001,11.12 a35.1,35.1 0 0 0 -0.5800000000000001,6.33 a12,12 0 0 0 3,7.85 c0.25,0.29000000000000004 0.52,0.56 0.79,0.8400000000000001 a0.6600000000000001,0.6600000000000001 0 0 0 0,-0.45 c-0.6700000000000002,-1.73 -1.3900000000000001,-3.45 -2,-5.21 a15.48,15.48 0 0 1 -0.5800000000000001,-2.85 a25.84,25.84 0 0 1 0.45,-7.45 a32.1,32.1 0 0 0 0.5800000000000001,-7 A8.81,8.81 0 0 0 67.81232889175415,35.95042472839356 zM19.30232889175415,72.55042472839355 l0.27,0.05000000000000001 A9.44,9.44 0 0 0 20.51232889175415,69.39042472839355 a21.58,21.58 0 0 0 -0.6200000000000001,-6.5600000000000005 a26,26 0 0 1 -0.78,-7.5 a5.93,5.93 0 0 1 0.8300000000000001,-3.2800000000000002 a1,1 0 0 0 0.07,-0.6400000000000001 c-0.1,-0.6200000000000001 -0.24000000000000002,-1.24 -0.37000000000000005,-1.85 S19.36232889175415,48.390424728393555 19.23232889175415,47.66042472839356 a3.89,3.89 0 0 0 -0.18000000000000002,0.54 A71.94,71.94 0 0 0 18.41232889175415,59.390424728393555 a85.76,85.76 0 0 0 1,9.13 a12.26,12.26 0 0 1 0,2 C19.42232889175415,71.21042472839355 19.35232889175415,71.88042472839355 19.30232889175415,72.55042472839355 zm16,-34.87 A3.7800000000000002,3.7800000000000002 0 0 0 39.23232889175415,36.33042472839355 c0.39000000000000007,-0.42000000000000004 0.79,-0.8300000000000001 1.1600000000000001,-1.27 q1.73,-2.09 3.43,-4.2 a22.34,22.34 0 0 0 3.38,-5.06 a18.73,18.73 0 0 0 1.6,-7.86 c0,-1.55 -0.18000000000000002,-3.09 -0.33000000000000007,-4.63 a10.25,10.25 0 0 0 -0.39000000000000007,-1.56 a20.25,20.25 0 0 0 -0.12000000000000001,2.77 A34.38,34.38 0 0 1 47.60232889175415,20.390424728393555 a22.79,22.79 0 0 1 -4,9.7 a23.64,23.64 0 0 1 -2.1,2.5 c-1.81,1.9100000000000001 -3.52,4 -6.11,4.91 C35.39232889175415,37.560424728393556 35.36232889175415,37.62042472839355 35.31232889175415,37.680424728393554 zM46.05232889175415,8.950424728393555 c-0.21000000000000002,0.56 -0.39000000000000007,1.13 -0.6300000000000001,1.6700000000000002 Q44.23232889175415,13.250424728393554 43.04232889175415,15.860424728393554 c-0.53,1.1400000000000001 -1.08,2.2800000000000002 -1.6400000000000001,3.41 a14.91,14.91 0 0 1 -2.6900000000000004,4 c-2.18,2.2 -4.45,4.33 -6.65,6.51 q-2.39,2.36 -4.71,4.78 c-0.6100000000000001,0.6400000000000001 -1.11,1.37 -1.73,2.16 a8.92,8.92 0 0 1 1.27,-0.14 a1,1 0 0 0 0.9,-0.51 c0.6200000000000001,-0.78 1.28,-1.55 2,-2.2800000000000002 s1.3,-1.26 1.9500000000000002,-1.8800000000000001 l-0.15000000000000002,-0.16000000000000003 c-1.81,1.1600000000000001 -3.16,2.87 -4.8,4.3100000000000005 c0,-0.15000000000000002 -0.07,-0.23 -0.05000000000000001,-0.25 a51.29,51.29 0 0 1 3.64,-3.66 a35.79,35.79 0 0 0 5.46,-4.94 c1,-1.21 2.07,-2.31 3,-3.51 a67.42,67.42 0 0 0 6,-9.61 A9.41,9.41 0 0 0 46.05232889175415,8.950424728393555 zM22.23232889175415,65.68042472839356 l-0.2,0 c0.15000000000000002,1.45 0.31000000000000005,2.9 0.45,4.35 a11,11 0 0 1 0.07,2.06 a2.18,2.18 0 0 1 -0.7600000000000001,1.78 c0,-0.08000000000000002 -0.07,-0.11000000000000001 -0.07,-0.13 a1.54,1.54 0 0 1 0.07,-0.33000000000000007 a6.41,6.41 0 0 0 0.30000000000000004,-3.47 c-0.13,-0.91 -0.17,-1.82 -0.24000000000000002,-2.74 a16.9,16.9 0 0 0 -0.28,-3.25 c-0.53,-1.86 -0.55,-3.79 -0.9,-5.67 c-0.31000000000000005,-1.6800000000000002 -0.44000000000000006,-3.39 -0.6500000000000001,-5.09 a12.52,12.52 0 0 0 -0.32000000000000006,3.63 a41.51,41.51 0 0 0 1.11,7.21 a15.59,15.59 0 0 1 0.2,6.06 a31.07,31.07 0 0 1 -0.93,3.16 l1.62,1.55 a5.74,5.74 0 0 0 1.51,-5 c-0.17,-1 -0.42000000000000004,-1.9 -0.6400000000000001,-2.85 C22.48232889175415,66.55042472839355 22.35232889175415,66.12042472839356 22.23232889175415,65.68042472839356 zm41.49,-21.5 a32.46,32.46 0 0 0 0.44000000000000006,-6.35 a9.56,9.56 0 0 0 -0.5800000000000001,-3.18 a31.7,31.7 0 0 1 -1,-3.71 a28.77,28.77 0 0 0 -1.13,-4.4 a17.75,17.75 0 0 0 -2.87,-4.93 a12.34,12.34 0 0 1 -1.9100000000000001,-3 c-0.18000000000000002,-0.44000000000000006 -0.42000000000000004,-0.8600000000000001 -0.6300000000000001,-1.28 l-0.17,0.07 c0.43000000000000005,1.17 0.32000000000000006,2.44 1.12,3.56 a35.54,35.54 0 0 1 6.35,16.75 C63.492328891754156,39.890424728393555 63.59232889175415,42.13042472839356 63.722328891754145,44.180424728393554 zM21.98232889175415,82.29042472839356 a5.33,5.33 0 0 0 -0.7100000000000001,-0.41000000000000003 a7.53,7.53 0 0 1 -3.55,-3 c-1.07,-1.62 -2,-3.33 -3.14,-4.92 a34.47,34.47 0 0 1 -3.7,-7.62 a11.06,11.06 0 0 1 -0.7100000000000001,-4.12 c0,-0.77 0,-1.54 0,-2.31 a24.1,24.1 0 0 0 0.25,7.18 a15,15 0 0 0 1,3.64 a15.81,15.81 0 0 1 0.6900000000000002,1.7600000000000002 a9.08,9.08 0 0 0 3.22,4.45 a16.33,16.33 0 0 1 2.13,2.1 a27.59,27.59 0 0 0 2.67,2.91 A2,2 0 0 0 21.98232889175415,82.29042472839356 zm23.2,-77.47 a6.47,6.47 0 0 0 -2.9,0.9 c-1.25,0.7100000000000001 -2.45,1.48 -3.6900000000000004,2.2 a8.55,8.55 0 0 0 -3.27,3.56 a8.3,8.3 0 0 1 -2.6500000000000004,3 a29.38,29.38 0 0 0 -6.2,6.5 a4.26,4.26 0 0 0 0.6800000000000002,-0.5800000000000001 c1.7400000000000002,-1.6700000000000002 3.45,-3.37 5.22,-5 s3.55,-3.1 5.23,-4.74 a31.3,31.3 0 0 1 4.33,-3.67 zM19.42232889175415,82.13042472839355 l-1.09,-0.9400000000000001 c-0.51,0.42000000000000004 -0.6700000000000002,-0.1 -0.81,-0.36000000000000004 a4,4 0 0 0 -1.87,-1.71 a7.44,7.44 0 0 1 -3.58,-4.12 c-0.78,-1.85 -1.62,-3.67 -2.43,-5.5 a3.5,3.5 0 0 1 -0.14,-0.5 l0.14,-0.07 l0.8,1.23 c-0.2,-1.17 -0.4,-2.24 -0.55,-3.31 s-0.3400000000000001,-2.15 -0.41000000000000003,-3.24 s0,-2.11 0,-3.18 c-0.2,0.8200000000000001 -0.43000000000000005,1.6500000000000001 -0.6000000000000001,2.49 A6.65,6.65 0 0 0 8.792328891754149,64.39042472839355 a31.86,31.86 0 0 0 1.57,9 a11,11 0 0 0 3.2800000000000002,5 c1.21,1.06 2.48,2 3.66,3.14 A2.12,2.12 0 0 0 19.42232889175415,82.13042472839355 zM62.882328891754156,40.810424728393556 c0.30000000000000004,-6.5 -2.91,-15.54 -6.34,-19.77 a17.66,17.66 0 0 0 1.3,4.6 c0.4,0.7300000000000001 0.7200000000000001,1.49 1.07,2.24 c0.17,0.36000000000000004 0.39000000000000007,0.7100000000000001 0.52,1.08 c0.7100000000000001,1.9 1.42,3.8 2.09,5.72 A24.17,24.17 0 0 1 62.23232889175415,37.390424728393555 C62.492328891754156,38.48042472839356 62.65232889175415,39.570424728393554 62.882328891754156,40.810424728393556 zM5.51232889175415,38.390424728393555 a2.4,2.4 0 0 0 -0.51,0.43000000000000005 c-0.32000000000000006,0.47000000000000003 -0.56,1 -0.9,1.47 A21.38,21.38 0 0 0 1.33232889175415,45.670424728393556 a9.6,9.6 0 0 0 -0.5,5.23 a23.14,23.14 0 0 0 2.72,7.1 A2.42,2.42 0 0 0 3.2323288917541504,56.33042472839355 a6.54,6.54 0 0 1 -0.78,-2.42 C2.2323288917541504,52.390424728393555 2.2323288917541504,50.810424728393556 2.2323288917541504,49.27042472839356 a13.25,13.25 0 0 1 0.14,-2.23 A26.25,26.25 0 0 1 5.51232889175415,38.390424728393555 zM38.23232889175415,7.190424728393555 l0,-0.12000000000000001 a0.7500000000000001,0.7500000000000001 0 0 0 -0.23,0 a22.06,22.06 0 0 0 -8.53,7.17 c-0.41000000000000003,0.6200000000000001 -0.8400000000000001,1.23 -1.31,1.81 c-2.15,2.68 -4.33,5.35 -6.48,8 c-0.6500000000000001,0.8200000000000001 -1.23,1.7000000000000002 -1.84,2.56 l0.19000000000000003,0.14 c0.55,-0.6600000000000001 1.1,-1.31 1.6300000000000001,-2 c1.1400000000000001,-1.4 2.2,-2.88 3.43,-4.19 a71.48,71.48 0 0 0 4.83,-5.48 a38.2,38.2 0 0 1 6.890000000000001,-6.94 C37.23232889175415,7.880424728393555 37.76232889175415,7.540424728393555 38.23232889175415,7.190424728393555 zM9.032328891754151,79.32042472839356 c-0.5700000000000001,-2.12 -1.06,-4.09 -1.6400000000000001,-6 a17.43,17.43 0 0 1 -0.51,-6.48 a45.15,45.15 0 0 1 0.7200000000000001,-4.57 c0.17,-0.93 0.5,-1.82 0.6500000000000001,-2.75 a18.25,18.25 0 0 1 1.8800000000000001,-6.22 a5.71,5.71 0 0 0 0.38000000000000006,-1.32 l-0.18000000000000002,-0.06000000000000001 c-0.5700000000000001,1.4300000000000002 -1.18,2.85 -1.7000000000000002,4.3 a11.29,11.29 0 0 0 -0.6700000000000002,2.56 a10.56,10.56 0 0 1 -0.8900000000000001,3.5700000000000003 a6.45,6.45 0 0 0 -0.49000000000000005,3.19 c0.06000000000000001,1.83 0.14,3.67 0.11000000000000001,5.5 a11.46,11.46 0 0 0 0.42000000000000004,3.48 c0.33000000000000007,1.1 0.5900000000000001,2.21 0.8600000000000001,3.33 a1.85,1.85 0 0 1 0,0.44000000000000006 l-0.17,0 a5.09,5.09 0 0 1 -0.38000000000000006,-0.8 c-0.37000000000000005,-1.32 -0.7500000000000001,-2.64 -1,-4 A11,11 0 0 1 6.23232889175415,71.29042472839356 c0,-0.9500000000000001 0.08000000000000002,-1.8900000000000001 0.08000000000000002,-2.84 S6.23232889175415,66.64042472839355 6.23232889175415,65.74042472839355 h-0.18000000000000002 c0,0.8300000000000001 -0.13,1.6600000000000001 -0.12000000000000001,2.48 c0,2 0.1,4 0.13,5.94 A10.72,10.72 0 0 0 7.23232889175415,77.99042472839355 a1,1 0 0 0 0.37000000000000005,0.35000000000000003 C8.032328891754151,78.65042472839356 8.48232889175415,78.95042472839356 9.032328891754151,79.32042472839356 zm58.07,-11.4 c-1.31,3.6 -0.12000000000000001,9.25 2.25,11 a6,6 0 0 0 0.07,-4.34 C68.68232889175415,72.39042472839355 67.90232889175415,70.19042472839355 67.10232889175415,67.92042472839356 zM61.362328891754146,39.66042472839356 c-0.51,-0.7600000000000001 -1,-1.46 -1.45,-2.13 a18.2,18.2 0 0 1 -3.24,-8.05 c-0.32000000000000006,-2 -0.52,-4 -0.8300000000000001,-6 c-0.18000000000000002,-1.13 -0.47000000000000003,-2.25 -0.7400000000000001,-3.47 c-0.2,1.9300000000000002 -0.39000000000000007,3.72 -0.56,5.51 a1,1 0 0 0 0.06000000000000001,0.41000000000000003 c0.21000000000000002,0.5800000000000001 0.44000000000000006,1.1600000000000001 0.6600000000000001,1.7400000000000002 l0.15000000000000002,0 l-0.3400000000000001,-4 A9.57,9.57 0 0 1 55.51232889175415,25.390424728393555 c0.45,2.54 0.8200000000000001,5.09 1.36,7.61 c0.5700000000000001,2.72 2.34,4.8 4,6.93 zm1.59,37.85 c-0.22000000000000003,-0.51 -0.44000000000000006,-1 -0.6800000000000002,-1.53 c-0.12000000000000001,-0.25 -0.2,-0.6100000000000001 -0.41000000000000003,-0.7100000000000001 a1.5,1.5 0 0 1 -0.6800000000000002,-1 a4.22,4.22 0 0 1 0.16000000000000003,-2.5300000000000002 c0.23,-0.8200000000000001 0.41000000000000003,-1.6600000000000001 0.5800000000000001,-2.5 c0.22000000000000003,-1.12 0.39000000000000007,-2.25 0.6100000000000001,-3.37 c0.1,-0.5 0.27,-1 0.42000000000000004,-1.49 c0.35000000000000003,-1.17 0.7200000000000001,-2.34 1,-3.52 c0,-0.18000000000000002 -0.12000000000000001,-0.42000000000000004 -0.19000000000000003,-0.6300000000000001 A5.39,5.39 0 0 0 63.23232889175415,61.530424728393555 c-0.92,2.8600000000000003 -1.86,5.71 -2.7600000000000002,8.57 A6.27,6.27 0 0 0 60.34232889175415,73.39042472839355 A7.23,7.23 0 0 0 62.95232889175415,77.52042472839355 zm-16,-57.29 c-0.77,1.5 -1.54,3 -2.3200000000000003,4.49 s-1.71,3.24 -2.6,4.83 c-0.53,0.9500000000000001 -1.11,1.86 -1.6800000000000002,2.79 c-0.28,0.44000000000000006 -0.5900000000000001,0.8700000000000001 -0.8800000000000001,1.3 C43.56232889175415,30.030424728393555 46.29232889175415,25.680424728393554 46.97232889175415,20.230424728393555 zM34.67232889175415,36.84042472839356 l0.17,0.27 c0.7300000000000001,-0.36000000000000004 1.48,-0.7100000000000001 2.19,-1.1 a1.31,1.31 0 0 0 0.39000000000000007,-0.51 a7.53,7.53 0 0 1 0.56,-1 a24.49,24.49 0 0 0 3.77,-5.63 a17.39,17.39 0 0 1 1.21,-2.37 c1.49,-2.3200000000000003 2.74,-4.77 4,-7.22 a3.94,3.94 0 0 0 0.37000000000000005,-2.66 c-0.7400000000000001,1.7000000000000002 -1.44,3.58 -2.35,5.36 c-1.23,2.4 -2.58,4.73 -3.94,7.06 a27.62,27.62 0 0 1 -5.58,7.17 C35.23232889175415,36.390424728393555 34.94232889175415,36.62042472839355 34.67232889175415,36.84042472839356 zm26.35,1.1 A19.25,19.25 0 0 0 59.962328891754154,35.390424728393555 c-1.6500000000000001,-2.79 -2.25,-5.92 -2.91,-9 s-1.12,-6.3100000000000005 -1.7600000000000002,-9.45 A33.16,33.16 0 0 0 54.16232889175415,13.390424728393555 l-0.17,0 a2.4,2.4 0 0 0 0,0.48000000000000004 A37.62,37.62 0 0 0 55.23232889175415,19.740424728393556 c1.09,2.9 1.36,6 1.82,9.07 A17.48,17.48 0 0 0 61.02232889175416,37.94042472839355 zm-42.45,4.8 a11.93,11.93 0 0 0 -0.79,2.21 c-0.28,1.84 -0.42000000000000004,3.6900000000000004 -0.6400000000000001,5.54 a39.09,39.09 0 0 0 0.5800000000000001,7.3 c0.08000000000000002,-1.11 0.2,-2.08 0.21000000000000002,-3.05 a30.16,30.16 0 0 1 1.08,-8 a1.82,1.82 0 0 0 0,-0.5800000000000001 A17.35,17.35 0 0 1 18.57232889175415,42.740424728393556 zM10.45232889175415,75.97042472839355 l0.13,-0.14 l-0.6000000000000001,-1.6 a26.93,26.93 0 0 1 -1.6600000000000001,-7.52 a14,14 0 0 1 0.32000000000000006,-5.37 c0.28,-0.9 0.45,-1.83 0.6900000000000002,-2.74 a27.93,27.93 0 0 1 0.8700000000000001,-3 a2.19,2.19 0 0 0 0,-2 c-0.38000000000000006,1.29 -0.8,2.38 -1,3.52 a56.86,56.86 0 0 1 -1.28,6 a23.22,23.22 0 0 0 -0.48000000000000004,3 a6.49,6.49 0 0 0 0.33000000000000007,2.34 a22,22 0 0 0 2.21,6.91 A3,3 0 0 0 10.45232889175415,75.97042472839355 zm-0.7400000000000001,-35 c-0.56,0.28 -0.6100000000000001,0.7300000000000001 -0.7300000000000001,1.13 a7.66,7.66 0 0 1 -0.28,1.08 a10,10 0 0 0 -0.6500000000000001,4.640000000000001 c0,2 0.32000000000000006,4.06 -0.5800000000000001,6 c0.24000000000000002,-0.24000000000000002 0.41000000000000003,-0.5 0.6200000000000001,-0.7300000000000001 a6.39,6.39 0 0 0 1.58,-5.1 c-0.09000000000000002,-1 -0.24000000000000002,-1.9300000000000002 -0.38000000000000006,-2.9 c-0.06000000000000001,-0.37000000000000005 -0.17,-0.7400000000000001 -0.26,-1.11 l0.09000000000000002,0 zM68.95232889175415,79.49042472839355 a10.89,10.89 0 0 1 -2.38,-4 a45.68,45.68 0 0 1 -1,-5.3 a17.06,17.06 0 0 1 0.08000000000000002,-2.41 A6.74,6.74 0 0 1 66.23232889175415,65.18042472839356 a7.09,7.09 0 0 0 0.37000000000000005,-1.31 c0.11000000000000001,-0.55 -0.09000000000000002,-0.9500000000000001 -0.77,-1.1600000000000001 c-0.06000000000000001,0.5900000000000001 -0.1,1.15 -0.16000000000000003,1.71 c-0.26,2.51 -0.53,5 -0.77,7.53 a4.9,4.9 0 0 0 0,1.2 a13.42,13.42 0 0 0 3.22,6.36 C68.37232889175415,79.81042472839356 68.62232889175415,79.83042472839355 68.95232889175415,79.49042472839355 zM18.11232889175415,10.970424728393553 a35.3,35.3 0 0 0 -7.11,8.35 c-2.07,3.23 -2.34,6.9 -3,10.48 A13,13 0 0 0 8.902328891754152,27.390424728393555 c0.30000000000000004,-1.1600000000000001 0.45,-2.36 0.7500000000000001,-3.52 A11.36,11.36 0 0 1 12.48232889175415,18.390424728393555 a14,14 0 0 0 2,-2.67 c0.35000000000000003,-0.55 0.7100000000000001,-1.11 1.12,-1.6300000000000001 C16.41232889175415,13.020424728393554 17.23232889175415,12.000424728393554 18.11232889175415,10.970424728393553 zM10.812328891754149,25.030424728393555 c0.49000000000000005,-1 0.9500000000000001,-2 1.48,-2.9 c1,-1.82 2,-3.64 3.17,-5.4 c0.8700000000000001,-1.34 1.9300000000000002,-2.56 2.8600000000000003,-3.87 s1.73,-2.52 2.59,-3.79 A35.52,35.52 0 0 0 10.812328891754149,25.030424728393555 zM74.69232889175414,54.59042472839356 h0.08000000000000002 c0.19000000000000003,-0.79 0.37000000000000005,-1.59 0.5800000000000001,-2.37 a6.68,6.68 0 0 0 0.45,-1.61 c0,-2.26 -0.1,-4.53 -0.25,-6.79 c-0.1,-1.48 -0.3400000000000001,-3 -0.56,-4.43 a16,16 0 0 0 -3.23,-7.84 c-0.55,-0.6900000000000002 -1.18,-1.32 -1.77,-2 a11,11 0 0 0 1.37,2 A13.9,13.9 0 0 1 74.23232889175415,37.750424728393554 a51.39,51.39 0 0 1 0.81,13.52 C74.98232889175415,52.390424728393555 74.81232889175415,53.48042472839356 74.69232889175414,54.59042472839356 zM23.992328891754152,16.300424728393555 l0.30000000000000004,0.27 a29.49,29.49 0 0 1 2.06,-2.3200000000000003 a31.81,31.81 0 0 0 3.8200000000000003,-4.2 a16.14,16.14 0 0 1 1.11,-1.2 a12,12 0 0 1 3.33,-2.27 a19.52,19.52 0 0 1 8.06,-2.5 c0.31000000000000005,0 0.6100000000000001,-0.09000000000000002 0.92,-0.14 a6.7,6.7 0 0 0 -3.43,0.13 c-1.35,0.49000000000000005 -2.7,0.9400000000000001 -4.06,1.3900000000000001 a15.89,15.89 0 0 0 -5.66,3.35 a35.43,35.43 0 0 0 -3,3.3200000000000003 C26.23232889175415,13.510424728393556 25.142328891754147,14.910424728393554 23.992328891754152,16.300424728393555 zM70.23232889175415,37.100424728393556 H70.23232889175415 c0,0.25 0,0.51 0,0.7600000000000001 c0.09000000000000002,1.17 0.23,2.34 0.28,3.51 a5.21,5.21 0 0 0 0.53,2.9 a1.77,1.77 0 0 1 0.19000000000000003,0.6500000000000001 c0.23,1.24 0.48000000000000004,2.47 0.6700000000000002,3.71 c0.16000000000000003,1.06 0.26,2.13 0.39000000000000007,3.2 c0.14,-1.6400000000000001 0.27,-3.27 0.28,-4.9 A12,12 0 0 0 72.23232889175415,43.88042472839356 C71.66232889175416,41.600424728393556 70.93232889175415,39.390424728393555 70.23232889175415,37.100424728393556 zm-1.29,-5 l3.59,10.81 A11.82,11.82 0 0 0 68.96232889175415,32.070424728393554 zm-0.35000000000000003,13.85 h-0.1 c-0.18000000000000002,1.53 -0.44000000000000006,3 -0.53,4.58 a19.13,19.13 0 0 0 0.08000000000000002,3.7800000000000002 a28.17,28.17 0 0 0 2.52,7.55 a14,14 0 0 0 0.7500000000000001,1.3 a18.76,18.76 0 0 1 -0.8700000000000001,-3.93 a9.13,9.13 0 0 0 -0.6000000000000001,-2.4 A15.18,15.18 0 0 1 68.41232889175416,49.390424728393555 C68.48232889175415,48.210424728393555 68.54232889175415,47.070424728393554 68.61232889175415,45.920424728393556 zM39.99232889175415,15.620424728393555 a31.78,31.78 0 0 0 -9.14,9.71 A49,49 0 0 0 39.99232889175415,15.620424728393555 zm20.52,1.12 a10.88,10.88 0 0 0 -3.51,-4.72 a20.7,20.7 0 0 0 -4.84,-3.49 c0.30000000000000004,0.6800000000000002 0.56,1.19 0.7500000000000001,1.7200000000000002 s0.9400000000000001,0.5900000000000001 1.35,1 c0.19000000000000003,0.17 0.41000000000000003,0.31000000000000005 0.6100000000000001,0.48000000000000004 l4.2,3.7 C59.56232889175415,15.830424728393556 60.03232889175415,16.290424728393553 60.51232889175415,16.740424728393556 zm9.39,64.29 a4.71,4.71 0 0 0 2.08,-1.05 a2.36,2.36 0 0 0 1.1,-1.94 c0,-0.2 0,-0.4 0.06000000000000001,-0.6000000000000001 a8.48,8.48 0 0 0 -1.4100000000000001,-6 c-0.92,-1.34 -1.9100000000000001,-2.6500000000000004 -2.88,-4 c-0.23,-0.31000000000000005 -0.49000000000000005,-0.6000000000000001 -0.7400000000000001,-0.9 c0.6800000000000002,1.42 1.53,2.74 2.22,4.14 s1.3900000000000001,3.07 2,4.63 c0.78,2 0.38000000000000006,3.34 -1.29,4.72 C70.71232889175415,80.31042472839356 70.38232889175416,80.62042472839356 69.91232889175416,81.03042472839356 zM13.902328891754152,36.390424728393555 C16.23232889175415,34.51042472839355 23.23232889175415,25.940424728393555 23.53232889175415,24.590424728393554 a14,14 0 0 1 -1.1400000000000001,1.3900000000000001 a74.3,74.3 0 0 0 -5.29,5.78 C15.902328891754152,33.170424728393556 14.55232889175415,34.47042472839355 13.902328891754152,36.390424728393555 zM71.68232889175415,57.88042472839356 c0.08000000000000002,-1.2 0.21000000000000002,-2.31 0.2,-3.43 s-0.12000000000000001,-2.23 -0.22000000000000003,-3.34 s-0.21000000000000002,-2.2800000000000002 -0.39000000000000007,-3.41 a15.25,15.25 0 0 0 -0.55,-3.07 c-0.05000000000000001,1.9500000000000002 -0.07,4 -0.16000000000000003,6 A14.88,14.88 0 0 0 71.68232889175415,57.88042472839356 zM43.56232889175415,20.000424728393554 l-0.14,-0.11000000000000001 c-1.47,2.22 -2.87,4.48 -4.41,6.640000000000001 a64.23,64.23 0 0 0 -4.29,6.640000000000001 C38.75232889175415,29.510424728393552 41.23232889175415,24.770424728393554 43.56232889175415,20.000424728393554 zm-36,49.84 l-0.16000000000000003,0.06000000000000001 c0.06000000000000001,0.48000000000000004 0.08000000000000002,1 0.18000000000000002,1.4300000000000002 c0.23,1.09 0.47000000000000003,2.18 0.77,3.25 c0.47000000000000003,1.6700000000000002 1,3.35 1.54,5 c0.37000000000000005,1.05 1.3900000000000001,1.49 2.31,2 a0.7600000000000001,0.7600000000000001 0 0 0 -0.08000000000000002,-0.41000000000000003 c-0.7500000000000001,-1.57 -1.51,-3.14 -2.25,-4.72 a20.14,20.14 0 0 1 -1.86,-4.68 C7.84232889175415,71.10042472839355 7.67232889175415,70.47042472839355 7.5223288917541495,69.84042472839356 zm16.5,4.87 a5.23,5.23 0 0 0 1.31,-5.07 a28.14,28.14 0 0 0 -2.81,-6.8 c-0.25,-0.47000000000000003 -0.5800000000000001,-0.9 -0.8800000000000001,-1.34 l-0.18000000000000002,0.07 l0.93,3.19 l0.52,-0.30000000000000004 c0.25,0.81 0.52,1.57 0.7100000000000001,2.34 c0.35000000000000003,1.4100000000000001 0.7200000000000001,2.83 1,4.26 A6.48,6.48 0 0 1 24.02232889175415,74.70042472839356 zM59.73232889175415,13.960424728393555 l-0.12000000000000001,0.11000000000000001 c0.17,0.28 0.35000000000000003,0.56 0.51,0.8500000000000001 a31.49,31.49 0 0 0 3.3200000000000003,5 a5.13,5.13 0 0 1 1.06,2.3200000000000003 A8.43,8.43 0 0 0 66.23232889175415,25.470424728393553 a4.57,4.57 0 0 0 0.8600000000000001,0.6700000000000002 a22.19,22.19 0 0 1 -1.1,-2.31 a26,26 0 0 0 -4.27,-7.79 C61.112328891754146,15.290424728393553 60.39232889175415,14.650424728393556 59.73232889175415,13.960424728393555 zM54.51232889175415,26.80042472839355 a1,1 0 0 0 -0.39000000000000007,1.18 A18.1,18.1 0 0 1 55.23232889175415,33.16042472839356 a7.51,7.51 0 0 0 0.29000000000000004,1.51 A18.49,18.49 0 0 0 57.23232889175415,38.86042472839355 a40.76,40.76 0 0 0 2.8,3.75 c0.3400000000000001,-0.38000000000000006 0.3400000000000001,-0.6000000000000001 0,-0.9400000000000001 a14.92,14.92 0 0 1 -3.26,-5.1 c-0.41000000000000003,-1.25 -0.8700000000000001,-2.48 -1.2,-3.75 c-0.19000000000000003,-0.7400000000000001 -0.14,-1.54 -0.28,-2.29 C55.08232889175415,29.280424728393555 54.78232889175415,28.040424728393553 54.51232889175415,26.80042472839355 zm-7.6,-21.49 l-0.17,0.06000000000000001 c0,0.13 0,0.27 0,0.4 c0,1.26 0,2.52 0,3.77 a8.86,8.86 0 0 1 -0.6000000000000001,3.2800000000000002 q-1.34,3.06 -2.71,6.12 c-0.14,0.32000000000000006 -0.32000000000000006,0.6300000000000001 -0.49000000000000005,0.9500000000000001 a7.14,7.14 0 0 0 2.39,-3 c0.42000000000000004,-1.24 0.8400000000000001,-2.5 1.35,-3.71 s0.30000000000000004,-2.58 0.38000000000000006,-3.92 l0.45,0.23 c-0.1,-1.26 -0.17,-2.43 -0.29000000000000004,-3.59 A1.94,1.94 0 0 0 46.90232889175415,5.310424728393555 zm29.88,60 l0.27,0 A3.93,3.93 0 0 0 77.23232889175415,64.79042472839356 c0,-0.49000000000000005 0,-1 0.09000000000000002,-1.46 c0.2,-2.37 0.44000000000000006,-4.74 0.6100000000000001,-7.12 c0.15000000000000002,-2.15 0.22000000000000003,-4.3 0.33000000000000007,-6.45 c0.05000000000000001,-1 0.12000000000000001,-2 0.18000000000000002,-3 c-0.18000000000000002,0.6900000000000002 -0.29000000000000004,1.3800000000000001 -0.42000000000000004,2.07 A42.28,42.28 0 0 0 77.23232889175415,57.05042472839355 c0,0.8300000000000001 0,1.6700000000000002 -0.06000000000000001,2.5 c-0.13,1.75 -0.29000000000000004,3.49 -0.44000000000000006,5.23 A3.3,3.3 0 0 0 76.79232889175415,65.33042472839355 zM53.64232889175415,11.470424728393553 l-0.23,0.19000000000000003 c0.5800000000000001,0.7200000000000001 0.8200000000000001,1.61 1.77,2.18 a17.93,17.93 0 0 1 5.640000000000001,5.33 c0.77,1.11 1.56,2.21 2.34,3.3200000000000003 a12.37,12.37 0 0 0 -1.77,-3.77 a38.75,38.75 0 0 0 -5.33,-5.22 C55.23232889175415,12.810424728393556 54.44232889175415,12.140424728393555 53.64232889175415,11.470424728393553 zM17.582328891754152,75.95042472839356 l0.19000000000000003,-0.16000000000000003 a6.46,6.46 0 0 1 0.7300000000000001,0.78 c0.37000000000000005,0.55 0.7000000000000001,1.12 1,1.7000000000000002 a7.19,7.19 0 0 0 2.62,3 c0.49000000000000005,0.28 0.9,0.7100000000000001 1.37,1 a3.43,3.43 0 0 0 0.7400000000000001,0.29000000000000004 c-2.75,-1.9 -4.18,-4.94 -6.4,-7.23 l-1.26,0.6300000000000001 c0.8500000000000001,2 2.8600000000000003,4.35 3.87,4.68 zM39.83232889175415,23.570424728393554 l-0.1,-0.08000000000000002 c-1.2,1.35 -2.41,2.68 -3.59,4 a19.46,19.46 0 0 0 -1.28,1.71 c-0.35000000000000003,0.52 -0.6100000000000001,1.1 -1,1.58 c-0.6100000000000001,0.7600000000000001 -1.3,1.45 -1.9500000000000002,2.18 c-0.8600000000000001,1 -1.7200000000000002,1.92 -2.56,2.9 a3.21,3.21 0 0 0 -0.32000000000000006,0.55 l0.11000000000000001,0.15000000000000002 c0.19000000000000003,-0.07 0.43000000000000005,-0.08000000000000002 0.55,-0.21000000000000002 a56,56 0 0 0 4,-4.59 c1.6500000000000001,-2.3 3.31,-4.6 5.1,-6.79 C39.17232889175415,24.550424728393555 39.49232889175415,24.050424728393555 39.83232889175415,23.570424728393554 zM12.722328891754149,35.930424728393554 l0.19000000000000003,0.11000000000000001 c0.7400000000000001,-1.13 1.49,-2.27 2.23,-3.41 c0.22000000000000003,-0.33000000000000007 0.38000000000000006,-0.7100000000000001 0.6200000000000001,-1 c0.8500000000000001,-1.12 1.7200000000000002,-2.22 2.58,-3.33 a5.39,5.39 0 0 0 0.30000000000000004,-0.51 c0.44000000000000006,-0.7300000000000001 0.8800000000000001,-1.48 1.34,-2.2 c0.33000000000000007,-0.51 0.6900000000000002,-1 1,-1.5 c-1,1 -2,1.92 -2.92,2.95 a16,16 0 0 0 -2.5,3.59 c-0.78,1.6 -1.71,3.12 -2.5700000000000003,4.67 C12.922328891754152,35.48042472839356 12.832328891754152,35.710424728393555 12.722328891754149,35.930424728393554 zm7,37.61 c-0.37000000000000005,0.41000000000000003 0,0.5700000000000001 0.11000000000000001,0.7300000000000001 Q21.59232889175415,76.39042472839355 23.37232889175415,78.39042472839355 a5,5 0 0 0 2.3200000000000003,1.57 c1.59,0.47000000000000003 3.18,0.93 4.78,1.3800000000000001 c0,0 0.07,0 0.2,-0.15000000000000002 l-2.9,-1.2 c-1,-0.4 -2,-0.77 -2.92,-1.23 a2.35,2.35 0 0 1 -1.33,-1.7000000000000002 A1.18,1.18 0 0 0 23.03232889175415,76.39042472839355 A11.55,11.55 0 0 1 20.23232889175415,73.96042472839355 A4,4 0 0 0 19.75232889175415,73.54042472839356 zM50.69232889175415,5.470424728393555 l-0.09000000000000002,0.15000000000000002 a5.26,5.26 0 0 0 0.6700000000000002,0.37000000000000005 A18.45,18.45 0 0 1 55.13232889175415,8.390424728393555 a3.41,3.41 0 0 1 0.91,0.9 c1.54,2.36 3.72,4.08 5.8,5.92 a1.6700000000000002,1.6700000000000002 0 0 0 -0.36000000000000004,-0.51 A18.57,18.57 0 0 1 57.31232889175415,9.390424728393555 a2.25,2.25 0 0 0 -0.7400000000000001,-0.8200000000000001 c-1.46,-0.91 -2.92,-1.8 -4.42,-2.63 A7,7 0 0 0 50.69232889175415,5.470424728393555 zm8.92,66.38 c-0.1,0.8400000000000001 -0.22000000000000003,1.6900000000000002 -0.29000000000000004,2.5300000000000002 a1.11,1.11 0 0 0 0.24000000000000002,0.6200000000000001 c1.08,1.62 2.16,3.25 3.2800000000000002,4.85 a1.8800000000000001,1.8800000000000001 0 0 0 2.8600000000000003,0.6400000000000001 C62.502328891754146,78.49042472839355 59.87232889175415,76.08042472839355 59.612328891754146,71.85042472839355 zm2.06,-34.07 c0,-1.71 -2.73,-9.28 -4.11,-11.54 A37,37 0 0 0 61.67232889175415,37.780424728393555 zm2.6500000000000004,34.68 c0.06000000000000001,-0.7100000000000001 0.1,-1.25 0.15000000000000002,-1.79 c0.1,-1 0.19000000000000003,-2 0.31000000000000005,-3 q0.29000000000000004,-2.51 0.6000000000000001,-5 a0.6000000000000001,0.6000000000000001 0 0 0 -0.43000000000000005,-0.7400000000000001 c-0.38000000000000006,1.79 -0.8400000000000001,3.5 -1.09,5.24 A9.42,9.42 0 0 0 64.31232889175415,72.46042472839355 zM77.64232889175415,46.390424728393555 l0.18000000000000002,0 c0,-0.5900000000000001 0.08000000000000002,-1.19 0,-1.77 c-0.07,-1 -0.18000000000000002,-1.94 -0.33000000000000007,-2.9 a22.11,22.11 0 0 0 -0.53,-2.42 c-0.3400000000000001,-1.24 -0.7500000000000001,-2.46 -1.11,-3.6900000000000004 s-0.5900000000000001,-2.21 -0.9,-3.31 a5.36,5.36 0 0 0 -0.38000000000000006,-0.81 c0.33000000000000007,1.19 0.24000000000000002,2.48 0.91,3.56 a1.52,1.52 0 0 1 0.17,0.5700000000000001 c0.2,1.3 0.36000000000000004,2.6100000000000003 0.6000000000000001,3.9 C76.72232889175415,41.780424728393555 77.23232889175415,44.08042472839355 77.64232889175415,46.390424728393555 zM41.44232889175415,15.100424728393556 c-2.62,3.8600000000000003 -5,7.92 -8.41,11.2 A25.1,25.1 0 0 0 41.44232889175415,15.100424728393556 zm18,46.05 c-0.45,0.79 -0.81,1.44 -1.19,2.08 a4.88,4.88 0 0 0 -0.7400000000000001,2.35 c0,1.23 -0.08000000000000002,2.47 -0.15000000000000002,3.7 s-0.16000000000000003,2.2800000000000002 -0.23,3.31 a4.75,4.75 0 0 0 0.5700000000000001,-2.7800000000000002 A7.16,7.16 0 0 1 58.39232889175415,66.39042472839355 C59.23232889175415,64.75042472839355 59.18232889175415,62.99042472839355 59.48232889175415,61.15042472839356 zm10.6,19 c1.86,-1.17 2.84,-2.7600000000000002 1.6300000000000001,-4.91 a21.22,21.22 0 0 1 -0.30000000000000004,2.42 a3.64,3.64 0 0 1 -1.29,2 c0.2,-0.36000000000000004 0.33000000000000007,-0.6100000000000001 0.47000000000000003,-0.8400000000000001 a5,5 0 0 0 0.7200000000000001,-2.52 c0.08000000000000002,-1.7400000000000002 -0.6600000000000001,-3.29 -1.08,-4.91 a5.43,5.43 0 0 0 -0.6400000000000001,-1.17 A3,3 0 0 0 69.73232889175415,71.39042472839355 c0.3400000000000001,1.18 0.7300000000000001,2.35 1,3.54 a4.08,4.08 0 0 1 -0.30000000000000004,3.16 c-0.24000000000000002,0.42000000000000004 -0.42000000000000004,0.8700000000000001 -0.6400000000000001,1.33 zM14.86232889175415,13.390424728393555 l0.23,-0.14 c1.2,-0.9500000000000001 2,-2.38 3.6,-2.84 c0,0 0.08000000000000002,-0.08000000000000002 0.12000000000000001,-0.12000000000000001 c0.92,-0.8600000000000001 1.9,-1.6600000000000001 2.74,-2.6 A14.79,14.79 0 0 1 26.91232889175415,3.9904247283935543 a5.48,5.48 0 0 0 1.79,-1.52 C25.852328891754148,3.3904247283935547 16.332328891754152,10.910424728393554 14.86232889175415,13.390424728393555 zm41.77,-2.16 c-1.7200000000000002,-2.94 -4.44,-4.51 -7.46,-5.68 c0.6000000000000001,0.6100000000000001 1.29,1.12 1.87,1.73 A7.18,7.18 0 0 0 52.61232889175415,8.390424728393555 c1,0.5900000000000001 1.9100000000000001,1.25 2.85,1.8900000000000001 C55.86232889175415,10.590424728393554 56.23232889175415,10.900424728393556 56.64232889175415,11.200424728393553 zm-24,10.51 c-2.64,2.77 -5.69,5.2 -7.12,8.94 C27.88232889175415,27.690424728393552 30.672328891754148,25.050424728393555 32.60232889175415,21.710424728393555 zm19.92,-5.67 c0.13,1.84 0.31000000000000005,3.71 0.38000000000000006,5.59 s0,3.8 0,5.69 C54.04232889175415,25.390424728393555 53.71232889175415,18.310424728393556 52.52232889175415,16.040424728393553 zm-23,0.39000000000000007 a19.93,19.93 0 0 1 2.3,-1.8900000000000001 c2.08,-1.26 3.1,-3.34 4.27,-5.32 A37.3,37.3 0 0 0 29.572328891754154,16.390424728393555 zM24.44232889175415,80.09042472839356 c-1.5,-1 -2.36,-2.54 -3.45,-3.88 c-0.5700000000000001,-0.7000000000000001 -1.2,-1.36 -1.78,-2 c-0.5,0.25 -0.55,0.51 -0.24000000000000002,0.91 a24.94,24.94 0 0 1 1.81,2.51 A5.94,5.94 0 0 0 24.44232889175415,80.09042472839356 zM67.66232889175416,61.68042472839356 a5.8100000000000005,5.8100000000000005 0 0 0 4.28,3.85 a16.32,16.32 0 0 1 1.6300000000000001,0.54 a1.94,1.94 0 0 0 1.78,-0.21000000000000002 c-1,-0.4 -2,-0.27 -2.83,-0.8700000000000001 s-1.71,-0.9400000000000001 -2.51,-1.48 S68.47232889175415,62.32042472839356 67.66232889175416,61.68042472839356 zM22.94232889175415,37.88042472839356 c2.88,-3 5.09,-6.5600000000000005 7.8,-9.68 C29.002328891754154,28.980424728393558 24.13232889175415,35.390424728393555 22.94232889175415,37.88042472839356 zM74.42232889175415,73.80042472839355 a22.9,22.9 0 0 0 -2.7600000000000002,-6.3 a3.58,3.58 0 0 0 -0.7000000000000001,-0.7600000000000001 c-0.7000000000000001,-0.5900000000000001 -1.42,-1.15 -2.13,-1.71 c0,0 -0.09000000000000002,0 -0.21000000000000002,0.08000000000000002 A49.37,49.37 0 0 1 74.42232889175415,73.80042472839355 zm-19,6.26 a6,6 0 0 0 3.06,-4.33 c0.2,-1.22 0.37000000000000005,-2.45 0.56,-3.67 l-0.21000000000000002,-0.05000000000000001 c-0.22000000000000003,0.5800000000000001 -0.47000000000000003,1.15 -0.6700000000000002,1.7400000000000002 c-0.6100000000000001,1.81 -1,3.72 -2.1,5.32 C55.79232889175415,79.39042472839355 55.59232889175415,79.73042472839356 55.38232889175415,80.06042472839356 zM38.81232889175415,37.390424728393555 A2.77,2.77 0 0 0 41.23232889175415,36.08042472839355 c0.8500000000000001,-1.42 1.86,-2.75 2.8,-4.12 c0.44000000000000006,-0.6500000000000001 0.8700000000000001,-1.31 1.3,-2 l-0.1,-0.07 zM37.23232889175415,28.090424728393558 l-0.17,-0.11000000000000001 c-0.6100000000000001,0.8300000000000001 -1.24,1.6500000000000001 -1.83,2.5 a24.26,24.26 0 0 1 -3.29,4.08 c-0.7200000000000001,0.6800000000000002 -1.35,1.46 -2,2.2 l0.81,0.28 C33.48232889175415,34.390424728393555 35.08232889175415,31.060424728393556 37.23232889175415,28.090424728393558 zM16.02232889175415,75.28042472839356 H16.23232889175415 a2.56,2.56 0 0 0 0.29000000000000004,-0.9400000000000001 A3.23,3.23 0 0 0 15.692328891754151,72.39042472839355 c-1,-1.08 -2,-2.22 -3,-3.33 c0,0 -0.08000000000000002,0 -0.17,0 C13.34232889175415,71.39042472839355 14.89232889175415,73.21042472839355 16.02232889175415,75.28042472839356 zm47.85,-41 l0.29000000000000004,0 c-0.13,-1.1600000000000001 -0.21000000000000002,-2.33 -0.4,-3.49 A14.8,14.8 0 0 0 62.23232889175415,25.940424728393555 a14.45,14.45 0 0 0 -1,-1.44 l-0.14,0.09000000000000002 A21.34,21.34 0 0 1 62.962328891754154,30.390424728393555 C63.16232889175416,31.720424728393553 63.56232889175415,32.98042472839356 63.87232889175415,34.250424728393554 zM12.73232889175415,43.72042472839355 l-2.72,1.51 l0.42000000000000004,4.59 a11.66,11.66 0 0 0 0.5900000000000001,-2 c0.14,-0.7300000000000001 0.22000000000000003,-1.47 0.37000000000000005,-2.2 c0.06000000000000001,-0.29000000000000004 0.07,-0.7000000000000001 0.6200000000000001,-0.7600000000000001 l-0.31000000000000005,1.48 l0.16000000000000003,0 zm62.95,8.31 a21.5,21.5 0 0 0 -0.24000000000000002,9.88 a7.3,7.3 0 0 0 0.23,-1.6900000000000002 C75.69232889175414,57.460424728393555 75.68232889175415,54.710424728393555 75.68232889175415,52.030424728393555 zm-14.8,1.05 a17.75,17.75 0 0 0 -2,5.22 a21.38,21.38 0 0 1 -1.06,4 c-0.1,0.26 -0.15000000000000002,0.54 -0.23,0.81 a5.67,5.67 0 0 0 1.49,-3 A27.94,27.94 0 0 1 60.23232889175415,55.55042472839355 C60.492328891754156,54.740424728393556 60.67232889175415,53.90042472839355 60.882328891754156,53.08042472839355 zM74.79232889175415,79.54042472839356 a13.53,13.53 0 0 1 -1.31,1.6500000000000001 a4.8,4.8 0 0 1 -3.5,1.4 a7.48,7.48 0 0 0 -0.9500000000000001,0.05000000000000001 c-0.31000000000000005,0 -0.6100000000000001,0.08000000000000002 -0.92,0.13 l0,0.23 c1.26,0 2.51,0.09000000000000002 3.77,0.08000000000000002 a1.59,1.59 0 0 0 1.3900000000000001,-0.52 c0.32000000000000006,-0.44000000000000006 0.6600000000000001,-0.8700000000000001 1,-1.29 A2,2 0 0 0 74.79232889175415,79.54042472839356 zM55.61232889175415,69.14042472839355 a12,12 0 0 1 1.08,-5.1 c0.4,-1 0.7200000000000001,-2 1.08,-3.08 c0.07,-0.19000000000000003 0.1,-0.39000000000000007 0.15000000000000002,-0.5900000000000001 c-0.6900000000000002,1.08 -1.27,2.2 -1.8900000000000001,3.29 a6.1,6.1 0 0 0 -0.7200000000000001,3.6500000000000004 C55.36232889175415,67.92042472839356 55.51232889175415,68.53042472839356 55.61232889175415,69.14042472839355 zm18.45,-0.24000000000000002 c1.1,3.4 2.71,6.67 2.92,10.34 A5.3100000000000005,5.3100000000000005 0 0 0 77.23232889175415,78.15042472839356 a9.22,9.22 0 0 0 -0.6500000000000001,-3.52 A24,24 0 0 0 74.06232889175415,68.90042472839356 zM6.23232889175415,54.69042472839355 a5.25,5.25 0 0 0 1.34,-2.83 c0.07,-1.62 0,-3.24 0,-5 a11,11 0 0 0 -0.79,3.9 c0,1 -0.22000000000000003,1.92 -0.36000000000000004,2.88 C6.362328891754151,53.98042472839356 6.23232889175415,54.34042472839356 6.23232889175415,54.69042472839355 zM62.882328891754156,80.93042472839356 c-0.6200000000000001,-1 -1.22,-1.8900000000000001 -1.82,-2.8200000000000003 S59.84232889175415,76.28042472839356 59.23232889175415,75.34042472839356 a1.25,1.25 0 0 0 0.14,1.6300000000000001 A5.3100000000000005,5.3100000000000005 0 0 1 60.23232889175415,78.32042472839356 A4.7,4.7 0 0 0 62.882328891754156,80.93042472839356 zm10.91,-5.14 c0,0.7300000000000001 0,1.24 0,1.7600000000000002 a3.44,3.44 0 0 1 -1.7200000000000002,3.16 c-0.8700000000000001,0.48000000000000004 -1.75,0.93 -2.46,1.31 A4.21,4.21 0 0 0 73.79232889175415,75.78042472839356 zM61.59232889175415,49.34042472839356 a5.75,5.75 0 0 0 1.1600000000000001,-3.84 c0,-0.8900000000000001 -0.1,-1.77 -0.2,-2.6500000000000004 s-0.26,-1.57 -0.4,-2.36 c-0.07,1.49 -0.11000000000000001,3 -0.06000000000000001,4.42 A15.94,15.94 0 0 1 61.59232889175415,49.34042472839356 zM31.532328891754148,1.3004247283935548 c3.44,-0.7600000000000001 6.8100000000000005,0.2 10.2,0.49000000000000005 A16,16 0 0 0 31.532328891754148,1.3004247283935548 zM65.17232889175415,57.060424728393556 a7.74,7.74 0 0 0 0.8900000000000001,4.48 a2.8600000000000003,2.8600000000000003 0 0 0 1.46,1.25 zM4.542328891754151,65.95042472839356 c0.08000000000000002,-0.6400000000000001 0.16000000000000003,-1.29 0.26,-1.9300000000000002 s0.24000000000000002,-1.4100000000000001 0.35000000000000003,-2.11 a11.7,11.7 0 0 1 0.25,-1.61 a18.07,18.07 0 0 0 0.52,-4.77 C5.23232889175415,58.98042472839356 4.23232889175415,62.390424728393555 4.542328891754151,65.95042472839356 zm4.78,-37.4 A59.12,59.12 0 0 0 6.23232889175415,37.390424728393555 c0.12000000000000001,-0.17 0.21000000000000002,-0.27 0.28,-0.38000000000000006 a12.19,12.19 0 0 0 1.82,-4.66 A28.55,28.55 0 0 1 9.32232889175415,28.55042472839355 zM19.57232889175415,12.290424728393553 A17.12,17.12 0 0 1 24.77232889175415,7.390424728393555 c0.6600000000000001,-0.41000000000000003 1.29,-0.8700000000000001 1.94,-1.31 C22.95232889175415,7.390424728393555 21.46232889175415,8.800424728393555 19.57232889175415,12.290424728393553 zM10.792328891754149,76.66042472839355 l-0.2,0.13 c0.6900000000000002,1.44 1.37,2.89 2.08,4.33 c0.35000000000000003,0.7100000000000001 0.5700000000000001,0.79 1.42,0.6400000000000001 c-0.53,-0.8500000000000001 -1,-1.7200000000000002 -1.58,-2.55 S11.372328891754151,77.50042472839355 10.792328891754149,76.66042472839355 zM33.13232889175415,2.750424728393554 l1.6800000000000002,-0.12000000000000001 c0.4,0 0.8,-0.07 1.2,-0.07 s1,0.09000000000000002 1.51,0.06000000000000001 a18.33,18.33 0 0 1 7.3,0.6800000000000002 c0.12000000000000001,0 0.26,0.07 0.51,0.13 C43.77232889175415,2.1904247283935545 35.92232889175415,1.710424728393555 33.13232889175415,2.750424728393554 zM64.81232889175415,81.88042472839355 c0.6300000000000001,0.28 1.12,0.6500000000000001 1.6900000000000002,0.11000000000000001 c0.12000000000000001,-0.12000000000000001 0.38000000000000006,-0.09000000000000002 0.5700000000000001,-0.14 a5,5 0 0 0 2.49,-1.28 A9.37,9.37 0 0 0 64.81232889175415,81.88042472839355 zM4.612328891754151,45.530424728393555 a23.75,23.75 0 0 0 -0.44000000000000006,8.53 a13.56,13.56 0 0 0 0.37000000000000005,-3.3200000000000003 c-0.06000000000000001,-0.8500000000000001 -0.1,-1.71 -0.08000000000000002,-2.5700000000000003 S4.5623288917541505,46.390424728393555 4.612328891754151,45.530424728393555 zM22.72232889175415,80.10042472839355 a5.3100000000000005,5.3100000000000005 0 0 0 3,2.3 c0.42000000000000004,0.18000000000000002 1,-0.08000000000000002 1.56,-0.14 l0,-0.18000000000000002 zm50.4,-18 h0.2 l-0.79,-7.32 a2.35,2.35 0 0 0 -0.12000000000000001,0.7400000000000001 c0,1.15 0,2.3 -0.12000000000000001,3.44 a3.25,3.25 0 0 0 0.17,1.6700000000000002 C72.68232889175415,61.09042472839356 72.90232889175415,61.58042472839355 73.12232889175415,62.08042472839355 zM6.41232889175415,33.95042472839356 a7,7 0 0 0 0.28,-0.79 c0.30000000000000004,-1.45 0.5900000000000001,-2.9 0.8800000000000001,-4.35 c0.07,-0.3400000000000001 0.13,-0.6700000000000002 0.19000000000000003,-1 l0.16000000000000003,-0.9 A12.53,12.53 0 0 0 6.41232889175415,33.95042472839356 zM13.23232889175415,78.89042472839355 l-0.11000000000000001,0.11000000000000001 c0.49000000000000005,0.77 1,1.55 1.49,2.3 a2,2 0 0 0 2.41,0.6900000000000002 zM12.23232889175415,24.070424728393554 l4.640000000000001,-8 A26.13,26.13 0 0 0 12.23232889175415,24.070424728393554 zM61.112328891754146,54.780424728393555 l1.23,-2.81 a5.33,5.33 0 0 0 0.45,-1 c0.18000000000000002,-0.8800000000000001 0.30000000000000004,-1.78 0.44000000000000006,-2.67 A19.08,19.08 0 0 0 61.112328891754146,54.780424728393555 zm8.75,19.5 l0.17,-0.06000000000000001 c-0.77,-2.6100000000000003 -1.29,-5.3 -2.62,-7.77 a1.44,1.44 0 0 0 0,1.34 c0.55,1.28 1.09,2.5700000000000003 1.6,3.87 C69.30232889175414,72.52042472839355 69.57232889175415,73.39042472839355 69.87232889175415,74.28042472839356 zM23.16232889175415,6.970424728393555 a28.59,28.59 0 0 0 6.13,-3.35 A16.55,16.55 0 0 0 23.16232889175415,6.970424728393555 zM56.98232889175415,35.140424728393555 a13.51,13.51 0 0 0 3.5300000000000002,6.07 c0.16000000000000003,-0.55 0.15000000000000002,-0.54 -0.12000000000000001,-0.93 A28.24,28.24 0 0 1 56.98232889175415,35.140424728393555 zM5.23232889175415,69.48042472839356 a2.35,2.35 0 0 0 -0.55,2.08 c0,0.4 0.06000000000000001,0.8 0.09000000000000002,1.2 a7.85,7.85 0 0 0 1,3.5 C5.08232889175415,74.01042472839356 5.6423288917541505,71.72042472839355 5.23232889175415,69.48042472839356 zM48.90232889175415,10.550424728393555 l1.58,8.620000000000001 A21.6,21.6 0 0 0 48.90232889175415,10.550424728393555 zM72.99232889175416,54.23042472839356 l0.17,0 L73.46232889175415,42.390424728393555 H73.23232889175415 C73.42232889175415,46.33042472839355 72.65232889175415,50.26042472839355 72.99232889175416,54.23042472839356 zM67.60232889175415,65.49042472839355 c0.6800000000000002,0.7600000000000001 1.26,1.3900000000000001 1.82,2 A6.1,6.1 0 0 0 71.23232889175415,69.39042472839355 c-0.92,-1.85 -2.39,-3.1 -3.44,-4.86 zM21.52232889175415,26.150424728393556 l5,-6.08 l-0.15000000000000002,-0.12000000000000001 A24.94,24.94 0 0 0 21.52232889175415,26.150424728393556 zm-11.83,-0.6000000000000001 l2.85,-6.71 A13,13 0 0 0 9.692328891754151,25.540424728393553 zm26.15,-24 a11.63,11.63 0 0 0 -6.73,1.45 zM45.23232889175415,31.080424728393552 l-3.79,5.4 l0.16000000000000003,0.11000000000000001 A14.06,14.06 0 0 0 45.23232889175415,31.080424728393552 zM30.70232889175415,82.14042472839355 l0.07,-0.09000000000000002 l-4.87,-1.3900000000000001 c0.56,0.8600000000000001 1.6400000000000001,0.7200000000000001 2.15,1.47 zM74.18232889175415,30.990424728393556 c-0.47000000000000003,-2.09 -1.61,-3.81 -2.8600000000000003,-4.33 zM22.86232889175415,75.62042472839356 a6.15,6.15 0 0 0 1.1600000000000001,-4.71 A7.07,7.07 0 0 1 22.23232889175415,75.17042472839356 zM76.59232889175415,80.39042472839355 l-0.6700000000000002,-3.92 a12.85,12.85 0 0 1 -0.51,4.9 l0.19000000000000003,0.09000000000000002 zm1,-41.38 a42.57,42.57 0 0 1 0.93,7.16 c0.07,-1.19 0.49000000000000005,-2.33 0,-3.5700000000000003 S78.48232889175415,40.11042472839355 77.62232889175415,38.990424728393556 zM48.33232889175415,6.080424728393554 l-0.15000000000000002,0.12000000000000001 l2.88,4.09 a5.8100000000000005,5.8100000000000005 0 0 0 -1.19,-2.54 c-0.17,-0.19000000000000003 -0.42000000000000004,-0.38000000000000006 -0.47000000000000003,-0.6000000000000001 C49.29232889175415,6.510424728393554 48.83232889175415,6.290424728393555 48.33232889175415,6.080424728393554 zM64.63232889175416,76.39042472839355 l-1.25,-5.17 A7.92,7.92 0 0 0 64.63232889175416,76.39042472839355 zM16.70232889175415,78.94042472839355 l-3.4,-3 A4.68,4.68 0 0 0 16.70232889175415,78.94042472839355 zM34.572328891754154,3.0104247283935557 c-1.9500000000000002,0.19000000000000003 -3.91,0.23 -5.5600000000000005,1.55 zm-28,53.49 h-0.06000000000000001 l-0.91,5.36 a5.55,5.55 0 0 0 0.79,-2 C6.57232889175415,58.72042472839355 6.5623288917541505,57.600424728393556 6.60232889175415,56.500424728393554 zm-1.45,-3.73 c-0.39000000000000007,1.6800000000000002 -1,3.35 -0.31000000000000005,5.11 zm7.55,-36.82 a18.43,18.43 0 0 0 -3.35,5.3100000000000005 zm15.3,20.52 c0.36000000000000004,0.11000000000000001 0.6100000000000001,0.13 0.79,-0.27 a5.39,5.39 0 0 1 0.6800000000000002,-1 c0.42000000000000004,-0.56 0.8500000000000001,-1.11 1.27,-1.6600000000000001 A10,10 0 0 0 28.002328891754154,36.460424728393555 zM13.71232889175415,69.64042472839355 L11.23232889175415,65.51042472839356 A7.47,7.47 0 0 0 13.71232889175415,69.64042472839355 zM76.53232889175415,66.39042472839355 l-0.17,0 c0.1,2 -0.11000000000000001,4 0.49000000000000005,6 a7.07,7.07 0 0 0 -0.1,-2.13 a8,8 0 0 1 -0.22000000000000003,-2.29 C76.54232889175415,67.39042472839355 76.53232889175415,66.91042472839355 76.53232889175415,66.39042472839355 zM66.23232889175415,68.53042472839356 c0.19000000000000003,-0.79 0.36000000000000004,-1.4300000000000002 0.5,-2.06 a3.88,3.88 0 0 0 0.26,-2 A6.9,6.9 0 0 0 66.23232889175415,68.53042472839356 zm8.19,0 l0.14,0 L74.23232889175415,66.82042472839356 l-1,-0.08000000000000002 l-0.09000000000000002,0.17 zm-0.6100000000000001,1.6800000000000002 c-0.4,-1.09 -0.24000000000000002,-2.48 -1.6700000000000002,-3.16 zm-0.8400000000000001,-43.06 l1.94,3.56 A6,6 0 0 0 73.01232889175415,27.140424728393555 zM16.832328891754152,26.220424728393553 a12.09,12.09 0 0 0 2.2,-3.26 A9.23,9.23 0 0 0 16.832328891754152,26.220424728393553 zm1.8900000000000001,46.38 l-1.28,2.08 C18.12232889175415,74.14042472839355 19.16232889175415,73.86042472839355 18.72232889175415,72.60042472839355 zm56.41,-5.85 l-0.3400000000000001,0 c0,0.33000000000000007 0.09000000000000002,0.6700000000000002 0.14,1 s0.30000000000000004,0.8900000000000001 0.14,1.15 c-0.30000000000000004,0.48000000000000004 0,0.6300000000000001 0.22000000000000003,0.8800000000000001 A8.08,8.08 0 0 0 75.12232889175415,66.74042472839355 zM60.48232889175415,59.19042472839355 l-0.17,-0.08000000000000002 l-0.6800000000000002,4.43 l0.2,0 zM58.23232889175415,69.55042472839355 l0.9,-3.56 A6.32,6.32 0 0 0 58.23232889175415,69.55042472839355 zm3.45,-15 A1.6700000000000002,1.6700000000000002 0 0 0 62.462328891754154,52.390424728393555 zM58.04232889175415,79.81042472839356 L59.52232889175416,79.39042472839355 l-0.5700000000000001,-0.7500000000000001 zM48.28232889175415,8.940424728393555 l-0.22000000000000003,0 l0.41000000000000003,2.75 l0.19000000000000003,0 zM4.68232889175415,67.31042472839356 h-0.22000000000000003 a10.07,10.07 0 0 0 0.14,2 l0.24000000000000002,0 zm71.26,-0.7100000000000001 c-0.45,0.26 -0.46,0.47000000000000003 0,1.79 zM40.81232889175415,5.870424728393555 l2.17,-0.9400000000000001 A2.8600000000000003,2.8600000000000003 0 0 0 40.81232889175415,5.870424728393555 zm22.21,14.4 l0.8200000000000001,1.85 A2.17,2.17 0 0 0 63.02232889175416,20.270424728393554 zM46.56232889175415,28.390424728393555 c-0.8400000000000001,0.78 -0.8400000000000001,0.78 -0.54,1.36 zm8.07,4.12 l0.16000000000000003,0 L54.41232889175415,30.390424728393555 L54.23232889175415,30.390424728393555 zm-44,23.29 c-0.53,0.6800000000000002 -0.53,0.6800000000000002 0.07,0.91 zm64,4.94 l-0.16000000000000003,0 l0.24000000000000002,1.79 l0.16000000000000003,0 zM40.34232889175415,22.600424728393556 l0.14,0.13 l0.92,-1.4 L41.23232889175415,21.240424728393556 z" id="svg_1" class=""/><path d="M22.05232889175415,32.750424728393554 c0.32000000000000006,0 0.43000000000000005,0.16000000000000003 0.31000000000000005,0.44000000000000006 a9.17,9.17 0 0 1 -0.5700000000000001,1.15 c-0.56,0.93 -1.12,1.87 -1.75,2.7600000000000002 A20.44,20.44 0 0 1 18.23232889175415,39.27042472839356 a14.19,14.19 0 0 0 -3.7800000000000002,7.55 a22.63,22.63 0 0 0 -0.48000000000000004,5.8100000000000005 c0.25,2.88 0.15000000000000002,5.79 1,8.6 a14.65,14.65 0 0 1 0.48000000000000004,1.79 a6.4,6.4 0 0 1 -1.1600000000000001,-2.6900000000000004 a19.2,19.2 0 0 1 -0.5900000000000001,-4.59 a19.06,19.06 0 0 0 -0.18000000000000002,-2.23 a19.64,19.64 0 0 1 0.24000000000000002,-5.9 c0.08000000000000002,-0.48000000000000004 0.11000000000000001,-1 0.16000000000000003,-1.45 l0.32000000000000006,-1.29 c0.6300000000000001,-1.28 1.26,-2.55 1.87,-3.84 a5,5 0 0 0 0.21000000000000002,-0.6300000000000001 l0.41000000000000003,-0.5800000000000001 a0.52,0.52 0 0 0 0.16000000000000003,-0.06000000000000001 c2.19,-1.78 3.56,-4.18 5,-6.5600000000000005 a2.62,2.62 0 0 0 0.17,-0.48000000000000004 z" id="svg_2" class=""/><path d="M67.09232889175415,68.96042472839355 a67,67 0 0 1 1.79,8.93 a3.92,3.92 0 0 1 -0.39000000000000007,-0.79 c-0.49000000000000005,-2.58 -1,-5.16 -1.4300000000000002,-7.74 A1.81,1.81 0 0 1 67.09232889175415,68.96042472839355 z" id="svg_3" class=""/></g></svg>