<svg xmlns="http://www.w3.org/2000/svg" xmlns:xl="http://www.w3.org/1999/xlink" version="1.1" 
   x="0px" y="0px"
   viewBox="20 35 350 375" xmlns:dc="http://purl.org/dc/elements/1.1/">
      <path d="M 264.81674 171.93338 C 264.38353 173.37624 263.87368 174.79497 263.28935 176.18351 C 262.1272 178.60742 260.33418 178.83985 258.67397 176.78119 C 255.35356 172.69708 252.03315 168.61297 248.94516 164.42925 C 247.853 162.99458 246.98017 161.40556 246.35524 159.71426 C 244.69503 155.06568 243.03482 150.4171 241.73986 145.6357 C 240.4449 140.8543 239.78081 135.87368 238.8179 131.02587 C 235.49748 136.63737 229.88598 139.89138 224.5069 143.37782 C 219.12783 146.86425 212.75264 150.81554 206.8423 154.4348 C 197.57442 160.22268 186.68651 162.86606 175.79642 161.97214 C 170.81174 161.31387 165.88363 160.28163 161.05378 158.88415 C 154.74782 157.1814 148.04626 157.72129 142.09421 160.41154 C 142.09421 160.41154 141.89499 160.41154 141.82858 160.41154 C 139.96914 162.70263 136.94757 163.3335 134.92211 165.45857 C 132.89666 167.58364 130.47276 169.47628 128.67973 171.70095 C 126.41449 174.2402 125.45751 177.68777 126.08981 181.03132 C 127.48439 189.19954 129.1446 197.30135 130.50596 205.43637 C 130.86503 207.9763 130.99837 210.54306 130.90441 213.10653 C 130.9746 219.49433 131.822 225.84985 133.42793 232.0329 C 134.34383 234.93654 135.66273 237.69727 137.34602 240.23432 C 142.59217 248.64437 146.30229 257.91966 148.30339 267.62774 C 149.08947 271.88015 148.26065 276.27286 145.9791 279.94648 C 144.88336 281.7395 143.6216 283.2669 142.65868 285.29234 C 141.60091 286.776 141.28215 288.6629 141.79384 290.4117 C 142.30553 292.1605 143.59112 293.57797 145.28181 294.25746 C 147.83853 295.65204 150.66088 296.61496 153.35042 297.7771 L 170.58337 305.31445 C 171.21344 305.54762 171.78147 305.92252 172.24358 306.4102 C 172.74164 307.00786 173.37252 307.97078 173.2065 308.50204 C 173.04048 309.0333 171.97794 309.56458 171.21425 309.7306 C 170.26808 309.87765 169.30486 309.87765 168.3587 309.7306 C 161.32714 309.02958 154.23263 309.29772 147.27406 310.5275 C 145.20123 310.7507 143.11452 310.8173 141.03168 310.72672 C 140.73284 310.72672 140.4672 310.72672 140.16837 310.72672 C 132.56462 310.32827 124.92767 309.99623 117.35712 309.46496 C 112.50931 309.13292 107.69471 308.56845 102.88011 307.93757 C 101.37429 307.72124 99.94082 307.1524 98.69639 306.27737 C 93.9814 302.95695 89.43243 299.2713 84.71744 295.85126 C 80.05051 292.45038 77.02652 287.24574 76.3832 281.50707 C 75.61951 276.42684 75.055035 271.3134 74.72299 266.19996 C 74.32454 260.2232 74.05891 254.18006 74.12532 248.2033 C 74.19173 242.22656 74.68979 236.2166 75.02183 230.17346 L 72.96317 231.53483 C 72.332295 230.33948 71.70142 229.34336 71.20335 228.21441 C 70.24043 226.15576 69.47674 223.96428 68.381 221.97203 C 65.41849 216.0996 63.294845 209.84045 62.07221 203.3777 C 60.90125 197.27474 61.53591 190.96273 63.89844 185.21504 C 66.19246 178.6506 69.38855 172.43721 73.39483 166.75354 C 78.39707 160.51355 80.94761 152.6612 80.56692 144.67278 C 80.53394 142.9521 80.63385 141.23143 80.86576 139.52613 C 81.05519 135.42899 81.95396 131.39576 83.52209 127.60585 C 85.90776 121.64579 87.68761 115.4608 88.83476 109.14434 C 89.87953 104.59938 91.73546 100.28011 94.31344 96.39395 C 101.25473 85.75632 109.44841 75.99079 118.71849 67.30711 C 121.47443 64.683984 124.59562 62.49251 127.584 60.10181 C 132.3654 56.283335 137.01398 52.39845 141.9614 48.745993 C 149.59521 43.02232 158.20054 38.72528 167.36257 36.06201 C 172.29685 34.57067 177.49092 34.14066 182.60327 34.80025 C 187.06637 35.181178 191.50191 35.83542 195.88493 36.759296 C 203.54193 38.643084 210.80429 41.86955 217.3348 46.288886 C 218.19034 46.816855 219.1864 47.07166 220.19037 47.01938 C 225.13787 46.82769 230.09003 47.25152 234.933 48.281135 C 238.31128 49.00459 241.50788 50.40522 244.32978 52.39845 C 251.7509 57.286516 258.1647 63.55376 263.22294 70.85996 C 270.09282 80.95428 278.1778 90.1656 287.29595 98.28658 C 294.84772 105.15043 302.02992 112.41021 308.81224 120.0353 C 317.6238 130.17854 323.12665 142.7714 324.5842 156.1282 C 325.51326 164.47236 325.81294 172.8746 325.48072 181.26375 C 325.48072 184.58416 324.6174 187.90458 324.28537 191.45742 C 323.7209 197.53378 323.22284 203.61014 322.8576 209.6865 C 322.32633 219.01686 322.0939 228.34723 321.463 237.6776 C 321.03136 244.1192 319.7696 250.5276 319.43757 257.0024 C 319.10552 263.47722 319.43757 270.5497 319.43757 277.29015 C 319.43757 282.33718 320.06844 287.2514 320.13485 292.43124 C 320.10173 294.67947 319.7667 296.91306 319.13873 299.07207 C 318.31904 301.8237 316.6443 304.24274 314.35733 305.97853 C 307.0207 311.99876 297.27764 314.2131 288.05965 311.95528 C 280.64047 310.66436 273.54545 307.93464 267.17424 303.91987 C 266.1449 303.2558 265.01597 302.69132 263.85382 302.09364 C 261.11395 300.45037 257.7299 300.30053 254.8555 301.6952 C 251.62793 303.06318 248.2971 304.17345 244.89425 305.0156 C 240.77997 305.97304 236.49186 304.37807 234.0033 300.9647 C 232.5231 299.4804 232.24885 297.17674 233.3392 295.3864 C 234.17364 293.89132 235.11698 292.45968 236.16156 291.10307 C 237.72216 289.0444 239.48198 287.05216 241.04257 285.12632 C 245.9347 279.6988 247.2304 271.92462 244.363 265.20384 C 242.5924 260.34106 242.2808 255.06698 243.46647 250.02954 C 243.94477 247.9973 244.72844 246.0493 245.79077 244.25202 C 249.85875 237.47566 252.83905 230.10335 254.62307 222.4037 C 256.30386 216.86208 258.26544 211.40956 260.5002 206.06725 C 262.1272 201.41867 263.5882 196.70368 264.91635 191.92228 C 265.3609 189.97349 265.56165 187.97702 265.51403 185.97874 C 265.51403 181.29695 265.51403 176.64837 265.51403 171.96659 Z M 256.08405 291.4683 C 253.9621 295.5814 250.998 299.2017 247.38456 302.09364 C 249.84167 301.42956 252.76364 301.42956 253.3281 298.10915 C 253.3281 297.7107 253.85937 297.31225 254.1914 296.9802 C 255.80637 295.5872 256.5106 293.41046 256.01764 291.3355 C 256.61195 291.9983 257.13502 292.7217 257.57824 293.49377 C 258.2754 295.5974 259.65416 297.40847 261.49633 298.6404 C 260.53485 295.4859 258.8524 292.59845 256.5821 290.20656 Z M 231.11453 136.57097 C 229.91918 136.17252 229.42112 135.67445 230.1516 134.31308 C 231.18094 132.42045 231.87823 130.36179 232.70833 128.36954 L 232.4095 128.36954 L 224.07525 141.45197 L 231.04812 136.60417 C 231.951 135.90996 232.81558 135.16731 233.63805 134.37949 C 234.33533 133.649 235.29825 132.7857 235.39787 131.88918 C 235.52177 129.6773 235.52177 127.46023 235.39787 125.24835 C 234.1029 128.56877 232.87435 131.62355 231.679 134.71153 C 231.6126 135.17639 231.34696 135.87368 231.11453 136.57097 Z M 81.06499 179.43752 C 80.83256 179.66995 80.50052 179.90238 80.43411 180.20122 C 78.25365 188.81184 77.724115 197.75758 78.87351 206.5653 L 81.03178 179.40432 C 82.45011 175.50442 84.49094 171.86009 87.07494 168.61297 C 88.68274 166.90326 89.63524 164.68076 89.76447 162.33738 C 87.14892 166.05156 84.74339 169.90928 82.55917 173.89243 C 81.85173 175.67791 81.35042 177.53832 81.06499 179.43752 Z M 285.76856 136.0729 L 287.42877 136.40494 C 281.65393 128.94371 276.8144 120.80347 273.01817 112.16592 C 274.27992 115.85158 275.94013 119.37122 277.2683 122.99047 C 278.81486 127.45477 281.20458 131.58043 284.30758 135.14319 C 284.30758 138.13156 287.09673 138.86205 288.3585 140.8211 L 289.05577 140.25663 Z M 82.19393 242.89065 C 83.25982 240.68827 84.16964 238.41372 84.91667 236.0838 C 85.64716 233.16183 85.58075 230.04064 86.41085 227.15188 C 87.67261 222.80214 89.39923 218.5852 90.92662 214.30188 L 92.48721 210.05174 C 88.27029 214.23547 84.75065 218.68482 85.44793 224.9936 C 85.80454 229.16924 85.24939 233.3725 83.82093 237.31235 C 83.22326 239.17178 82.7916 241.09762 82.29354 242.99026 C 81.9231 243.17652 81.58641 243.42343 81.297415 243.72075 C 78.76647 248.2772 77.9424 253.58656 78.973125 258.69582 C 79.34504 253.30845 80.42804 247.99395 82.19393 242.89065 Z M 241.3414 97.88813 C 241.3414 102.07186 241.3414 106.25558 241.3414 110.4725 C 241.37463 115.23182 240.6804 119.96827 239.28275 124.51786 C 239.1783 124.95403 239.11164 125.3984 239.08353 125.84603 C 239.94503 124.78224 240.47603 123.48938 240.61092 122.12716 C 241.2086 116.8477 241.80627 111.56824 242.0719 106.25558 C 242.0214 103.42954 241.76616 100.61087 241.3082 97.82172 C 239.88043 86.29988 238.61867 74.57882 232.4759 64.617576 C 233.2064 68.23683 234.0697 71.78967 235.03262 75.34252 C 236.32758 80.19032 237.72216 85.03813 239.01712 89.88593 C 239.648 92.17702 240.14606 94.50131 240.74373 96.7924 C 240.89865 97.18012 241.0993 97.54797 241.3414 97.88813 Z M 102.11642 166.75354 L 109.75337 161.37446 C 111.36182 160.33945 112.70405 158.94035 113.67146 157.29035 C 109.64632 159.26844 105.74336 161.48603 101.9836 163.93118 C 100.02848 165.56237 98.27806 167.42429 96.77055 169.47628 C 96.77055 169.6423 97.00298 170.27318 97.13579 170.70483 C 95.49095 172.50028 94.72508 174.93164 95.04393 177.34566 C 100.25698 174.22447 111.646 163.3003 112.94097 160.21232 C 112.27689 160.71038 111.77882 161.14203 111.21435 161.44087 Z M 278.69608 102.20467 C 279.87704 102.63916 280.99394 103.23111 282.0165 103.96449 C 284.34078 106.18917 286.46585 108.57987 288.65732 110.87095 C 289.81947 112.0663 291.11443 113.16204 292.34298 114.19137 L 292.74143 113.75972 C 291.5519 111.81312 290.2318 109.94941 288.79014 108.18142 C 285.76856 104.861 282.48135 101.80622 279.32695 98.65183 L 272.32088 91.51294 L 270.8267 90.08516 L 270.52786 90.35079 L 278.0984 102.00545 C 278.20984 104.1981 279.17524 106.26001 280.78794 107.74976 C 280.7036 108.29995 280.7036 108.85978 280.78794 109.40997 C 281.8428 113.37838 283.646 117.10875 286.1006 120.40054 C 290.31753 125.58039 294.46805 130.82665 298.9506 135.74086 C 304.56043 141.87947 308.52427 149.33879 310.47245 157.42317 C 311.86702 163.03467 312.4647 168.8454 313.328 174.55651 C 313.9834 178.07858 314.4159 181.6385 314.62296 185.21504 C 314.62296 194.18016 314.62296 203.14528 314.62296 212.0772 C 314.62296 219.3157 314.62296 226.5874 314.62296 233.82592 C 314.62296 236.1834 314.1249 238.5409 313.85927 240.8984 C 313.59364 243.2559 313.1952 246.5763 312.89635 249.39866 C 312.89635 250.32838 312.89635 251.19168 314.35733 250.99246 C 314.62296 248.0041 314.955 245.0157 315.12103 241.99414 C 315.55268 232.9626 315.7519 223.93108 316.3828 214.89955 C 316.78123 209.02242 317.71095 203.17849 318.40824 197.33456 C 318.53657 196.39815 318.53657 195.4486 318.40824 194.5122 C 316.18356 181.23054 313.2284 167.94889 311.46857 154.66723 C 310.7315 150.23 308.76432 146.08858 305.79066 142.71373 C 302.47025 138.53001 299.14983 134.08065 296.02864 129.6977 C 291.8117 123.82057 287.6612 117.87703 283.54388 111.96669 C 282.68057 110.73814 281.9833 109.37677 281.2196 108.11501 C 283.7763 111.03698 286.53226 113.79292 288.85655 116.91411 C 294.36843 124.31863 299.6811 131.88918 305.12658 139.36011 C 305.92348 140.45585 306.9196 141.45197 307.8161 142.4813 L 308.4138 142.11606 C 307.6501 140.75469 306.986 139.32691 306.0895 138.03195 C 303.39996 134.11386 300.27877 130.4282 297.95448 126.31088 C 294.1692 119.67005 288.4249 114.72264 283.7099 108.91191 C 281.9833 106.72044 280.3895 104.39615 278.69608 102.20467 Z M 137.08038 106.62082 C 138.40855 105.12664 139.73672 103.66565 141.03168 102.17147 C 147.67288 94.77141 153.9025 87.01209 159.6924 78.92856 C 162.1963 75.25237 165.16501 71.91536 168.52471 69.00052 C 175.4463 63.07111 183.2996 58.325476 191.76762 54.95517 C 192.56317 54.59852 193.33905 54.1995 194.0919 53.75982 L 193.82627 53.162145 C 191.50198 54.15827 189.11128 55.02158 186.8534 56.15052 C 180.3469 59.12437 174.30705 63.0279 168.92316 67.738766 C 161.18364 74.97628 154.16665 82.94963 147.97134 91.54614 C 144.3853 96.59317 140.69964 101.50738 137.04718 106.52121 L 132.99627 111.33581 L 133.62715 111.80067 Z M 269.89698 264.1413 C 269.26532 265.5909 268.75446 267.09018 268.3696 268.62386 C 266.99024 274.8751 267.55802 281.39883 269.9966 287.3178 C 272.03635 291.3666 274.77963 295.02057 278.0984 298.10915 C 280.35686 300.02017 283.4035 300.7137 286.26662 299.96858 C 285.98996 299.61283 285.62307 299.33767 285.2041 299.17168 C 283.54 298.57793 281.93846 297.82165 280.4227 296.9138 C 276.03036 293.20015 272.97486 288.1504 271.7232 282.5364 C 270.17653 276.54562 269.5606 270.35257 269.89698 264.1745 L 271.25835 265.50267 L 271.6236 257.46727 L 271.02592 257.46727 Z M 231.6126 124.8831 C 233.11465 121.48561 233.87316 117.8063 233.83727 114.09176 C 234.1813 104.4563 233.77053 94.80869 232.60872 85.23735 C 232.1207 78.06838 229.83701 71.13737 225.9679 65.082434 C 224.65514 62.93426 223.4581 60.71749 222.38184 58.441604 C 221.68455 57.17985 220.85445 55.95129 220.09075 54.689536 C 220.03753 55.55915 220.2708 56.42224 220.75484 57.14664 C 225.33653 64.86248 228.35987 73.40229 229.65355 82.28218 C 231.23762 94.00121 231.97004 105.81966 231.84502 117.6446 C 231.84502 120.0353 231.679 122.3928 231.5794 124.78349 L 229.71996 125.48078 L 229.71996 118.20907 L 226.39954 134.14706 L 226.798 134.14706 Z M 176.59332 49.37687 C 174.37179 49.345175 172.15123 49.48951 169.9525 49.808526 C 160.5843 51.54798 151.75063 55.44753 144.15287 61.19755 C 142.37213 62.598086 140.79624 64.241035 139.47108 66.07856 C 138.03895 68.31782 136.7524 70.64693 135.6194 73.05143 C 135.39373 73.69916 135.22703 74.36595 135.12134 75.04368 C 136.4495 73.84833 137.27961 73.08463 138.14292 72.35414 C 142.59227 68.63528 146.97522 64.8168 151.42458 61.23075 C 157.77784 55.89308 165.3325 52.17842 173.43893 50.4062 C 174.4132 50.11972 175.3582 49.74172 176.26128 49.27726 C 176.82066 49.25104 177.37642 49.173236 177.92149 49.04483 C 183.77024 46.84313 189.91368 45.522683 196.15056 45.12674 C 186.97556 44.340715 177.73735 45.47146 169.02277 48.447156 C 170.91541 48.447156 172.77484 48.447156 174.60107 48.447156 C 175.32146 48.61839 175.99935 48.93474 176.59332 49.37687 Z M 134.8225 143.17859 C 133.9924 144.27433 133.09589 145.33686 132.29899 146.499 C 129.27741 150.71593 126.35544 155.03247 123.26746 159.2162 C 121.37482 161.80612 119.28296 164.26322 117.25751 166.78674 L 115.89614 168.71258 C 111.5148 172.40027 108.97693 177.82817 108.95647 183.55483 L 107.89394 187.83817 C 107.42908 189.6644 106.99743 191.49063 106.46616 193.28365 C 103.93168 203.17243 103.58044 213.49444 105.43683 223.53263 C 106.89148 232.5495 109.39893 241.36456 112.90776 249.7971 C 113.90389 252.32063 115.23205 254.71132 116.4274 257.16843 L 117.02508 256.9692 C 116.29459 252.58626 115.73012 248.1369 114.8004 243.68755 C 114.0035 239.96868 112.84136 236.34943 111.81203 232.69697 C 110.54308 226.91594 109.88645 221.01735 109.85298 215.09878 C 109.42132 207.86407 109.78879 200.60382 110.94872 193.44967 C 112.62388 184.2265 116.42056 175.51912 122.0389 168.0153 C 125.35932 163.53273 128.31449 158.95056 131.43568 154.4016 C 133.64929 151.01477 135.8629 147.60581 138.07651 144.17471 C 140.60002 140.25663 143.18995 136.40494 145.48103 132.35404 C 148.43791 126.90893 152.12442 121.89305 156.4384 117.44538 C 160.72174 113.22845 164.77264 108.8123 168.95637 104.49576 C 173.14009 100.17922 177.9547 95.13219 182.50366 90.55002 C 186.32214 86.69833 190.43945 83.07908 194.0919 79.09458 C 196.53023 76.17273 198.8134 73.12482 200.93196 69.96344 L 200.4339 69.5982 C 195.38404 75.66741 189.83025 81.29896 183.83182 86.4327 C 176.59332 92.77469 169.65365 99.44873 162.68078 106.12276 C 159.80423 108.77717 157.13977 111.65257 154.71179 114.72264 C 149.00067 122.22677 143.52199 129.89693 138.10971 137.56709 C 136.78155 139.39332 135.75222 141.41877 134.59007 143.34461 Z M 114.60118 266.4656 C 114.16952 265.90112 113.80428 265.30345 113.33942 264.77218 C 111.42299 262.92607 109.64715 260.93936 108.02675 258.82864 C 103.79575 252.0352 100.79471 244.54947 99.16125 236.71468 C 98.29794 232.9958 97.83308 229.17733 97.2022 225.42527 C 96.96977 230.30628 97.2022 235.15408 96.90336 239.96868 C 96.80273 243.2042 97.58316 246.40627 99.16125 249.23264 C 103.90501 258.05502 109.46322 266.41458 115.76332 274.20216 C 116.9657 275.5339 118.25223 276.78715 119.615 277.95423 L 121.47443 274.6338 C 118.98412 271.54583 115.39808 269.88562 113.2398 266.3992 L 114.66758 266.3992 L 122.0057 273.04 C 123.12042 271.3522 123.65647 269.34784 123.53309 267.3289 C 122.96862 261.85022 122.47056 256.33833 121.9725 250.72683 C 121.9725 249.03341 121.70686 247.4064 121.47443 245.6134 C 120.14627 236.48225 118.15402 227.48392 117.35712 218.25317 C 116.45319 209.92124 116.45319 201.51597 117.35712 193.18404 C 117.43167 191.94554 117.43167 190.70367 117.35712 189.46517 C 116.86318 190.0652 116.54179 190.78831 116.4274 191.55703 C 116.09536 194.11375 115.86293 196.67047 115.53089 199.194 C 114.52132 206.7531 114.52132 214.4129 115.53089 221.97203 C 116.4274 228.9449 117.42353 235.91778 117.988 242.92385 C 118.30949 250.33726 119.24237 257.71148 120.77715 264.9714 C 121.33047 266.3069 121.04406 267.8431 120.04666 268.8895 Z M 219.49308 142.34849 C 221.4463 140.85064 222.82877 138.73007 223.41117 136.33854 C 224.17486 133.81502 224.93856 131.2583 225.60264 128.70158 C 225.93468 127.37342 226.1007 125.97884 226.39954 124.15261 L 219.42667 141.41877 C 219.6276 140.02119 219.90473 138.63562 220.25678 137.26825 C 221.3193 133.94784 222.44825 130.62742 223.5772 127.30701 C 224.34089 125.14874 225.337 123.09008 226.0343 120.93181 C 226.77434 119.20045 227.2339 117.36226 227.39567 115.48633 C 227.39567 109.77522 227.16324 104.0641 226.73158 98.35299 C 226.43275 94.00325 225.70226 89.71991 225.171 85.40337 L 224.4073 85.40337 C 226.16288 97.13261 225.02296 109.11324 221.08688 120.30093 C 217.85935 131.83588 212.69448 142.73825 205.81297 152.54216 C 209.42175 151.30032 212.23755 148.43534 213.41672 144.8056 C 215.1003 139.56794 217.11884 134.44393 219.45988 129.46528 C 222.08212 123.45729 223.83735 117.10716 224.67293 110.60532 C 224.87215 108.97832 225.2374 107.2849 225.53623 105.79072 L 226.1339 105.79072 C 226.26082 106.20437 226.36064 106.62585 226.43275 107.05248 C 226.63518 114.57273 224.9936 122.02822 221.65135 128.76799 C 219.39347 134.4127 216.90316 139.95779 214.51246 145.53609 C 214.28003 146.10056 214.114 146.73143 213.78197 147.86038 C 216.10626 146.36619 218.39734 145.7021 218.53016 142.87975 C 218.59657 142.78014 219.16104 142.54771 219.49308 142.34849 Z M 214.34644 55.718864 L 214.8113 53.02933 C 212.91402 54.78525 211.1905 56.72005 209.66465 58.80685 C 209.45452 59.213524 209.3089 59.650395 209.233 60.10181 C 209.0553 60.99181 208.75351 61.85245 208.33649 62.65853 C 205.87938 66.17817 203.09023 69.29936 200.83235 73.08463 C 196.45332 79.57241 191.22725 85.44615 185.2928 90.55002 L 181.9724 93.57159 C 184.703 91.88254 187.29053 89.97244 189.70896 87.86048 C 191.17696 86.37163 192.80244 85.04675 194.55676 83.90919 C 195.63599 83.38842 196.51187 82.52421 197.04708 81.45208 C 198.0432 79.62585 199.07253 77.79962 200.10186 75.973395 L 200.76594 76.30544 L 197.67795 82.780245 C 198.19967 82.6363 198.64209 82.28955 198.9065 81.81732 L 213.1511 57.080234 C 213.5004 56.5537 213.8889 56.05423 214.31323 55.58605 C 212.98507 58.607625 211.6901 61.66241 210.29553 64.65078 C 209.39902 66.54342 208.30328 68.33644 207.43997 70.22908 C 206.57667 72.12171 205.48093 75.11009 204.352 77.50079 C 202.49256 81.45208 200.4339 85.30376 198.54126 89.25505 C 197.71116 90.94847 197.1799 92.8079 196.28338 94.50131 C 190.36665 106.27786 181.7825 116.51061 171.21425 124.38504 C 166.39698 127.83283 162.16964 132.03774 158.69628 136.8366 C 155.24305 142.04965 151.32496 146.93066 147.6061 152.0109 L 144.28568 156.59307 L 144.75054 156.95831 L 146.776 154.66723 C 151.5574 149.12213 156.27238 143.51063 161.1866 138.06515 C 163.80972 135.17639 166.7981 132.65288 169.58725 129.93014 L 181.40792 118.27548 C 187.48254 113.03746 192.59536 106.77847 196.5158 99.78077 C 200.66633 91.11449 204.88325 82.48141 208.80134 73.74872 C 210.99282 68.90091 212.61982 63.78747 214.54566 58.840054 C 215.01052 57.71111 215.27615 56.681785 214.34644 55.718864 Z M 130.37315 165.7242 C 131.72431 164.60725 132.85108 163.24386 133.69356 161.7065 C 136.3831 157.35676 139.30506 153.10663 142.29344 148.9229 C 145.28181 144.73919 147.80532 141.15314 150.8601 137.53389 C 155.30974 132.31751 160.3206 127.6073 165.80197 123.48853 C 173.40946 117.27027 180.04596 109.95109 185.49203 101.77302 C 186.787 99.97999 187.91593 98.05415 189.14449 96.19472 L 188.61322 95.82948 C 184.69513 100.0464 180.61102 104.16372 176.85895 108.54666 C 172.402 112.95276 167.66617 117.06751 162.68078 120.8654 C 160.95417 122.4592 159.16114 124.0198 157.56734 125.71321 C 155.97354 127.40662 155.34267 129.53169 153.71566 130.19577 C 152.04465 131.07336 150.62695 132.3653 149.59835 133.94784 C 141.53434 143.03265 134.60984 153.06816 128.97857 163.83157 L 130.27353 165.82382 C 129.82191 165.76109 129.36379 165.76109 128.91216 165.82382 C 126.20984 166.82781 123.88828 168.65024 122.27133 171.03687 C 118.17516 176.65917 115.1991 183.01713 113.50544 189.764 C 111.78876 197.19337 111.15133 204.8313 111.6128 212.44244 C 111.31862 218.0077 111.74269 223.58765 112.87456 229.04452 C 113.83748 232.56416 114.7672 236.0838 115.69691 239.60344 L 116.29459 239.60344 C 115.96255 236.68147 115.66371 233.7595 115.33167 230.83754 C 114.70079 225.55808 113.63826 220.27862 113.47223 214.99916 C 112.93753 204.62755 114.23002 194.24267 117.29071 184.31853 C 119.77538 176.9927 124.31716 170.53737 130.37315 165.7242 Z M 268.76804 220.44464 C 268.76804 222.6029 268.602 224.72798 268.4692 226.88625 C 268.33638 229.04452 268.07075 232.1325 267.90473 234.78884 C 267.90473 235.91778 267.90473 237.04672 267.90473 238.10925 C 267.30705 241.7949 266.60977 245.48057 265.94568 249.16623 C 268.30318 243.85357 270.1626 238.4081 271.98884 232.9626 C 272.0986 232.51545 272.0986 232.0484 271.98884 231.60124 C 271.29155 228.28082 270.62747 224.76118 269.86377 221.34116 C 269.86377 221.00911 269.1665 220.77668 268.80124 220.51105 L 269.59814 214.86635 L 268.73483 214.66712 C 267.6894 217.37238 266.79157 220.13238 266.0453 222.93495 C 264.71713 229.07772 263.85382 235.2869 262.49245 241.39646 C 261.13108 247.50602 259.37126 253.94763 257.81067 260.19 C 257.01377 263.51042 256.3829 266.83084 255.38676 269.8524 C 253.12888 276.8253 250.70498 283.73175 248.21467 290.605 C 247.4175 292.74277 246.44 294.80887 245.2927 296.78098 C 243.98728 299.01387 241.88908 300.67347 239.41557 301.42956 C 246.0564 296.64816 246.8865 289.14403 249.04477 282.23756 C 248.01544 284.1634 247.15214 286.15565 246.32203 288.1811 C 244.60037 291.80782 242.03934 294.97212 238.8511 297.41186 C 238.0873 298.47505 236.61729 298.73965 235.53068 298.00953 L 237.3569 296.41573 C 240.19747 294.14925 242.55682 291.33835 244.29658 288.1479 C 248.4201 280.16537 250.5397 271.2995 250.47255 262.31507 C 250.47255 258.09815 250.67177 253.84802 250.8046 249.5979 C 250.1385 250.50074 249.63304 251.51167 249.3104 252.58626 C 247.85165 257.94325 247.7376 263.57747 248.97836 268.9891 C 249.1455 270.0896 249.1455 271.20903 248.97836 272.30952 C 248.97836 272.8076 248.14826 273.20603 248.14826 273.6709 C 247.925 278.27945 246.1324 282.67307 243.06803 286.12245 C 240.87655 288.8784 238.55226 291.53472 236.4272 294.4235 C 234.30213 297.31225 234.60097 299.53692 238.0874 301.662 C 238.5783 301.9515 239.08865 302.20666 239.6148 302.4257 C 241.80627 303.3554 242.1051 303.2226 242.9352 300.8651 C 243.13605 300.5438 243.38207 300.25304 243.6657 300.0018 C 247.03202 296.09666 249.46233 291.47452 250.7714 286.4877 C 252.22347 280.97394 254.1797 275.60545 256.61532 270.4501 C 259.9839 263.8253 262.40915 256.76184 263.82062 249.46507 C 264.98276 242.4258 265.81287 235.3533 266.9086 228.28082 C 267.43987 225.7241 268.13716 223.10098 268.76804 220.44464 Z M 93.9814 181.6622 L 94.61228 182.32628 C 100.25706 179.70191 105.44683 176.1935 109.9858 171.93338 C 112.4429 169.14423 114.7672 166.25547 117.1911 163.43312 C 122.46787 157.53677 127.19165 151.168 131.30286 144.40714 C 132.16617 142.91296 133.1623 141.51838 134.15842 140.12381 C 138.97302 133.48298 143.72121 126.57652 148.70184 119.96889 C 151.63125 115.98056 154.79102 112.16666 158.16502 108.54666 C 163.01282 103.43323 168.12626 98.58542 173.2397 93.70441 C 176.75934 90.384 180.5114 87.2628 184.09746 83.97559 C 187.6835 80.68838 191.76762 76.96952 195.32046 73.250654 C 199.96904 68.33644 204.28558 63.090185 208.60212 58.00995 C 208.93974 57.55951 209.2396 57.08196 209.49863 56.58217 L 208.96736 56.08411 C 205.62052 58.416296 202.40584 60.93262 199.33816 63.62145 C 190.43945 72.25453 181.80637 81.12004 172.97407 89.85273 C 169.38802 93.40557 165.53634 96.69278 161.9503 100.24563 C 156.54404 105.49376 151.51756 111.11943 146.90881 117.08013 C 142.7583 122.52561 138.24253 127.67225 134.59007 133.6822 C 129.44343 141.91683 123.83193 149.85262 118.41965 157.92123 C 118.05347 158.47595 117.6543 159.00817 117.2243 159.51503 C 110.79562 167.0763 103.57074 173.92268 95.67481 179.93558 C 95.06036 180.45987 94.49366 181.03768 93.9814 181.6622 Z M 199.90263 50.273384 L 199.90263 49.90814 C 199.06692 49.988 198.23577 50.109904 197.41232 50.273384 C 189.23442 52.098157 181.3921 55.190276 174.16942 59.43773 C 169.41138 62.15961 165.23661 65.79279 161.88388 70.129465 C 160.34152 72.186555 158.69002 74.1595 156.93646 76.0398 C 150.03 83.54394 142.061 90.01875 136.01785 98.31979 C 133.46113 101.87263 130.73839 105.29266 128.24808 108.91191 C 125.75777 112.53116 123.03503 117.11333 120.21268 121.03142 C 118.2538 123.96795 115.97047 126.67454 113.40583 129.10003 C 107.55985 134.70225 102.67954 141.23177 98.96202 148.42485 C 97.2022 151.44642 96.13967 154.86645 94.51267 157.98764 C 92.48433 162.80861 89.95819 167.40463 86.97532 171.70095 C 83.91114 175.46914 82.15184 180.12955 81.9615 184.98261 C 81.46344 191.82267 81.1978 198.66272 80.83256 205.50278 C 80.83256 207.9931 80.43411 210.4834 80.23488 212.9405 L 81.03178 212.9405 C 81.36382 209.85252 81.695865 206.79774 82.02791 203.70975 C 82.35995 200.62177 82.69199 197.06892 83.22326 193.7485 C 83.75452 190.4281 84.88346 186.70923 85.38153 183.15638 C 86.40332 175.76637 89.38412 168.78442 94.0146 162.93506 C 96.4053 159.84707 99.12804 156.99152 101.2199 153.73751 C 104.27307 149.01828 107.05563 144.1294 109.55415 139.09448 C 112.35613 132.71375 116.28117 126.88805 121.1424 121.89473 C 127.17583 115.75744 132.72635 109.16341 137.74447 102.17147 C 146.54357 90.78244 154.8446 78.92856 165.37032 68.96732 C 173.8053 60.85027 184.04765 54.85281 195.25405 51.468733 Z M 289.95228 240.2011 L 288.95616 238.83974 C 285.5045 234.42823 282.94446 229.3871 281.4188 223.9975 C 279.61303 215.0076 279.53415 205.75624 281.1864 196.73688 C 282.24892 189.598 283.6103 182.4591 284.30758 175.287 C 284.90525 168.945 284.80564 162.5366 284.83884 156.16141 C 284.85322 147.7513 282.9452 139.44917 279.26055 131.88918 C 278.18188 129.72774 277.21762 127.51107 276.3718 125.24835 C 272.7633 115.30686 267.70595 105.953 261.3635 97.48968 C 257.28537 91.72446 252.2682 86.68486 246.52126 82.58102 L 243.6325 80.62198 C 248.15433 94.13899 256.2419 106.18432 267.04142 115.48633 C 265.74358 113.45692 264.31266 111.51576 262.7581 109.6756 C 259.23312 106.34159 256.28258 102.44866 254.0254 98.15377 C 252.37797 93.40098 249.63692 89.10174 246.0232 85.6026 C 245.72436 85.33696 245.65795 84.77249 245.2595 83.80957 C 245.76777 84.04702 246.2563 84.3246 246.72048 84.63968 C 249.91265 87.51232 252.537 90.95887 254.45705 94.80015 C 256.02926 98.27577 258.17296 101.46326 260.79904 104.23012 C 263.10808 106.49599 265.24983 108.92626 267.20744 111.50183 C 272.1002 117.84686 275.64782 125.12288 277.63354 132.8853 C 279.11368 136.67678 280.31228 140.57223 281.2196 144.53996 C 281.9598 152.59753 282.2812 160.6881 282.1825 168.77899 C 282.1825 173.99204 281.2196 179.2051 280.82114 184.41814 C 279.92463 195.80717 277.86597 207.09658 277.50073 218.5188 C 277.6235 219.3868 277.9169 220.22188 278.36403 220.9759 C 278.56326 221.47397 278.9617 221.87242 279.12773 222.37048 C 280.309 225.16588 281.2964 228.0393 282.0829 230.97036 C 283.12864 235.1032 286.03696 238.51464 289.95228 240.2011 Z M 72.76395 218.4192 L 73.527644 218.4192 C 73.24439 216.83806 73.0559 215.24142 72.96317 213.6378 C 72.96317 208.0927 72.96317 202.5808 72.96317 197.03572 C 72.91465 190.535 74.3453 184.1084 77.1469 178.24217 C 80.13353 173.15886 82.69883 167.83949 84.81705 162.33738 C 84.97676 161.88713 85.20041 161.46219 85.48114 161.07563 C 88.53113 156.24929 91.0473 151.10562 92.98528 145.73531 C 94.94432 140.98712 97.46784 136.50456 99.82533 131.92238 C 103.14574 125.6468 106.46616 119.47083 109.45453 113.16204 C 112.82189 105.59421 116.77409 98.30041 121.27521 91.34692 C 126.88699 84.11727 131.88499 76.43146 136.21708 68.369645 C 136.4495 67.87158 136.61553 67.30711 136.81475 66.775846 C 131.36812 71.88054 126.58264 77.64765 122.57017 83.94239 C 117.55634 91.34692 113.40583 99.31591 108.89006 107.1853 C 105.6433 112.22311 102.65117 117.42055 99.92494 122.75804 C 96.60453 130.36179 93.78217 138.29758 90.62778 146.00094 C 88.93437 150.11826 87.30737 154.23557 85.11589 158.18687 C 82.82481 162.66943 80.00245 166.88635 77.71137 171.46852 C 73.65546 179.0556 71.330815 187.44702 70.90452 196.0396 C 70.90452 201.18624 70.90452 206.33288 71.33617 211.47952 C 71.66885 213.81992 72.145684 216.13755 72.76395 218.4192 Z M 169.58725 53.06253 C 165.04267 54.15782 160.77826 56.19388 157.06928 59.03928 C 149.62693 64.36367 142.60056 70.24672 136.05106 76.63748 C 131.16624 80.90808 127.1233 86.05467 124.13077 91.81177 C 123.6327 92.8411 122.93542 93.77082 122.40415 94.76694 L 106.63218 124.48466 C 106.26693 125.14874 106.0345 125.87923 105.73567 126.57652 C 102.50546 134.502 98.6181 142.14344 94.11422 149.42097 C 92.95207 151.2472 92.12197 153.23945 91.15905 155.16529 L 91.72352 155.46413 C 92.88566 153.83712 94.11422 152.14371 95.04393 150.58312 C 96.90336 147.59474 98.36435 144.37394 100.423 141.51838 C 104.0561 136.17227 107.19045 130.50376 109.78657 124.58427 C 113.26036 116.67434 117.59176 109.16955 122.70299 102.20467 C 123.5663 101.07573 124.26358 99.81397 125.06048 98.61862 C 126.7871 95.9955 128.3809 93.23955 130.30674 90.81565 C 133.89279 86.36629 137.61165 82.04975 141.43013 77.76642 C 149.49874 69.00052 157.56734 59.83618 168.52471 53.92584 C 168.82355 53.726615 169.222 53.42778 169.58725 53.162145 Z M 222.0498 49.576097 L 222.54786 49.77532 C 227.39567 51.10349 232.27668 52.26563 237.09128 53.793024 C 239.08237 54.68006 241.0223 55.677745 242.902 56.7814 C 248.43962 58.982555 253.01662 63.07714 255.81842 68.33644 C 258.3267 73.03781 261.70734 77.21852 265.77966 80.65518 C 266.85966 81.64498 267.81823 82.7596 268.63522 83.97559 C 272.52532 89.35843 276.97765 94.31165 281.91688 98.75144 C 285.67585 101.89251 289.02278 105.49604 291.87812 109.47638 C 295.20128 114.63356 299.4445 119.13566 304.3961 122.75804 C 306.91847 124.51551 308.8696 126.97463 310.0076 129.83052 C 311.0369 132.48685 311.99984 135.17639 313.328 137.73311 C 315.8014 143.30335 317.57474 149.15873 318.60746 155.16529 C 319.3148 159.21042 320.8279 163.07215 323.0568 166.5211 C 323.0568 165.09333 323.0568 164.0308 323.0568 163.00147 C 323.0568 161.97214 322.69157 160.74358 322.59196 159.68105 C 321.71923 146.78736 317.1034 134.42846 309.3103 124.11941 C 302.3736 115.60901 294.69547 107.73088 286.36623 100.57767 C 277.3896 92.73397 269.41563 83.81205 262.62527 74.01435 C 257.79384 66.916406 251.78613 60.69535 244.86105 55.61925 C 238.25272 50.88595 230.1301 48.75775 222.0498 49.642505 Z M 108.75725 176.51556 L 108.15957 176.1171 C 107.4486 177.05353 106.82612 178.05395 106.30014 179.10548 C 102.92731 187.8613 100.4141 196.92444 98.796 206.16686 C 98.39688 208.02089 98.21855 209.91563 98.26473 211.81156 C 98.46396 215.59684 99.06163 219.3821 99.32727 223.16738 C 99.93561 232.31146 102.06791 241.28958 105.63606 249.7307 C 107.60928 255.12923 110.9501 259.92308 115.33167 263.64324 C 116.16177 264.27412 117.05828 264.8054 118.12082 265.46947 C 118.1507 265.20468 118.1507 264.93736 118.12082 264.67257 C 117.88839 264.1745 117.62275 263.64324 117.35712 263.14518 C 107.80824 246.67216 102.56648 228.05762 102.11642 209.02242 C 102.22675 203.3969 103.09797 197.81218 104.70634 192.42034 C 106.0013 187.10768 107.49549 181.89463 108.75725 176.51556 Z M 305.59144 249.26584 L 306.0895 248.8674 C 305.62464 247.57243 305.2262 246.24427 304.69492 244.9825 C 302.70268 240.1679 300.5112 235.41971 298.68497 230.5387 C 294.93416 221.3296 293.45367 211.35335 294.36843 201.45187 C 294.79506 197.03816 294.97243 192.6039 294.8997 188.17021 C 294.8997 183.58804 294.50125 179.03907 294.33523 174.4569 C 294.28865 166.07051 293.17284 157.7243 291.0148 149.6202 C 289.7772 144.91857 287.10836 140.71805 283.37786 137.6003 C 285.10448 143.87588 286.69828 149.6866 288.29207 155.53053 C 288.88975 157.722 289.48742 159.91348 289.88587 162.17136 C 290.00782 164.1582 290.27416 166.13352 290.68277 168.0817 C 291.5277 170.61383 291.85516 173.28994 291.6457 175.95108 C 291.24724 183.1896 290.8488 190.4281 290.28432 197.6334 C 289.66402 205.78586 291.18644 213.9588 294.70048 221.34116 C 295.65434 223.4716 296.37787 225.69783 296.85875 227.98198 C 298.25332 234.4236 298.35293 241.26364 303.49957 246.34388 L 302.2046 247.34 Z M 166.13401 157.95444 C 168.83243 159.63697 172.36436 159.0221 174.33544 156.52666 C 177.42342 153.40547 180.67743 150.4835 183.6658 147.2627 C 186.65418 144.0419 188.54681 141.28595 190.93751 138.29758 L 190.47265 137.89913 C 183.83182 144.53996 178.25353 152.9074 169.42122 157.38997 C 176.49913 151.7168 182.88502 145.23061 188.4472 138.06515 C 192.26568 133.6158 195.38687 128.53556 198.8401 123.75416 C 201.05859 121.03246 203.13122 118.19506 205.04928 115.2539 C 210.54436 106.14079 214.99945 96.43982 218.33093 86.33309 C 218.8546 83.64287 218.96656 80.88871 218.66298 78.16487 C 217.76646 79.92469 217.2352 81.75092 216.5047 83.47753 C 214.71168 87.76087 213.01827 92.11061 210.8932 96.26113 C 207.5728 102.90196 203.5883 109.54279 200.00224 116.18362 C 194.0288 127.62122 186.17123 137.97078 176.75934 146.79784 C 173.1733 150.4171 169.72006 154.23557 166.0676 157.95444 Z M 278.0984 117.87703 C 278.8621 119.43762 279.49298 120.8986 280.25667 122.25998 C 281.02037 123.62135 282.1493 125.34796 283.21184 126.80895 C 286.53666 131.91104 290.11617 136.84256 293.93678 141.58479 C 299.25765 147.4701 302.82347 154.72827 304.23007 162.5366 C 304.4957 164.0308 304.6285 165.55819 304.82774 167.05237 C 305.5713 170.45452 306.07065 173.90548 306.32193 177.37886 C 306.32193 190.4281 306.0563 203.51053 305.85707 216.55976 C 306.18637 218.8334 305.8036 221.15325 304.76133 223.2006 C 304.3961 223.73185 304.76133 224.69477 304.76133 225.42527 C 305.2262 230.07385 305.69105 234.72243 306.25552 239.3378 C 306.62076 242.25977 307.15203 245.14853 307.6833 248.0373 C 307.95035 248.85465 308.31844 249.63546 308.77903 250.36158 C 309.3103 249.92993 309.4099 249.6643 309.3435 249.43186 C 305.2262 237.11313 306.48795 224.62837 307.8493 212.0772 C 308.7145 205.18334 309.11385 198.239 309.04467 191.2914 C 308.81224 182.5587 307.94893 173.79282 306.9196 165.09333 C 305.86713 155.8717 302.22983 147.13529 296.4271 139.89138 C 293.49977 136.62898 291.19297 132.85932 289.62024 128.76799 C 289.04576 127.60292 288.2038 126.59029 287.16313 125.81282 C 284.30758 123.2561 281.4188 120.69938 278.0984 117.87703 Z M 105.9681 160.1127 L 105.9681 160.34514 C 108.3588 158.85095 110.68309 157.22395 113.14019 155.86258 C 115.97743 154.28283 118.35691 151.99487 120.04666 149.22175 C 120.87286 147.6258 122.00044 146.20505 123.36707 145.03802 C 125.47677 143.50682 127.27909 141.59186 128.67973 139.39332 C 132.96307 133.35016 136.3831 126.70933 141.29731 121.03142 C 147.93814 113.32806 154.24693 105.29266 161.61825 98.22017 C 168.02665 92.11061 174.36864 85.90143 180.74384 79.75867 L 196.58222 64.451555 C 200.289 60.739264 204.60073 57.68512 209.3326 55.42003 C 210.91192 54.46358 212.39137 53.35121 213.74876 52.09961 L 213.38352 51.53514 C 212.62387 51.825205 211.88113 52.15777 211.15884 52.531266 C 204.18856 56.574085 197.6855 61.37344 191.76762 66.84225 C 180.43393 77.334765 169.1556 87.88262 157.93259 98.48581 C 154.58668 101.66011 151.46882 105.06645 148.60222 108.67948 C 143.68801 114.88866 139.23865 121.42987 134.45726 127.70546 C 129.67586 133.98104 124.49601 140.8211 119.24976 146.99707 C 115.03283 151.67885 110.35104 155.76296 105.9681 160.1127 Z M 276.5046 235.02126 C 275.3091 230.20436 274.88324 225.22863 275.24284 220.27862 C 275.24284 217.92113 275.44207 215.53043 275.6081 213.13973 C 275.7741 210.74903 276.03974 207.82707 276.30538 205.17074 C 276.571 202.5144 277.00266 199.49283 277.3347 196.67047 C 277.86597 192.0219 278.49685 187.40652 278.8621 182.75794 C 279.37123 176.49342 279.76968 170.21784 280.05745 163.93118 C 280.23305 160.80139 280.23305 157.6642 280.05745 154.5344 C 280.12633 150.43586 279.6348 146.34713 278.59646 142.38169 C 276.96946 137.73311 275.50848 133.01812 273.9811 128.33634 C 273.81507 127.80507 273.64905 127.2406 273.41662 126.70933 C 273.1842 126.17807 272.88535 125.71321 272.61972 125.18194 C 275.422 134.69555 276.73254 144.58608 276.5046 154.5012 C 276.79173 162.7917 276.48102 171.0921 275.5749 179.3379 C 274.27992 188.36944 273.01817 197.43417 271.82282 206.4657 C 271.45757 208.78999 271.45757 211.11428 271.45757 213.37216 L 272.32088 213.37216 C 273.64905 199.39321 277.4011 185.6799 277.2019 171.46852 C 277.9276 173.08041 278.16982 174.8683 277.89918 176.61517 C 277.89918 187.80497 275.47527 198.72913 274.31313 209.81932 C 273.52984 214.59162 272.99784 219.40178 272.71933 224.22992 C 272.67758 228.15946 274.0173 231.97884 276.5046 235.02126 Z M 110.21823 128.76799 C 112.12249 127.79832 113.56654 126.11558 114.23593 124.0862 C 115.71342 120.57906 117.5612 117.23972 119.74782 114.12496 C 125.32612 106.55442 131.23645 99.1831 137.01398 91.74536 C 139.6371 88.42495 142.22703 85.10454 144.91656 81.6181 C 147.6061 78.13166 151.25856 74.24678 154.24693 70.4283 C 161.3753 61.47619 170.94921 54.78599 181.80637 51.169896 C 184.66193 50.17377 187.48428 49.078035 190.33984 48.048706 C 190.00443 47.8064 189.58506 47.710547 189.1777 47.78307 C 177.58703 50.23923 166.8187 55.62339 157.89938 63.42223 C 149.34437 71.44652 141.3458 80.04415 133.9592 89.15544 C 130.30674 93.47198 127.75002 98.75144 124.29679 103.2672 C 120.17915 109.29042 116.48461 115.59222 113.2398 122.12716 C 112.07766 124.25223 111.21435 126.57652 110.21823 128.76799 Z M 286.66507 153.80392 C 286.64065 154.26846 286.64065 154.73395 286.66507 155.1985 C 287.22248 167.57203 286.29726 179.96782 283.90913 192.1215 C 282.6328 199.05491 281.9882 206.08983 281.9833 213.13973 C 282.05342 222.7448 285.5909 232.00125 291.94453 239.205 C 292.77463 240.1679 293.67115 241.06442 294.56766 241.99414 C 294.7427 241.51145 294.7427 240.98263 294.56766 240.49995 C 292.34298 234.75563 289.95228 229.04452 287.92683 223.2006 C 286.98932 220.11362 286.34453 216.94525 286.001 213.7374 C 285.2993 205.46285 285.80263 197.13025 287.49518 189.00032 C 288.9854 181.34645 289.6312 173.55217 289.421 165.75741 C 289.3482 161.64537 288.4091 157.5949 286.66507 153.87033 Z M 125.59175 275.3975 L 126.48826 275.56353 C 128.1548 272.2248 129.21179 268.6153 129.60945 264.905 C 130.0423 257.58178 129.34798 250.23553 127.5508 243.12308 C 125.48195 234.992 124.60947 226.60275 124.96087 218.21997 C 124.8024 214.39904 125.76004 210.61467 127.71681 207.329 C 128.02643 206.66564 128.10815 205.91855 127.94924 205.20394 C 127.6172 203.14528 127.15234 201.08662 126.72069 199.06117 C 126.28904 197.03572 125.79097 195.17629 125.35932 192.75238 C 125.11658 193.33466 124.91682 193.93394 124.76165 194.5454 C 123.0881 206.85644 122.37758 219.27928 122.63658 231.70085 C 123.20109 241.85803 124.30948 251.97767 125.957 262.01624 C 126.13785 264.22615 126.13785 266.44715 125.957 268.65707 C 125.9902 270.94815 125.75777 273.17283 125.59175 275.3975 Z M 178.71839 159.61464 C 183.57297 160.85976 188.70293 159.09756 191.76762 155.13208 C 193.06258 153.73751 194.39074 152.37614 195.6193 150.91516 C 199.44884 146.28871 203.24518 141.64013 207.00832 136.96941 C 211.49812 131.90707 215.27414 126.25422 218.23132 120.16812 C 221.86608 111.95435 223.67853 103.05071 223.54399 94.06966 C 223.54399 88.92301 222.9463 83.80957 222.44825 78.696135 C 222.1529 76.93827 221.71992 75.20633 221.1533 73.51629 C 220.8105 76.56943 220.67737 79.64248 220.75484 82.71384 C 220.91382 89.233 220.5139 95.75379 219.5595 102.20467 C 217.69756 113.82756 213.14982 124.85582 206.27783 134.4127 C 204.14762 137.3371 201.81778 140.11072 199.30496 142.71373 C 193.295 149.05572 187.6171 155.9954 179.01722 159.01697 C 179.01722 159.2162 178.91761 159.41542 178.7516 159.61464 Z M 214.41285 64.219126 C 213.71556 66.07856 213.11788 67.971195 212.32098 69.76422 C 209.6868 75.58601 207.0526 81.38567 204.4184 87.16319 C 202.65858 90.94847 200.83235 94.73374 198.97292 98.48581 C 196.73571 103.36819 193.719 107.85402 190.041 111.76747 C 182.8025 119.07238 175.26515 126.14486 167.96024 133.38337 C 162.66971 138.60749 157.45666 143.89801 152.32109 149.25495 C 150.29564 151.38002 148.63543 153.80392 146.57677 156.42705 C 147.9695 156.1715 149.37875 156.01614 150.7937 155.96219 C 152.02709 155.9968 153.17796 155.34464 153.78207 154.26878 C 155.84073 151.67885 158.0322 149.12213 160.4229 146.69823 C 162.8136 144.27433 164.73944 142.5145 166.8977 140.45585 L 166.39965 139.92458 C 160.3897 143.77627 155.90714 149.45417 150.46166 154.23557 C 150.46166 153.73751 150.22923 153.47188 150.29564 153.40547 C 154.11788 149.15427 158.15175 145.09823 162.38194 141.25275 C 168.97295 136.42296 175.04825 130.92626 180.5114 124.8499 C 183.83182 120.8322 187.38467 117.17974 190.47265 113.19524 C 197.99698 103.13664 204.66133 92.46257 210.39514 81.28606 C 213.33585 76.09715 214.72999 70.17496 214.41285 64.219126 Z M 135.32056 252.58626 L 134.65648 252.58626 C 135.15454 257.40086 135.68581 262.21546 136.15067 267.03006 C 136.44206 269.29778 136.51988 271.58785 136.3831 273.87012 C 136.51053 276.12612 135.57714 278.3122 133.85958 279.78046 C 133.85958 279.51482 133.62715 279.4152 133.62715 279.3488 C 133.66427 278.97615 133.74221 278.6087 133.85958 278.25307 C 135.24868 274.578 135.59345 270.59017 134.8557 266.73123 C 134.42405 263.70965 134.29124 260.68807 134.0588 257.6333 C 134.0976 254.0146 133.78624 250.40066 133.12909 246.84194 C 131.36927 240.66597 131.30286 234.25757 130.14072 228.0152 C 129.11139 222.4369 128.67973 216.75898 127.98245 211.11428 C 127.04234 215.05866 126.68437 219.11936 126.91991 223.16738 C 127.44352 231.24015 128.67684 239.25114 130.60558 247.10757 C 132.14167 253.7067 132.3673 260.54323 131.26966 267.2293 C 130.42658 270.77893 129.39581 274.28136 128.18167 277.7218 L 133.56074 282.86844 C 137.79885 278.45935 139.66372 272.2843 138.57457 266.26637 C 138.0101 262.94595 137.18 259.95758 136.4495 256.8032 C 136.15067 255.47502 135.71901 254.04724 135.32056 252.58626 Z M 273.08458 181.19734 C 274.26115 174.23397 274.7505 167.1718 274.54556 160.1127 C 274.5076 156.50927 273.85636 152.9386 272.61972 149.55379 C 271.26484 145.51846 270.156 141.40466 269.2993 137.23505 C 268.43565 132.27382 267.18105 127.38866 265.54723 122.62522 C 263.27403 116.69058 260.05595 111.16266 256.01764 106.25558 C 253.43375 103.25881 251.29757 99.90356 249.67565 96.29433 C 249.07798 94.83335 248.28108 93.43878 247.5838 92.0442 L 247.01932 92.27663 C 248.4471 96.16152 248.08185 100.37844 250.73818 104.09731 C 262.39986 120.53192 269.65864 139.6791 271.82282 159.71426 C 272.32088 166.95276 272.65292 174.3905 273.08458 181.19734 Z M 134.49046 307.73835 C 133.74075 307.2247 132.95259 306.76957 132.13297 306.37698 C 127.25172 304.3826 123.12596 300.89604 120.3455 296.41573 C 116.79265 291.03666 113.70466 285.35875 109.91939 280.0793 C 104.79956 272.1826 100.67323 263.6846 97.63386 254.77773 C 95.98548 250.40904 95.18535 245.76607 95.27636 241.09762 C 95.27636 238.5409 95.27636 235.98418 95.27636 233.42747 C 94.36035 241.37116 94.64016 249.4073 96.10647 257.26804 C 96.6999 261.42056 97.81553 265.48148 99.42688 269.35435 C 100.30646 271.2549 101.07152 273.20635 101.71797 275.1983 C 103.67095 281.10927 107.4058 286.27078 112.4097 289.97413 C 114.97555 292.07716 117.34297 294.41124 119.48219 296.947 C 122.20275 300.37544 125.1655 303.6045 128.3477 306.6094 C 130.07952 307.9852 132.38263 308.40847 134.49046 307.73835 Z M 211.52408 50.50581 C 208.12274 50.72399 204.82212 51.74832 201.89488 53.494186 C 197.74436 55.85168 193.75987 58.4084 189.64255 60.7991 C 184.96162 63.612895 181.19168 67.717175 178.7848 72.619776 C 176.70834 76.60831 173.68746 80.02817 169.9857 82.58102 C 162.05777 88.67748 155.11445 95.95678 149.39912 104.16372 C 150.2172 103.60272 150.97399 102.95722 151.657 102.23788 C 157.43453 96.69278 163.11244 91.04808 168.98957 85.6358 C 174.8667 80.22353 180.77704 75.34252 186.35534 69.897035 C 190.76885 65.408005 195.5811 61.329264 200.73274 57.71111 Z M 125.9902 307.2071 L 122.37095 304.0859 C 120.67753 305.48047 120.14627 303.75385 119.68141 302.89054 C 118.2817 300.37502 116.1026 298.38236 113.47223 297.21263 C 107.9199 294.32317 103.67138 289.4338 101.58515 283.53252 C 98.99523 277.38976 96.20608 271.3466 93.51654 265.27024 C 93.3207 264.7291 93.16532 264.1742 93.05168 263.61004 L 93.51654 263.3776 L 96.17287 267.46172 C 95.50879 263.57683 94.84471 260.024 94.34665 256.47114 C 93.84858 252.9183 93.2177 249.33225 92.98528 245.713 C 92.75285 242.09375 92.98528 238.70692 92.98528 235.15408 C 92.32119 237.87682 91.5575 240.63277 90.99303 243.4219 C 90.713 245.03283 90.61278 246.66987 90.69419 248.30292 C 90.98723 258.46288 92.74296 268.52757 95.90724 278.18666 C 97.93484 284.6202 101.70447 290.36657 106.7982 294.78873 C 110.8159 298.30837 115.03283 301.42956 118.95092 305.21483 C 120.74091 307.1418 123.45584 307.9102 125.9902 307.2071 Z M 270.29543 170.00754 C 271.29155 148.42485 260.63302 118.4083 249.244 104.36294 C 249.98396 109.62635 251.4361 114.76471 253.56054 119.63685 C 254.8887 122.06075 255.95123 124.58427 257.11338 127.07458 C 257.67785 128.26993 258.40834 129.43207 258.84 130.66063 C 261.1975 136.96941 263.555 143.2782 265.77966 149.6534 C 266.7388 152.60474 267.52596 155.60923 268.13716 158.65172 C 269.00046 162.27098 269.53173 165.89023 270.29543 170.00754 Z M 79.80323 161.97214 C 79.17505 162.36691 78.60507 162.84748 78.10982 163.39992 C 77.04728 164.96051 76.250385 166.72033 75.12144 168.28093 C 71.224165 173.76936 68.127304 179.7842 65.923895 186.14476 C 63.766465 191.66635 63.19153 197.68018 64.26369 203.51053 C 65.95376 211.81306 69.00545 219.77888 73.295215 227.08547 C 73.62344 225.16943 73.24594 223.19937 72.23268 221.54038 C 70.85201 219.05714 69.97208 216.32708 69.64276 213.50498 C 68.91227 208.45795 68.91227 203.2117 68.91227 198.09825 C 68.858465 195.6214 69.01397 193.1444 69.37713 190.69373 C 71.13417 180.58063 74.66376 170.8574 79.80323 161.97214 Z M 188.4472 58.375196 L 188.4472 57.976746 C 188.19415 57.93748 187.93656 57.93748 187.6835 57.976746 C 176.3607 63.358016 166.60853 71.555325 159.36037 81.78412 C 157.999 83.84278 156.57122 85.86823 155.01062 87.79407 C 147.87173 96.69278 140.63323 105.55829 133.49434 114.35739 C 131.33607 117.08013 129.41023 120.0021 127.38477 122.85765 L 128.01565 123.32251 C 129.84188 121.13104 131.66811 118.97277 133.42793 116.68168 C 137.2132 112.0331 140.73284 107.11889 144.81695 102.76914 C 150.46944 96.98115 155.8223 90.90793 160.85455 84.57327 C 167.46167 75.94361 175.15055 68.19893 183.73221 61.52959 C 185.12679 60.66628 186.8866 59.53734 188.4472 58.375196 Z M 91.49109 297.8767 C 89.59845 290.83744 87.97145 284.29622 86.04561 277.95423 C 84.13698 270.95176 83.56253 263.65277 84.3522 256.43794 C 84.88926 251.3423 85.68721 246.27756 86.7429 241.26364 C 87.30737 238.17566 88.4031 235.2205 88.90117 232.1325 C 89.72976 224.9302 91.84406 217.935 95.14354 211.47952 C 95.73897 210.07464 96.16262 208.603 96.4053 207.09658 L 95.80763 206.89735 C 93.91499 211.64554 91.88954 216.36053 90.16292 221.17513 C 89.09072 223.91155 88.34403 226.76457 87.93824 229.6754 C 87.65443 233.76917 86.65419 237.78135 84.98308 241.52928 C 83.55189 244.86506 82.99203 248.50987 83.35607 252.1214 C 83.5553 258.19776 83.82093 264.30732 83.72132 270.38368 C 83.59089 274.2841 84.06125 278.18135 85.11589 281.93873 C 86.21163 285.59118 87.07494 289.27684 87.97145 292.9957 C 88.02957 293.48097 88.02957 293.97143 87.97145 294.4567 L 87.40698 294.4567 C 86.91001 293.6096 86.48783 292.72078 86.14522 291.80036 C 84.91667 287.4174 83.65491 283.03446 82.82481 278.5187 C 82.37002 276.11105 82.15867 273.66375 82.19393 271.2138 C 82.19393 268.0594 82.45956 264.9382 82.45956 261.7838 C 82.45956 258.6294 82.19393 255.77386 82.19393 252.78548 L 81.59625 252.78548 C 81.59625 255.54143 81.1646 258.29737 81.1978 261.0201 C 81.1978 267.66094 81.52984 274.30177 81.62946 280.74338 C 82.11409 285.18884 83.43204 289.50317 85.51434 293.46057 C 85.81669 293.9475 86.23994 294.34786 86.7429 294.6227 C 88.17067 295.65204 89.66486 296.64816 91.49109 297.8767 Z M 284.30758 260.024 C 279.95783 271.97748 283.90913 290.73783 291.7785 296.54855 C 293.65166 291.94235 293.73457 286.80217 292.01094 282.13795 C 289.55383 274.86624 286.9639 267.56133 284.30758 260.024 Z M 265.2484 166.18907 C 263.555 163.66555 261.92798 161.34126 260.4338 159.11658 C 254.7451 151.20452 251.05414 142.0341 249.67565 132.38724 C 248.61312 125.74641 247.94903 119.10558 246.9197 112.46475 C 246.32203 108.71268 245.3591 104.99382 244.4626 100.94291 C 243.79852 107.35131 243.16764 113.29486 242.60317 119.2384 C 242.5738 119.70112 242.64166 120.16487 242.8024 120.59977 C 243.49968 122.52561 244.26337 124.45145 244.99387 126.37729 L 245.49193 126.37729 L 244.363 113.09563 C 245.0259 114.94995 245.515 116.86188 245.82397 118.80675 C 247.31816 127.2406 248.5467 135.70766 250.33973 144.0751 C 252.23237 153.10663 258.1095 160.0131 263.6214 167.08558 Z M 270.52786 291.86677 C 269.79736 290.17335 269.06687 288.54635 268.26997 286.78653 C 267.87152 285.95643 267.6059 284.76108 266.9086 284.42904 C 265.7234 283.6881 264.9041 282.48322 264.65072 281.10862 C 263.96267 278.32014 264.14813 275.38756 265.182 272.70797 C 265.94568 269.98523 266.54336 267.19608 267.10783 264.40694 C 267.83832 260.68807 268.4028 256.936 269.13328 253.21714 C 269.46532 251.55693 270.0298 249.89672 270.52786 248.26972 C 271.69 244.38483 272.91855 240.49995 273.84827 236.58186 C 273.84827 235.98418 273.44982 235.18729 273.2174 234.49 C 272.4451 235.84597 271.8535 237.29712 271.45757 238.80654 C 268.4028 248.30292 265.2816 257.7661 262.29323 267.2625 C 261.17874 270.8004 261.0297 274.57184 261.86157 278.18666 C 263.0716 283.62487 266.13538 288.47294 270.52786 291.89997 Z M 217.40122 101.6402 C 214.8445 106.62082 212.28778 111.60145 209.69786 116.54886 C 207.10793 121.49628 204.01995 127.30701 201.06478 132.58647 C 199.30496 135.74086 197.37912 138.76244 195.48648 141.85042 C 194.55676 143.3114 193.52744 144.73919 192.56452 146.16696 C 206.145 134.21347 215.20974 119.76967 217.46763 101.6734 Z M 176.62652 156.8255 L 177.191 157.722 C 179.6149 156.52666 182.1052 155.36451 184.4627 154.06955 C 185.02814 153.62123 185.47316 153.03929 185.75767 152.37614 C 186.29222 151.2237 186.91383 150.11368 187.6171 149.05572 C 192.63577 143.43453 196.84874 137.14302 200.13506 130.36179 C 201.27134 127.6399 202.6145 125.00907 204.15276 122.4924 C 209.10018 114.78904 213.2507 106.65403 217.43442 98.51901 C 218.86566 95.80964 219.30045 92.68384 218.66298 89.68671 C 216.20587 95.33141 213.88158 101.57379 210.86 107.48413 C 206.7759 115.45313 202.29333 123.1897 197.77757 130.92626 C 192.9581 139.83038 186.69745 147.87499 179.24965 154.73363 C 178.48596 155.3313 177.52304 156.095 176.62652 156.8255 Z M 264.11946 160.47795 C 263.15046 157.57498 261.97422 154.74535 260.5998 152.0109 C 255.12113 142.74694 253.12888 132.35404 250.9374 122.12716 C 248.74593 111.90028 247.21854 101.17534 245.09348 90.74924 C 244.06467 86.75287 242.812 82.81751 241.3414 78.96177 L 240.77694 78.96177 C 240.72368 79.4917 240.72368 80.02564 240.77694 80.55557 C 241.6283 87.15176 243.00512 93.66943 244.89425 100.0464 C 248.5135 109.6756 249.41002 119.96889 250.9374 130.16256 C 252.3 141.33183 256.8798 151.86422 264.11946 160.47795 Z M 123.16785 176.41594 C 122.05441 178.76982 121.17578 181.22775 120.54472 183.75406 C 119.615 189.86362 119.15014 196.0064 118.41965 202.14916 C 118.3017 210.2713 118.94648 218.38657 120.3455 226.38819 C 120.61113 222.70253 121.00958 219.48172 121.04278 216.26092 C 121.0424 207.2858 122.24854 198.35134 124.62883 189.6976 C 124.73177 189.05978 124.73177 188.40958 124.62883 187.77176 C 123.76596 184.0444 123.27655 180.24034 123.16785 176.41594 Z M 96.20608 286.75333 L 96.63773 286.28847 L 94.64548 280.9758 C 91.62146 272.95967 89.76519 264.55054 89.13359 256.0063 C 88.3318 250.04994 88.69263 243.99463 90.19613 238.17566 C 91.12584 235.18729 91.69031 232.0993 92.48721 229.07772 C 93.26356 225.70602 94.22799 222.3804 95.37597 219.11648 C 96.44577 217.03212 96.44577 214.56 95.37597 212.47565 C 94.11422 216.75898 92.71964 220.37824 92.05556 224.1635 C 90.9984 230.87598 89.57963 237.5265 87.80543 244.086 C 87.05727 247.36806 86.52487 250.6956 86.21163 254.04724 C 86.0983 256.6824 86.4697 259.31597 87.30737 261.817 C 88.46684 269.81842 90.94659 277.57184 94.64548 284.76108 C 95.07887 285.4888 95.6033 286.1583 96.20608 286.75333 Z M 93.74897 170.5388 C 91.88954 171.46852 91.72352 172.96271 91.32507 174.29088 C 91.10274 175.50724 90.79201 176.70576 90.39535 177.87693 C 88.46602 182.76912 87.72629 188.04962 88.23708 193.28365 C 88.23708 199.92448 89.29961 206.76453 86.31124 213.20614 C 87.10814 212.40924 87.67261 211.54593 88.3699 210.78224 C 92.50606 206.17359 94.42239 199.98795 93.61615 193.84812 C 93.31732 190.5277 92.81925 187.43972 92.3544 184.21892 C 92.15517 182.99036 91.78993 181.7618 91.49109 180.53326 L 91.78993 180.53326 Z M 290.45034 298.4412 C 286.88975 294.63522 284.194 290.10453 282.54776 285.15953 C 281.0953 279.36398 279.98657 273.48767 279.22734 267.56133 C 279.12703 264.891 279.2158 262.21693 279.49298 259.55913 C 279.55418 256.58197 280.2089 253.64696 281.4188 250.92605 C 281.9669 249.5189 282.3783 248.06227 282.64737 246.5763 C 283.0126 244.75008 282.34853 243.4219 280.09065 242.72463 C 279.89143 244.68367 279.7586 246.5431 279.5594 248.40254 C 278.69608 256.73678 277.79956 265.0046 277.00266 273.40526 C 276.83942 274.7284 276.83942 276.0666 277.00266 277.38976 C 278.5976 285.2642 282.29185 292.56092 287.6944 298.5076 C 288.5245 299.50372 289.3546 299.57013 290.45034 298.4412 Z M 121.64046 70.92636 C 112.37474 78.88186 104.40925 88.23655 98.0323 98.65183 C 91.15905 109.37677 90.26254 121.56269 88.07106 133.44978 C 89.32931 130.88774 90.33033 128.20722 91.05943 125.44758 C 92.05556 121.5959 92.55362 117.6114 93.54975 113.75972 C 94.94407 106.94392 98.1962 100.64652 102.94652 95.56384 C 105.50556 92.88391 107.735 89.90762 109.58735 86.69833 C 110.7495 84.87211 111.94484 83.01267 113.30621 81.28606 C 115.99575 77.73321 118.71849 74.34639 121.64046 70.92636 Z M 97.40143 117.6114 C 99.02843 114.29098 100.55582 110.97057 102.31564 107.98219 C 105.63606 101.93904 108.95647 95.89588 112.84136 90.05195 C 115.73012 85.6026 119.24976 81.55169 122.33774 77.20195 C 125.42573 72.852205 128.08206 68.8345 130.93762 64.617576 C 115.1812 78.93193 103.59277 97.24395 97.40143 117.6114 Z M 309.50953 215.76286 L 309.77516 215.76286 C 310.40604 213.13973 311.0037 210.4834 311.701 207.89348 C 312.42095 206.18112 312.92294 204.3851 313.1952 202.5476 C 313.1952 195.04347 312.86314 187.50613 312.3651 180.002 C 312.03304 175.08778 311.23614 170.04075 310.50565 165.29255 C 309.33688 155.80858 305.6318 146.81541 299.7807 139.2605 C 297.95448 136.96941 295.86262 134.87755 293.90358 132.61967 C 295.1706 134.99412 296.6962 137.22125 298.45254 139.2605 C 303.2923 145.22301 306.56777 152.29894 307.98213 159.84707 C 310.8553 174.62688 311.75966 189.72196 310.67167 204.73908 C 310.47245 208.45795 309.90798 212.0772 309.50953 215.76286 Z M 141.1645 88.62418 L 142.16062 89.52069 C 144.30389 86.83466 146.58707 84.26331 149.00067 81.81732 C 153.63588 77.55609 157.88078 72.88893 161.68466 67.87158 C 162.84512 66.482015 164.07525 65.152144 165.37032 63.887085 C 168.60471 60.76928 172.34308 58.2209 176.4273 56.34974 C 184.63617 51.66445 193.77044 48.83124 203.18984 48.048706 C 204.21917 48.048706 205.2153 47.74987 206.24462 47.58385 C 202.4752 46.736346 198.55006 46.885113 194.8556 48.0155 C 190.37304 49.642505 185.89048 51.13669 181.37472 52.63088 C 174.403 54.987426 168.00138 58.776375 162.58117 63.75427 C 159.0318 67.215304 155.70475 70.89724 152.61993 74.778045 C 148.60222 79.36022 144.98297 84.0088 141.1645 88.62418 Z M 294.70048 157.6888 C 294.70048 158.5189 294.70048 159.38221 294.70048 160.21232 C 294.9993 164.0972 295.46417 167.98209 295.6302 171.86697 C 295.27753 175.1792 295.8886 178.5228 297.39 181.49618 C 297.73725 182.1683 297.95147 182.90113 298.0209 183.65445 C 298.7846 187.77176 299.6147 191.85587 300.24557 195.97319 C 300.77683 199.49283 301.10888 203.04567 301.54053 206.59851 C 302.0054 201.15303 302.43704 195.74076 302.47025 190.32848 C 302.52892 186.91832 302.1495 183.51474 301.3413 180.20122 C 299.44867 172.63067 297.02477 165.29255 294.70048 157.6888 Z M 290.41714 141.08673 L 302.33743 176.98041 C 304.82376 163.74347 300.34897 150.15618 290.48355 140.98712 Z M 289.255 187.07447 L 288.92295 187.07447 C 288.32528 192.1547 287.46197 197.03572 287.16313 202.28197 C 286.837 206.4642 286.926 210.66846 287.42877 214.83314 C 289.01736 223.54343 291.83462 231.98404 295.7962 239.90227 C 296.54854 241.3846 297.37984 242.82553 298.28652 244.2188 C 296.8584 239.98526 295.8899 235.61034 295.39776 231.16958 C 295.0983 228.43517 294.42807 225.75423 293.4055 223.2006 C 289.7603 215.49962 288.12668 207.0003 288.65732 198.4967 C 288.88975 194.57861 289.08897 190.79334 289.3214 186.97486 Z M 194.29113 86.36629 C 182.00864 94.84614 171.66476 105.8351 163.94254 118.60752 C 175.48068 109.29362 185.6914 98.44612 194.29113 86.36629 Z M 262.42604 90.08516 C 260.05378 83.89006 256.02153 78.46777 250.7714 74.4128 C 246.00223 69.79417 240.58907 65.89087 234.70058 62.82455 C 235.6967 65.082434 236.56 66.775846 237.1909 68.535665 C 237.82177 70.295485 240.31208 70.49471 241.67345 71.85608 C 242.30433 72.42055 243.03482 72.88541 243.6989 73.44988 L 257.64465 85.73541 C 259.27165 87.06358 260.83224 88.59097 262.42604 90.08516 Z M 293.60474 303.55463 C 296.16255 302.98924 298.53737 301.7904 300.5112 300.0682 C 302.73042 298.66796 304.1015 296.2499 304.16366 293.6266 C 304.16366 292.9625 304.16366 292.29842 304.3629 291.63434 C 305.3563 284.64135 303.68523 277.5304 299.6811 271.71185 C 296.6263 267.2625 293.3391 262.91275 290.1183 258.4302 C 289.3546 257.40086 288.4913 256.43794 287.6612 255.44182 C 289.91908 260.1568 292.74143 264.53975 295.0325 269.18833 C 297.3236 273.8369 299.6479 279.382 301.67335 284.56185 C 304.26327 291.2027 302.9351 295.65204 297.39 300.2342 C 296.29427 301.16393 295.19854 302.19326 293.63794 303.55463 Z M 107.66151 155.3313 C 115.39808 149.08893 138.64098 120.63297 139.6371 116.15041 C 138.47552 117.76838 137.21116 119.31001 135.85183 120.76579 C 129.66336 126.84973 123.80021 133.25597 118.28684 139.95779 C 114.30234 144.63957 109.81978 148.95611 107.66151 155.3313 Z M 299.51508 226.68702 C 299.7807 222.70253 300.21236 219.01686 300.17916 215.298 C 300.14596 211.57914 299.7807 207.89348 299.44867 204.20781 C 299.11663 200.52215 298.75138 196.63727 298.1537 192.8852 C 297.89494 189.43383 297.283 186.01808 296.32748 182.69153 C 296.16146 189.16634 296.09505 195.97319 295.7962 202.61402 C 295.00737 210.82296 296.28584 219.0988 299.51508 226.68702 Z M 206.145 100.90971 L 205.68015 100.54446 C 200.79914 107.91579 196.15056 115.41992 191.03712 122.59202 C 185.84075 129.64176 181.08354 137.00488 176.79255 144.63957 C 190.17382 132.48685 198.40845 116.74809 206.145 100.90971 Z M 86.61008 266.3992 L 86.07881 266.5984 C 86.27804 268.1922 86.34445 269.91882 86.67649 271.3466 C 87.44018 274.96585 88.23708 278.5851 89.23321 282.13795 C 90.7938 287.68304 92.55362 293.26134 94.34665 298.74002 C 95.5752 302.22646 98.96202 303.68744 102.0168 305.38085 C 102.05716 304.91116 101.96514 304.43955 101.75117 304.0195 C 99.26086 298.80643 96.73734 293.59338 94.28024 288.34713 C 91.57952 283.44608 89.50464 278.22543 88.10427 272.8076 C 87.5398 270.5829 86.97532 268.49105 86.47726 266.3992 Z M 141.39692 282.5696 C 145.75395 278.14027 147.41267 271.72068 145.74667 265.7351 C 143.63813 257.8329 140.5012 250.24177 136.4163 243.15628 C 135.5862 241.5957 134.49046 240.1679 133.49434 238.70692 L 132.89666 238.93935 L 135.98465 249.53148 L 137.71126 248.53535 C 138.54137 251.2249 139.43788 253.7484 140.06876 256.30512 C 141.2309 260.9869 142.45946 265.7019 143.38917 270.4501 C 143.86909 274.59973 143.1307 278.79934 141.2641 282.5364 Z M 259.83612 80.8544 L 259.43767 81.21965 C 260.00214 82.14937 260.5998 83.07908 261.13108 84.042 C 264.2687 89.91439 267.96006 95.47365 272.15486 100.64408 C 273.9579 102.8746 275.16854 105.52428 275.6745 108.34744 C 276.77978 112.30034 278.74087 115.9618 281.4188 119.07238 C 282.2785 119.92522 283.23716 120.6721 284.27437 121.29706 C 282.91038 118.81271 281.69087 116.25174 280.6219 113.6269 C 277.41472 104.25537 272.61867 95.50567 266.44375 87.76087 C 264.4183 85.27056 262.0276 83.14549 259.83612 80.8544 Z M 242.50355 123.48853 C 241.21423 124.33524 240.67778 125.95834 241.2086 127.40662 C 243.27406 132.92808 244.5159 138.72339 244.89425 144.60637 C 245.04284 146.30619 245.3655 147.98627 245.85717 149.6202 C 247.173 154.4727 249.07992 159.1452 251.53508 163.53273 C 254.3931 167.85789 257.49727 172.01526 260.83224 175.98429 C 261.9612 174.72253 261.9612 173.99204 260.83224 172.8631 C 256.10493 168.01727 252.42095 162.25399 250.0077 155.92898 C 248.64632 151.77846 247.11893 147.69435 246.0232 143.47743 C 245.39232 141.02032 245.55834 138.36399 245.09348 135.87368 C 244.3962 131.72316 243.40007 127.60585 242.50355 123.48853 Z M 217.2684 52.132816 L 216.70393 52.33204 C 216.70393 52.763695 216.70393 53.22855 216.70393 53.66021 C 216.70393 57.84393 216.70393 62.02765 216.70393 66.17817 C 216.73512 69.90186 216.05907 73.59762 214.71168 77.06913 C 211.74545 83.84278 208.746 90.61642 205.71336 97.39007 C 205.2485 98.4526 204.65083 99.48193 204.08636 100.54446 C 207.59067 98.01002 210.33496 94.5653 212.02215 90.58322 C 213.41672 86.46591 214.8113 82.28218 216.5047 78.26448 C 218.19812 74.24678 217.50083 69.69781 217.76646 65.248455 L 219.26065 66.01215 C 218.9286 61.82843 218.69618 57.94354 218.29773 54.09186 C 218.06006 53.38207 217.7005 52.71914 217.2352 52.132816 Z M 316.4824 251.3577 L 317.3789 251.3577 C 317.60695 250.79598 317.79556 250.21904 317.94338 249.6311 C 317.94338 248.0041 317.94338 246.31067 318.2422 244.78328 C 318.9063 236.9139 319.7032 229.04452 320.26767 221.14193 C 320.76573 214.00304 320.99816 206.86415 321.3634 199.72525 C 321.52943 196.40484 321.76186 193.08443 321.9611 189.764 C 321.3634 192.0551 320.99816 194.34618 320.5665 196.63727 C 318.80362 205.62782 317.92505 214.76934 317.94338 223.93108 C 317.94338 226.68702 317.94338 229.47617 317.74415 232.23212 C 317.3125 238.04284 316.78123 243.82036 316.28317 249.5979 C 316.29834 250.21113 316.365 250.82202 316.4824 251.4241 Z M 239.6148 72.58657 L 238.8511 73.21745 C 240.77694 75.60815 241.57384 78.56332 244.72823 80.45595 C 252.18767 84.91746 258.57974 90.95819 263.45537 98.15377 C 266.0121 101.83943 268.63522 105.49188 271.22514 109.17754 C 269.98767 104.70271 268.00046 100.47008 265.348 96.65958 C 260.01992 90.3263 254.0932 84.52189 247.6502 79.32701 C 244.89425 77.03593 242.27113 74.81125 239.6148 72.58657 Z M 119.88064 286.68692 L 120.51151 286.15565 C 121.3896 286.95056 122.20034 287.81683 122.93542 288.74558 C 124.16397 290.5718 125.2597 292.46444 126.25583 294.39028 C 128.15975 298.46367 131.1753 301.9166 134.95532 304.35153 C 136.58232 305.28124 137.9437 306.70902 139.50429 307.67194 C 140.28324 308.08704 141.10781 308.4102 141.9614 308.63486 C 132.83025 302.32607 128.08206 292.232 120.71074 284.62826 L 116.52702 286.72012 C 119.34937 293.36095 126.0234 301.16393 129.37702 302.25966 Z M 193.75987 112.76359 L 193.42782 112.49796 C 189.44333 116.98052 185.42562 121.39667 181.50753 125.77962 C 179.98794 127.59302 178.5691 129.4885 177.2574 131.45753 C 176.09526 133.18414 175.23195 135.10998 173.93699 136.70378 C 171.91154 139.2273 169.62045 141.51838 167.46218 143.94229 C 164.60662 147.2627 161.75107 150.31748 158.96192 153.57149 C 158.54813 154.14354 158.1922 154.75529 157.89938 155.39772 L 158.26463 155.89578 C 158.8955 155.66335 159.6924 155.63015 160.09086 155.1985 C 164.79117 150.36286 169.22494 145.2751 173.37252 139.95779 C 178.8512 132.32083 184.3631 124.68388 190.30663 117.41217 C 191.5684 116.0176 192.63092 114.35739 193.75987 112.76359 Z M 103.74342 153.80392 L 104.3743 154.16916 C 106.8314 150.4171 109.32172 146.63182 111.77882 142.84655 C 112.50931 141.75081 113.04058 140.48905 113.83748 139.52613 C 116.65983 135.80727 119.5486 132.15481 122.40415 128.46915 C 122.76695 127.92335 123.09949 127.35802 123.40028 126.77574 C 124.86126 124.35184 126.32224 121.86153 127.84963 119.47083 C 128.94537 117.77742 130.14072 116.15041 131.17005 114.4902 C 127.84963 117.81062 124.52922 120.8654 121.47443 124.28543 C 118.1747 127.86006 115.38159 131.87097 113.1734 136.20572 C 110.58347 141.51838 107.49549 146.56541 104.63993 151.71206 C 104.4075 152.30973 104.10866 153.07343 103.74342 153.80392 Z M 126.98632 278.68472 C 125.75777 280.0461 126.98632 280.57736 127.35157 281.10862 C 131.24752 285.80148 135.16561 290.3615 139.10584 294.78873 C 141.12445 297.22493 143.79714 299.0336 146.8092 300.0018 C 152.08866 301.56238 157.36812 303.08977 162.68078 304.58395 C 162.68078 304.58395 162.91321 304.58395 163.34487 304.0859 L 153.71566 300.1014 C 150.39525 298.77323 147.07483 297.54468 144.02005 296.0173 C 141.71986 294.96302 140.07367 292.85887 139.6039 290.37258 C 139.3489 289.45845 138.77076 288.66794 137.9769 288.1479 C 134.46359 285.97654 131.3241 283.2519 128.67973 280.0793 C 128.18644 279.57275 127.65348 279.1064 127.08594 278.68472 Z M 229.81957 52.66408 L 229.52073 53.162145 C 230.23147 53.62514 230.975 54.03575 231.7454 54.3907 C 236.3298 56.508614 240.63473 59.18525 244.5622 62.359694 C 245.749 63.15618 246.77424 64.17016 247.5838 65.34807 C 252.69723 73.18425 259.93573 78.89536 266.8422 85.00492 C 266.55373 84.37034 266.1482 83.79583 265.64685 83.31151 C 259.99287 78.32983 255.29994 72.35394 251.80072 65.68011 C 251.22063 64.58247 250.37615 63.646694 249.3436 62.95737 C 244.4958 59.93579 239.648 56.98062 234.66738 54.22468 C 233.11348 53.52848 231.4878 53.00514 229.81957 52.66408 Z M 259.43767 273.07322 C 259.10563 275.86237 258.70718 278.68472 258.47475 281.47387 C 258.5238 282.2254 258.80192 282.94384 259.27165 283.53252 C 262.8577 288.9116 266.44375 294.32387 270.1626 299.63654 C 270.99695 301.33393 272.55588 302.5615 274.4016 302.97455 C 276.24733 303.38758 278.18078 302.9415 279.659 301.7616 C 269.03367 295.12077 260.30098 287.11857 259.43767 273.07322 Z M 266.27772 159.94669 C 266.27772 154.26878 257.213 129.13324 252.63082 121.6291 C 255.01912 135.07118 259.6313 148.02115 266.27772 159.94669 Z M 275.07682 275.09867 C 275.27605 272.74118 275.40887 270.94815 275.5749 269.15513 C 275.90693 265.8347 276.20576 262.5143 276.6042 259.19388 C 277.24616 253.63772 277.91024 248.1037 278.59646 242.5918 C 278.7378 242.07647 278.6662 241.52595 278.39772 241.06392 C 278.12924 240.60189 277.6864 240.26708 277.1687 240.1347 C 275.90693 246.07825 274.37954 251.75616 273.54943 257.53368 C 272.35313 263.41084 272.8718 269.50803 275.04362 275.09867 Z M 319.30475 188.53546 L 319.90242 188.53546 C 319.90242 186.57641 320.16806 184.58416 319.90242 182.65832 C 319.67 179.3379 319.30475 176.21672 318.8067 173.02912 C 318.3707 170.31987 317.7832 167.63719 317.04687 164.99372 C 315.91793 160.8764 314.55656 156.8255 313.3612 152.74139 C 312.16586 148.65727 311.40216 145.40327 310.37283 141.75081 C 310.02794 140.8207 309.6059 139.92106 309.11108 139.06128 C 310.2068 143.01257 309.90798 147.2959 312.13265 150.88195 C 312.4436 151.4695 312.63545 152.1127 312.69712 152.77459 C 313.3612 157.09113 313.89247 161.44087 314.68937 165.7242 C 316.24997 173.22834 317.94338 180.8653 319.30475 188.53546 Z M 199.10573 84.63968 C 190.40625 97.45648 182.50366 110.93736 171.18104 121.82832 C 183.82937 112.33286 193.51472 99.43442 199.10573 84.63968 Z M 258.8732 237.54478 C 257.379 240.1679 256.18366 242.32618 254.9219 244.45124 C 253.44897 246.79927 252.60297 249.48588 252.4648 252.25422 C 252.4648 256.33833 252.19917 260.45564 251.96674 264.53975 C 251.7343 268.62386 251.43547 272.1103 251.20304 275.53033 C 252.7598 272.71815 253.42015 269.49746 253.09568 266.29957 C 252.91134 262.3833 253.6984 258.4822 255.38676 254.94375 C 258.1759 249.49827 258.0099 243.65434 259.00602 237.54478 Z M 294.0696 300.63266 C 300.24557 296.74778 303.49957 291.4683 299.48187 284.32942 C 299.30413 287.02477 298.97154 289.70767 298.48575 292.36483 C 297.8424 294.99585 296.33396 297.33453 294.2024 299.00566 C 294.8665 297.8103 295.29815 296.9802 295.763 296.2165 C 297.28973 293.68955 298.11498 290.80117 298.1537 287.84906 C 298.41934 282.07154 295.96223 276.9249 294.56766 271.54583 C 294.02162 270.16847 293.3079 268.86367 292.4426 267.66094 C 292.3818 268.98275 292.585 270.3034 293.04027 271.54583 C 294.1692 275.46392 295.46417 279.3488 296.3607 283.3001 C 297.45854 286.78868 297.09928 290.57294 295.36456 293.7926 C 294.56766 295.18718 293.97 296.68137 293.2395 298.20876 Z M 110.84911 78.96177 L 111.6128 78.49691 C 115.5973 75.34252 118.25363 70.59432 123.5663 69.06693 C 123.5663 69.06693 123.83193 68.8013 123.96475 68.66848 C 127.01953 65.812925 130.27353 63.15659 133.06268 60.0354 C 138.00856 54.66864 144.08844 50.47171 150.8601 47.74987 C 153.1827 46.516766 155.21044 44.794893 156.80365 42.70284 C 147.34047 45.75762 115.73012 70.72714 110.84911 78.96177 Z M 249.54283 71.78967 C 243.83172 62.02765 234.8002 56.8146 224.77254 52.929716 C 226.7648 54.95517 229.05587 56.64858 230.98172 58.67403 C 232.5463 60.13075 234.2997 61.37042 236.19477 62.359694 C 239.51518 64.31874 242.53676 66.51021 245.65795 68.63528 C 246.9861 69.66461 248.21467 70.693935 249.57604 71.69006 Z M 169.85288 106.68723 C 161.08698 115.88478 150.95972 123.95339 146.21152 136.37174 C 154.0809 126.4437 163.34487 117.6778 169.75327 106.58762 Z M 235.99554 87.86048 C 236.4272 93.97004 237.02487 100.17922 237.2573 106.4216 C 237.48973 112.66398 237.2573 119.03917 237.2573 125.31476 C 240.94296 118.80675 239.84722 95.29821 235.89593 87.76087 Z M 159.626 89.15544 C 162.01164 86.87612 164.56441 84.77841 167.26295 82.87986 C 174.16942 78.696135 177.55624 71.78967 181.44113 65.21525 C 173.19161 72.13862 165.88037 80.10844 159.6924 88.92301 Z M 142.65868 300.43344 C 137.67806 297.11302 134.8225 291.9996 131.20325 287.55023 C 129.31061 285.22594 127.21875 283.03446 125.29291 280.9094 C 123.6327 281.7395 123.46668 282.6028 124.49601 283.93097 C 126.66992 286.58197 128.6771 289.3654 130.50596 292.2652 C 133.35866 296.4465 137.70972 299.371 142.65868 300.43344 Z M 286.167 239.3046 C 288.31168 245.77812 293.71475 250.63836 300.3784 252.0882 C 302.2127 252.59048 304.0193 253.18898 305.79066 253.88122 C 307.7565 254.62735 309.96277 254.36706 311.701 253.18393 C 308.3806 251.85577 305.06017 252.28742 302.30423 250.29517 C 299.54828 248.30292 296.6263 247.17398 293.97 245.38096 C 291.31365 243.58793 288.85655 241.42966 286.167 239.3046 Z M 137.67806 160.27873 C 147.24085 150.31748 154.57897 138.4968 163.5773 128.13711 C 157.79977 130.72703 141.62935 152.0109 137.67806 160.27873 Z M 308.613 279.54803 C 306.62878 272.15355 303.53916 265.10115 299.44867 258.6294 C 298.8 257.68027 298.0171 256.83025 297.12438 256.1059 C 294.8001 254.14685 292.4094 252.28742 290.0519 250.428 C 290.0519 250.428 289.75306 250.428 289.3546 250.69362 C 296.77658 259.60352 303.2322 269.2758 308.613 279.54803 Z M 245.52513 300.33382 C 250.96062 297.37895 254.71488 292.06655 255.6856 285.95643 C 256.34968 281.90552 256.91415 277.8214 257.54503 273.7705 L 256.84775 273.6045 C 256.11726 275.53033 255.28715 277.42296 254.62307 279.382 C 252.59762 285.39196 251.30265 291.73395 247.6502 297.0466 C 246.7537 298.10915 246.0896 299.2381 245.39232 300.33382 Z M 190.37304 158.65172 C 193.63323 158.72886 196.6905 157.07389 198.40845 154.30198 C 201.2308 149.587 204.58442 145.17084 207.7056 140.62187 C 209.1666 138.4636 210.59437 136.27213 212.02215 133.98104 L 211.6901 133.74861 Z M 185.12679 127.77187 L 184.56232 127.40662 C 182.53686 130.16256 180.445 132.8853 178.48596 135.70766 C 175.34449 140.60468 171.68173 145.14694 167.5618 149.25495 C 165.1711 151.51283 163.07923 154.10276 160.92096 156.55986 L 163.6105 157.48958 C 172.67523 148.69048 177.9879 137.6335 185.12679 127.77187 Z M 114.70079 284.46224 L 115.39808 284.46224 C 115.9178 283.49388 116.24481 282.4339 116.361 281.34105 C 116.1967 278.93425 115.22576 276.65314 113.60505 274.86624 C 110.28464 271.2802 106.96422 267.49492 103.64381 263.80926 C 103.64381 263.80926 103.37817 263.80926 103.07934 263.80926 C 105.80208 271.54583 110.94872 277.58898 114.70079 284.46224 Z M 273.58264 148.32523 L 274.54556 148.32523 C 274.1139 144.47355 273.84827 140.58867 273.2174 136.73699 C 272.46586 131.11607 270.74707 125.66764 268.13716 120.63297 C 267.12815 118.97344 266.0193 117.3767 264.81674 115.85158 L 264.35188 116.15041 C 267.33227 122.23978 269.4233 128.72536 270.56106 135.40882 C 271.22514 139.82497 272.5533 144.0087 273.58264 148.22562 Z M 103.77662 179.66995 L 94.7451 184.68378 L 96.13967 199.92448 C 96.98971 197.77382 97.64534 195.55133 98.09871 193.28365 C 98.56357 190.85975 98.8292 188.40264 99.32727 185.97874 C 99.52649 185.01582 99.5597 183.65445 101.38592 183.45522 L 100.3566 188.36944 L 100.88786 188.36944 Z M 312.79674 207.2626 C 309.9873 217.9876 309.71447 229.21954 311.99984 240.0683 C 312.4728 238.23406 312.7291 236.3507 312.76353 234.4568 C 312.82994 225.29245 312.79674 216.1613 312.79674 207.2626 Z M 263.6546 210.74903 C 260.5394 216.13953 258.298 221.98959 257.01377 228.0816 C 256.27276 232.6122 255.09403 237.06026 253.49413 241.36326 C 253.1621 242.22656 252.99607 243.15628 252.73043 244.0528 C 255.3451 241.3064 257.06952 237.83444 257.67785 234.09155 C 258.5229 228.94618 259.80026 223.8812 261.49633 218.95046 C 262.35964 216.26092 262.9573 213.47177 263.6546 210.74903 Z M 309.84157 298.6072 C 308.53626 300.5437 307.08193 302.3755 305.49182 304.0859 C 302.414 307.15536 298.216 308.83455 293.87037 308.73447 C 292.81645 308.72283 291.76285 308.77828 290.71598 308.9005 C 289.68665 308.9005 288.69052 309.16613 287.6612 309.33215 L 287.6612 310.09584 C 291.84492 310.09584 295.99544 310.39468 300.17916 310.36148 C 301.90833 310.58326 303.6355 309.93712 304.79454 308.63486 C 305.85707 307.17388 306.986 305.7461 308.11495 304.35153 C 309.5717 302.82055 310.2128 300.68764 309.84157 298.6072 Z M 246.156 264.0749 C 246.096 258.2356 247.32024 252.4545 249.74206 247.14078 C 251.07022 243.82036 252.13276 240.49995 253.3281 236.9139 C 253.56054 236.28302 253.66015 235.61894 253.82617 234.95486 C 251.53508 238.5409 249.60924 242.25977 247.55059 245.87902 C 245.51114 249.57136 244.67536 253.8083 245.1599 257.99853 C 245.3259 260.024 245.82397 262.04944 246.156 264.0749 Z M 307.41766 263.278 C 311.07012 274.5674 316.416 285.42516 317.11328 297.6111 C 317.5166 296.43725 317.79484 295.2241 317.94338 293.99183 C 317.9944 289.9923 317.26116 286.02152 315.7851 282.30397 C 313.83852 275.6239 311.02545 269.2275 307.41766 263.278 Z M 82.19393 216.0949 C 84.59834 213.48814 86.15051 210.21004 86.64328 206.69813 C 86.87571 201.31905 86.64328 195.93998 86.64328 190.09605 C 84.98894 194.21723 84.10002 198.60556 84.02016 203.04567 C 84.02016 206.36608 83.28966 209.42087 82.82481 212.60846 C 82.62558 213.7374 82.19393 214.93275 82.19393 216.0949 Z M 270.29543 303.2226 C 268.23677 299.90217 266.24452 296.947 264.25227 293.859 C 262.26002 290.77103 260.20137 287.78266 258.1759 284.66147 C 256.96482 286.33053 257.1628 288.63564 258.64077 290.07374 C 259.81365 291.41506 260.77644 292.9264 261.49633 294.5563 C 263.1129 298.5321 266.2955 301.66667 270.29543 303.2226 Z M 306.52115 286.15565 C 306.52115 288.57956 306.52115 290.27297 306.52115 291.9996 C 306.7439 296.2932 304.53675 300.34817 300.81004 302.4921 C 297.92128 304.0859 294.9993 305.58008 292.64182 306.84184 C 297.87088 307.4786 303.0139 305.12177 305.9456 300.74527 C 308.87728 296.36878 309.09978 290.71583 306.52115 286.12245 Z M 266.0121 198.33068 C 268.78494 194.68071 270.1521 190.15498 269.86377 185.58029 C 269.86377 182.62512 269.53173 179.70315 269.1997 176.78119 C 268.86765 173.85922 268.33638 171.56814 267.87152 168.945 C 267.6391 173.89243 267.50628 178.90625 267.6723 183.62124 C 267.81067 188.57795 267.2518 193.52951 266.0121 198.33068 Z M 166.20042 38.817953 C 177.62265 36.294438 188.81245 39.482036 200.06865 40.444956 C 189.26001 36.21782 177.3645 35.64637 166.20042 38.817953 Z M 277.89918 223.96428 C 277.36544 229.10715 278.39535 234.29142 280.85435 238.83974 C 281.9431 240.74106 283.6558 242.20741 285.70215 242.99026 Z M 76.58243 253.48277 C 76.84806 251.3577 77.11369 249.19944 77.44573 247.07437 C 77.77778 244.9493 78.24263 242.39259 78.60788 240.0683 C 78.76002 238.26921 79.03739 236.48293 79.43798 234.72243 C 80.71503 229.5432 81.29568 224.2168 81.1646 218.88405 C 78.87351 230.33948 75.5531 241.6621 76.58243 253.48277 Z M 92.45401 129.29926 C 88.26325 138.79673 84.83246 148.61167 82.19393 158.65172 C 82.59238 158.08725 82.89121 157.75521 83.12364 157.38997 C 86.18611 152.70552 88.24383 147.43687 89.1668 141.91683 C 89.97165 137.64051 91.06999 133.42469 92.45401 129.29926 Z M 126.48826 75.30931 C 131.0353 68.73197 136.9188 63.18791 143.75442 59.03928 C 145.9459 57.67791 148.03775 56.15052 150.19602 54.689536 C 137.71126 59.03928 132.76384 63.721064 126.48826 75.30931 Z M 97.33502 289.0444 L 96.67094 289.47607 C 98.96202 294.25746 101.2199 299.07207 103.5774 303.85346 C 104.73954 306.21096 105.47003 306.4766 108.29239 305.97853 C 106.53257 303.15618 104.97197 300.2674 103.04613 297.51147 C 101.12029 294.75553 99.26086 291.83356 97.33502 289.0444 Z M 171.51309 43.632554 L 177.09138 43.234105 C 178.41955 43.234105 179.74771 43.001675 181.07588 43.001675 C 182.40405 43.001675 184.3963 43.300513 186.0897 43.2009 C 194.239 42.31351 202.48356 43.0815 210.32873 45.45878 C 210.72718 45.45878 211.19204 45.69121 212.02215 45.890436 C 206.8423 41.77312 180.77704 40.179323 171.51309 43.632554 Z M 276.70383 306.37698 C 278.7957 307.3067 280.4227 308.53525 282.31533 306.74222 C 282.71378 306.34377 283.5771 306.4434 284.20796 306.27737 C 287.3124 305.6769 290.18082 304.20237 292.4758 302.02724 C 286.92457 302.0441 281.47895 303.54596 276.70383 306.37698 Z M 76.814855 185.6799 C 74.62025 194.95508 74.12525 204.55128 75.35387 214.00304 C 76.21618 210.39313 76.62883 206.69044 76.58243 202.97926 C 76.3832 200.1569 76.250385 197.30135 76.31679 194.4458 C 76.3832 191.59024 76.64883 188.53546 76.814855 185.6799 Z M 136.94757 300.46664 C 139.21876 304.14803 142.764 306.86605 146.90881 308.1036 C 148.30339 308.70127 150.22923 307.83796 152.08866 307.63874 L 152.08866 307.04106 Z M 304.29647 240.69917 L 304.96056 240.69917 L 302.33743 216.39374 C 302.074 217.18618 301.93946 218.01576 301.93898 218.85084 C 301.93898 222.66932 301.93898 226.4878 301.54053 230.27307 C 301.23986 232.13897 301.4345 234.05112 302.105 235.81816 C 302.8355 237.34555 303.566 238.97256 304.29647 240.63277 Z M 82.7916 147.2295 C 83.15362 146.37448 83.46408 145.49853 83.72132 144.60637 C 84.71744 139.79177 85.68036 134.97717 86.64328 130.16256 C 86.87571 129.03362 87.07494 127.93789 87.27416 126.84215 L 87.80543 123.85378 C 83.8832 130.98735 82.13994 139.11487 82.7916 147.2295 Z M 105.43683 296.44894 L 105.07159 296.8142 C 106.69859 299.3709 108.392 301.96083 110.019 304.45114 C 111.81748 306.99916 115.14674 307.95236 118.0212 306.74222 Z M 102.11642 114.4238 L 117.52314 87.86048 C 110.84902 95.72844 105.63175 104.72374 102.11642 114.4238 Z M 264.4183 216.39374 L 268.5024 207.06337 C 269.1133 206.01088 269.614 204.8982 269.9966 203.74296 C 270.59426 200.821 270.9927 197.83262 271.45757 194.87745 C 267.83836 201.56874 265.45387 208.85718 264.4183 216.39374 Z M 293.47192 281.14183 L 294.0364 280.9426 C 291.47967 272.27632 289.75306 263.3444 285.3369 255.14298 C 284.6048 256.53575 284.6048 258.19956 285.3369 259.59233 C 287.16313 263.84247 288.95616 268.1258 290.64957 272.44234 C 291.6125 275.2979 292.509 278.18666 293.50513 281.14183 Z M 138.40855 57.644705 C 145.62244 54.78285 152.45817 51.047174 158.7627 46.521315 C 151.26383 48.738675 144.32455 52.53094 138.40855 57.644705 Z M 250.70498 151.18079 C 252.76728 158.81475 256.81088 165.76791 262.42604 171.3357 C 262.9573 169.50948 262.9241 169.54268 262.0276 168.24772 C 257.64154 162.98923 253.8447 157.26613 250.70498 151.18079 Z M 78.87351 265.20384 C 77.18479 267.0758 76.50456 269.6483 77.04728 272.1103 C 77.04728 273.43846 77.24651 274.76663 77.34612 276.0948 C 77.52709 280.17526 78.66447 284.1561 80.66654 287.71625 C 78.37545 280.2453 80.23488 272.64156 78.87351 265.20384 Z M 223.87603 69.53179 L 229.12228 98.15377 C 229.34767 88.35486 227.56217 78.61374 223.87603 69.53179 Z M 303.86482 214.5675 L 304.4293 214.5675 L 305.4254 175.2538 L 304.66172 175.2538 C 305.2926 188.33623 302.73588 201.38546 303.86482 214.5675 Z M 285.9678 251.95538 C 288.22567 254.4789 290.1515 256.57076 292.01094 258.5962 C 293.53285 261.11024 295.5836 263.26297 298.0209 264.905 C 294.9661 258.76223 290.0851 254.6117 286.59866 248.76778 Z M 132.96307 121.33026 L 149.56514 101.14214 L 149.06708 100.74369 C 142.64316 106.71014 137.20747 113.65886 132.96307 121.33026 Z M 93.68256 119.33801 L 103.14574 97.05803 C 97.93671 103.42086 94.65353 111.13922 93.68256 119.30481 Z M 180.5114 39.648056 C 172.74742 38.96095 164.95723 40.63937 158.16502 44.46266 Z M 211.6901 137.6999 L 199.10573 155.63015 L 199.637 155.9954 C 205.04907 150.93932 209.18053 144.66815 211.6901 137.6999 Z M 163.44448 307.2403 L 163.6769 306.94145 L 147.50649 302.32607 C 149.36592 305.18163 152.95197 304.71677 154.64538 307.2071 Z M 307.8161 137.40107 C 306.25552 130.4614 302.47025 124.75029 298.31973 123.02367 Z M 137.41243 285.59118 C 140.78479 281.12602 142.17714 275.47262 141.2641 269.95203 C 140.92314 275.19963 138.83012 280.1808 135.32056 284.097 Z M 315.8183 301.42956 L 313.59364 288.41353 C 314.0838 293.89534 313.50875 299.4202 311.90022 304.68357 L 312.5311 304.9824 Z M 319.13873 164.0308 C 320.83945 171.85377 321.8725 179.8071 322.2267 187.80497 C 322.45914 183.85367 323.8537 180.0684 322.2267 175.95108 C 320.5997 171.83377 322.0939 167.68325 319.23834 163.96439 Z M 221.9834 54.689536 L 221.48533 55.087985 L 231.04812 68.66848 C 230.4396 65.57668 229.08296 62.68102 227.09683 60.23463 C 226.53236 59.60375 225.70226 58.97287 225.53623 58.24238 C 225.171 56.117314 223.6436 55.38682 221.9834 54.689536 Z M 276.10615 288.1479 L 271.95563 270.98136 C 271.31885 277.0109 272.7851 283.07528 276.10615 288.1479 Z M 116.95867 296.61496 L 105.66926 286.6537 C 107.46523 291.69715 111.73086 295.46094 116.95867 296.61496 Z M 176.29448 44.49586 C 169.81967 45.12674 163.31166 45.25956 157.83298 49.642505 Z M 83.32287 222.10485 L 83.12364 222.10485 L 80.10207 239.90227 C 81.40102 237.88084 82.29212 235.6249 82.72519 233.26144 C 83.32287 229.47617 83.28966 225.7573 83.42248 222.10485 Z M 78.50827 209.7197 C 77.213305 215.298 75.18785 220.8431 77.47894 226.68702 Z M 103.5774 87.46203 C 98.88846 92.6597 95.12608 98.62335 92.45401 105.09343 Z M 154.37975 155.59694 C 155.5751 155.96219 156.4052 156.0286 157.00287 154.70043 C 157.62856 153.51243 158.38596 152.39862 159.26076 151.38002 C 160.65533 149.52058 162.0831 147.69435 163.47768 145.86813 C 159.85833 148.46379 156.79817 151.76107 154.47936 155.56374 Z M 107.03063 265.7351 L 98.796 252.0218 C 99.95116 257.37683 102.84668 262.1988 107.03063 265.7351 Z M 315.6191 254.94375 L 315.0546 254.94375 C 315.38666 261.58458 314.68937 268.2254 316.68162 274.86624 C 316.92914 272.50552 316.8172 270.1209 316.34958 267.79376 C 315.74102 265.3076 315.49498 262.74655 315.6191 260.19 C 315.6523 258.26417 315.6191 256.67037 315.6191 254.94375 Z M 281.4188 262.04944 C 282.0497 259.4263 282.61417 257.30125 283.07902 255.2094 C 283.94714 253.11058 284.24497 250.81957 283.94233 248.56856 C 281.74434 252.69908 280.8637 257.40355 281.4188 262.04944 Z M 308.613 262.04944 L 309.07787 262.04944 L 307.98213 256.37153 L 304.66172 256.1059 L 304.3629 256.67037 Z M 306.58756 267.62774 C 305.2594 264.0085 305.79066 259.3931 301.04247 257.13523 Z M 303.7984 124.65068 L 310.24 136.47135 C 309.5722 131.90905 307.34254 127.71965 303.93123 124.61747 Z M 117.39032 121.56269 C 120.39978 118.3774 122.8674 114.72084 124.69524 110.73814 C 121.5109 113.77963 119.01937 117.47161 117.39032 121.56269 Z M 123.66591 275.56353 L 119.41578 282.47 C 121.67366 280.67697 125.12689 279.74725 123.66591 275.56353 Z M 310.9705 256.1391 L 309.84157 256.1391 C 309.84157 257.23484 310.1404 258.36378 310.30643 259.45952 C 310.47245 260.55525 311.30255 262.4147 310.7713 263.278 C 309.77516 264.8718 310.7713 265.36986 311.50177 266.19996 C 311.955 262.8299 311.76344 259.4044 310.9373 256.1059 Z M 262.32643 231.03677 L 261.76196 230.77113 L 259.50408 245.48057 L 260.16816 245.48057 Z M 254.8555 265.43626 L 257.84387 253.6156 C 255.6998 257.17322 254.65978 261.28712 254.8555 265.43626 Z M 266.31093 215.63004 C 268.94188 214.30647 270.07916 211.15708 268.90085 208.45795 Z M 254.22462 299.50372 L 259.13883 298.10915 L 257.2462 295.61883 Z M 221.81737 64.18592 L 221.08688 64.18592 L 222.44825 73.31706 L 223.07913 73.31706 Z M 77.04728 257.99853 L 76.31679 257.99853 C 76.25045 260.2221 76.406175 262.44673 76.78165 264.63936 L 77.57855 264.63936 Z M 313.66004 255.64104 C 312.16586 256.50435 312.13265 257.20164 313.66004 261.58458 Z M 197.01387 53.99225 L 204.21917 50.87106 C 201.4796 50.82326 198.8529 51.9611 197.01387 53.99225 Z M 270.7603 101.80622 L 273.48302 107.94899 C 273.64415 105.57765 272.62547 103.27941 270.7603 101.80622 Z M 216.10626 128.76799 C 213.3171 131.35791 213.3171 131.35791 214.31323 133.28375 Z M 242.902 142.4481 L 243.43327 142.4481 L 242.1715 135.40882 L 241.57384 135.40882 Z M 96.80375 219.78056 C 95.04393 222.03844 95.04393 222.03844 97.03618 222.80214 Z M 309.3103 236.1834 L 308.77903 236.1834 L 309.57593 242.12695 L 310.1072 242.12695 Z M 195.45328 109.54279 L 195.91813 109.97444 L 198.97292 105.32586 L 198.40845 105.02702 Z" />
      <path d="M 134.72289 143.245 C 135.78542 143.245 136.15067 143.77627 135.75222 144.70598 C 135.2113 146.02145 134.57887 147.2974 133.85958 148.52446 C 132.00015 151.61244 130.14072 154.73363 128.04886 157.6888 C 126.21416 160.22634 124.20604 162.63385 122.0389 164.8941 C 115.40838 171.78336 111.03083 180.5269 109.48774 189.96324 C 108.12693 196.29816 107.59122 202.7825 107.89394 209.25485 C 108.72404 218.81764 108.392 228.48005 111.21435 237.8104 C 111.87052 239.75597 112.40285 241.74112 112.80815 243.75396 C 110.85096 241.11448 109.53254 238.0571 108.95647 234.82204 C 107.69136 229.83937 107.03357 224.72197 106.99743 219.58134 C 106.94335 217.10359 106.74379 214.63115 106.39975 212.1768 C 105.67659 205.64382 105.94526 199.03904 107.19665 192.58636 C 107.46228 190.99256 107.5619 189.26595 107.72792 187.77176 L 108.79045 183.48843 C 110.88231 179.2383 112.97417 175.02137 114.99963 170.73803 C 115.27815 170.05697 115.5111 169.35814 115.69691 168.64617 L 117.05828 166.72033 C 117.24515 166.68367 117.42466 166.61636 117.58955 166.5211 C 124.86126 160.61077 129.41023 152.64177 134.19162 144.73919 C 134.43108 144.2275 134.62013 143.69372 134.7561 143.14539 Z" />
      <path d="M 284.27437 263.47722 C 286.9258 273.21473 288.91158 283.1214 290.2179 293.12852 C 289.68906 292.3056 289.25467 291.42566 288.92295 290.5054 C 287.29595 281.93873 285.60254 273.37206 284.17476 264.8054 C 284.15865 264.36034 284.19206 263.91488 284.27437 263.47722 Z" />
      <path d="M 293.73835 156.31437 C 285.7458 155.4476 277.77106 154.15525 271.32487 154.58529 C 250.73405 154.6499 231.98596 157.64238 213.6345 163.51147 C 209.68166 164.77486 205.80236 165.23832 201.9654 165.20936 C 198.12843 165.23832 194.24913 164.77486 190.2963 163.51147 C 171.9426 157.64238 153.19674 154.6499 132.60593 154.58529 C 126.15974 154.15525 118.18723 155.4476 110.19244 156.31437 C 107.02171 156.65752 106.04353 158.35095 106.68748 162.57116 C 107.51637 168.0169 108.88226 172.5847 111.75219 177.12132 C 115.61812 183.2355 116.41804 191.47763 118.48358 198.83738 C 121.94621 211.17493 127.43427 220.9144 138.4973 223.79547 C 148.95202 226.51833 159.46913 226.7679 169.93945 225.17027 C 180.2137 223.60384 187.42192 216.24632 191.20318 203.85752 C 192.82754 198.53212 194.57668 193.26242 196.06735 187.87908 C 197.1146 184.09114 198.90385 181.65126 201.96763 181.34822 C 205.0314 181.65126 206.82065 184.09114 207.8679 187.87908 C 209.35857 193.26242 211.10548 198.53212 212.73207 203.85752 C 216.51333 216.24632 223.72156 223.60384 233.9958 225.17027 C 244.46612 226.7679 254.98546 226.5161 265.43796 223.79547 C 276.50098 220.9144 281.98904 211.17493 285.45167 198.83738 C 287.5172 191.47763 288.31714 183.2355 292.18307 177.12132 C 295.053 172.58248 296.41888 168.0169 297.24777 162.57116 C 297.88726 158.35095 296.90908 156.65752 293.73835 156.31437 Z M 186.3145 192.74548 C 184.92188 210.9989 178.45118 218.55697 163.87874 218.98924 C 154.66067 219.2633 145.49608 219.192 136.72142 214.74228 C 130.88576 211.78323 126.95298 206.90793 125.57818 198.93988 C 124.22566 191.09883 122.57679 183.32018 122.45201 175.2318 C 122.34951 168.63187 124.54207 165.33636 129.74715 164.90186 C 134.07877 164.5409 138.44159 164.82833 142.79104 164.82833 C 152.49263 164.96648 162.22542 165.12468 171.76212 167.50218 C 183.42007 170.4122 187.4598 177.75859 186.3145 192.74548 Z M 278.3526 198.9421 C 276.9778 206.90793 273.04504 211.78546 267.20938 214.74451 C 258.4325 219.19423 249.27012 219.26553 240.05205 218.99147 C 225.4796 218.5592 219.01114 211.00113 217.6163 192.7477 C 216.471 177.75859 220.51072 170.41444 232.16645 167.50663 C 241.70538 165.12691 251.43817 164.97094 261.13753 164.83279 C 265.48698 164.83279 269.85203 164.54535 274.18142 164.90632 C 279.38873 165.3386 281.57905 168.63633 281.47656 175.23626 C 281.354 183.32018 279.70514 191.09883 278.3526 198.9421 Z" />
</svg>
