<svg xmlns="http://www.w3.org/2000/svg" xmlns:xlink="http://www.w3.org/1999/xlink" version="1.1" x="0px" y="0px" viewBox="-15 -15 125 138" enable-background="new 0 0 95 86.81" xml:space="preserve"><path d="M87.645,84.908H7.357c-2.323,0-4.212-1.889-4.212-4.211V64.61c0-2.322,1.889-4.212,4.212-4.212h80.288  c2.321,0,4.211,1.89,4.211,4.212v16.087C91.855,83.019,89.966,84.908,87.645,84.908z M7.357,61.802  c-1.549,0-2.809,1.259-2.809,2.808v16.087c0,1.549,1.26,2.808,2.809,2.808h80.288c1.548,0,2.807-1.259,2.807-2.808V64.61  c0-1.549-1.259-2.808-2.807-2.808H7.357z"/><g><path d="M24.423,26.411H4.212c-1.549,0-2.809,1.26-2.809,2.809v53.378c0,1.548,1.26,2.808,2.809,2.808h86.575   c1.549,0,2.81-1.26,2.81-2.808V29.22c0-1.548-1.261-2.809-2.81-2.809H70.578v-1.403h20.209c2.323,0,4.213,1.889,4.213,4.212v53.378   c0,2.322-1.89,4.212-4.213,4.212H4.212C1.89,86.81,0,84.92,0,82.598V29.22c0-2.323,1.89-4.212,4.212-4.212h20.211V26.411z"/><rect x=".702" y="39.193" width="93.595" height="1.403"/><path d="M47.5,58.878c-13.772,0-18.763-5.856-18.968-6.105l-0.357-0.434l9.997-12.875l1.108,0.861l-9.275,11.945   c1.373,1.272,6.507,5.202,17.496,5.202c11.043,0,16.135-3.924,17.497-5.199L55.72,40.326l1.108-0.861l9.998,12.875l-0.358,0.433   C66.263,53.022,61.273,58.878,47.5,58.878z"/><g><path d="M70.578,40.597H24.423V0h46.155V40.597z M25.827,39.193h43.347V1.403H25.827V39.193z"/></g></g><g><path d="M8.014,69.845c-1.677,0-3.042-1.365-3.042-3.041c0-1.679,1.365-3.042,3.042-3.042c1.677,0,3.042,1.363,3.042,3.042   C11.057,68.48,9.691,69.845,8.014,69.845z M8.014,65.166c-0.903,0-1.638,0.734-1.638,1.639c0,0.902,0.735,1.638,1.638,1.638   c0.903,0,1.639-0.735,1.639-1.638C9.653,65.9,8.917,65.166,8.014,65.166z"/></g><g><path d="M16.789,69.845c-1.677,0-3.042-1.365-3.042-3.041c0-1.679,1.364-3.042,3.042-3.042c1.678,0,3.042,1.363,3.042,3.042   C19.831,68.48,18.467,69.845,16.789,69.845z M16.789,65.166c-0.904,0-1.638,0.734-1.638,1.639c0,0.902,0.734,1.638,1.638,1.638   c0.903,0,1.638-0.735,1.638-1.638C18.427,65.9,17.692,65.166,16.789,65.166z"/></g><g><path d="M25.564,69.845c-1.678,0-3.042-1.365-3.042-3.041c0-1.679,1.364-3.042,3.042-3.042c1.677,0,3.042,1.363,3.042,3.042   C28.605,68.48,27.241,69.845,25.564,69.845z M25.564,65.166c-0.903,0-1.638,0.734-1.638,1.639c0,0.902,0.735,1.638,1.638,1.638   c0.903,0,1.638-0.735,1.638-1.638C27.202,65.9,26.467,65.166,25.564,65.166z"/></g><g><path d="M34.339,69.845c-1.678,0-3.042-1.365-3.042-3.041c0-1.679,1.364-3.042,3.042-3.042c1.677,0,3.041,1.363,3.041,3.042   C37.38,68.48,36.016,69.845,34.339,69.845z M34.339,65.166c-0.904,0-1.638,0.734-1.638,1.639c0,0.902,0.734,1.638,1.638,1.638   c0.903,0,1.638-0.735,1.638-1.638C35.977,65.9,35.242,65.166,34.339,65.166z"/></g><g><path d="M43.113,69.845c-1.677,0-3.042-1.365-3.042-3.041c0-1.679,1.365-3.042,3.042-3.042c1.677,0,3.041,1.363,3.041,3.042   C46.154,68.48,44.79,69.845,43.113,69.845z M43.113,65.166c-0.904,0-1.638,0.734-1.638,1.639c0,0.902,0.734,1.638,1.638,1.638   c0.903,0,1.638-0.735,1.638-1.638C44.751,65.9,44.017,65.166,43.113,65.166z"/></g><g><path d="M51.888,69.845c-1.678,0-3.042-1.365-3.042-3.041c0-1.679,1.364-3.042,3.042-3.042c1.677,0,3.041,1.363,3.041,3.042   C54.929,68.48,53.564,69.845,51.888,69.845z M51.888,65.166c-0.904,0-1.639,0.734-1.639,1.639c0,0.902,0.734,1.638,1.639,1.638   c0.903,0,1.638-0.735,1.638-1.638C53.525,65.9,52.791,65.166,51.888,65.166z"/></g><g><path d="M60.662,69.845c-1.677,0-3.041-1.365-3.041-3.041c0-1.679,1.364-3.042,3.041-3.042s3.042,1.363,3.042,3.042   C63.704,68.48,62.339,69.845,60.662,69.845z M60.662,65.166c-0.903,0-1.638,0.734-1.638,1.639c0,0.902,0.734,1.638,1.638,1.638   c0.904,0,1.638-0.735,1.638-1.638C62.3,65.9,61.566,65.166,60.662,65.166z"/></g><g><path d="M69.436,69.845c-1.676,0-3.04-1.365-3.04-3.041c0-1.679,1.364-3.042,3.04-3.042c1.679,0,3.043,1.363,3.043,3.042   C72.479,68.48,71.114,69.845,69.436,69.845z M69.436,65.166c-0.901,0-1.637,0.734-1.637,1.639c0,0.902,0.735,1.638,1.637,1.638   c0.904,0,1.641-0.735,1.641-1.638C71.076,65.9,70.34,65.166,69.436,65.166z"/></g><g><path d="M78.212,69.845c-1.678,0-3.042-1.365-3.042-3.041c0-1.679,1.364-3.042,3.042-3.042c1.677,0,3.041,1.363,3.041,3.042   C81.253,68.48,79.889,69.845,78.212,69.845z M78.212,65.166c-0.904,0-1.639,0.734-1.639,1.639c0,0.902,0.734,1.638,1.639,1.638   c0.901,0,1.637-0.735,1.637-1.638C79.849,65.9,79.113,65.166,78.212,65.166z"/></g><g><path d="M86.985,69.845c-1.677,0-3.041-1.365-3.041-3.041c0-1.679,1.364-3.042,3.041-3.042c1.679,0,3.043,1.363,3.043,3.042   C90.028,68.48,88.664,69.845,86.985,69.845z M86.985,65.166c-0.902,0-1.637,0.734-1.637,1.639c0,0.902,0.734,1.638,1.637,1.638   c0.904,0,1.639-0.735,1.639-1.638C88.624,65.9,87.89,65.166,86.985,65.166z"/></g><g><path d="M12.402,75.695c-1.677,0-3.042-1.364-3.042-3.041c0-1.678,1.364-3.042,3.042-3.042s3.042,1.364,3.042,3.042   C15.443,74.331,14.079,75.695,12.402,75.695z M12.402,71.015c-0.903,0-1.638,0.734-1.638,1.639c0,0.903,0.735,1.638,1.638,1.638   s1.638-0.734,1.638-1.638C14.04,71.75,13.305,71.015,12.402,71.015z"/></g><g><path d="M21.177,75.695c-1.678,0-3.042-1.364-3.042-3.041c0-1.678,1.364-3.042,3.042-3.042c1.676,0,3.041,1.364,3.041,3.042   C24.218,74.331,22.854,75.695,21.177,75.695z M21.177,71.015c-0.904,0-1.639,0.734-1.639,1.639c0,0.903,0.735,1.638,1.639,1.638   c0.902,0,1.637-0.734,1.637-1.638C22.814,71.75,22.08,71.015,21.177,71.015z"/></g><g><path d="M29.951,75.695c-1.677,0-3.042-1.364-3.042-3.041c0-1.678,1.365-3.042,3.042-3.042c1.678,0,3.042,1.364,3.042,3.042   C32.993,74.331,31.628,75.695,29.951,75.695z M29.951,71.015c-0.903,0-1.637,0.734-1.637,1.639c0,0.903,0.734,1.638,1.637,1.638   c0.904,0,1.638-0.734,1.638-1.638C31.589,71.75,30.854,71.015,29.951,71.015z"/></g><g><path d="M38.725,75.695c-1.677,0-3.042-1.364-3.042-3.041c0-1.678,1.364-3.042,3.042-3.042c1.678,0,3.042,1.364,3.042,3.042   C41.767,74.331,40.403,75.695,38.725,75.695z M38.725,71.015c-0.903,0-1.638,0.734-1.638,1.639c0,0.903,0.735,1.638,1.638,1.638   c0.904,0,1.639-0.734,1.639-1.638C40.364,71.75,39.629,71.015,38.725,71.015z"/></g><g><path d="M47.5,75.695c-1.677,0-3.041-1.364-3.041-3.041c0-1.678,1.364-3.042,3.041-3.042c1.678,0,3.043,1.364,3.043,3.042   C50.543,74.331,49.178,75.695,47.5,75.695z M47.5,71.015c-0.903,0-1.638,0.734-1.638,1.639c0,0.903,0.735,1.638,1.638,1.638   c0.903,0,1.638-0.734,1.638-1.638C49.138,71.75,48.403,71.015,47.5,71.015z"/></g><g><path d="M56.274,75.695c-1.678,0-3.041-1.364-3.041-3.041c0-1.678,1.363-3.042,3.041-3.042c1.677,0,3.042,1.364,3.042,3.042   C59.316,74.331,57.951,75.695,56.274,75.695z M56.274,71.015c-0.902,0-1.638,0.734-1.638,1.639c0,0.903,0.735,1.638,1.638,1.638   c0.903,0,1.639-0.734,1.639-1.638C57.913,71.75,57.178,71.015,56.274,71.015z"/></g><g><path d="M65.05,75.695c-1.679,0-3.043-1.364-3.043-3.041c0-1.678,1.364-3.042,3.043-3.042c1.676,0,3.041,1.364,3.041,3.042   C68.091,74.331,66.726,75.695,65.05,75.695z M65.05,71.015c-0.904,0-1.64,0.734-1.64,1.639c0,0.903,0.735,1.638,1.64,1.638   c0.902,0,1.638-0.734,1.638-1.638C66.688,71.75,65.952,71.015,65.05,71.015z"/></g><g><path d="M73.824,75.695c-1.677,0-3.042-1.364-3.042-3.041c0-1.678,1.365-3.042,3.042-3.042c1.678,0,3.041,1.364,3.041,3.042   C76.865,74.331,75.502,75.695,73.824,75.695z M73.824,71.015c-0.903,0-1.639,0.734-1.639,1.639c0,0.903,0.735,1.638,1.639,1.638   s1.638-0.734,1.638-1.638C75.462,71.75,74.728,71.015,73.824,71.015z"/></g><g><path d="M82.6,75.695c-1.679,0-3.043-1.364-3.043-3.041c0-1.678,1.364-3.042,3.043-3.042c1.677,0,3.04,1.364,3.04,3.042   C85.64,74.331,84.276,75.695,82.6,75.695z M82.6,71.015c-0.904,0-1.64,0.734-1.64,1.639c0,0.903,0.735,1.638,1.64,1.638   c0.903,0,1.638-0.734,1.638-1.638C84.237,71.75,83.503,71.015,82.6,71.015z"/></g><g><path d="M8.014,81.544c-1.677,0-3.042-1.364-3.042-3.04c0-1.679,1.365-3.043,3.042-3.043c1.677,0,3.042,1.364,3.042,3.043   C11.057,80.18,9.691,81.544,8.014,81.544z M8.014,76.865c-0.903,0-1.638,0.734-1.638,1.64c0,0.902,0.735,1.637,1.638,1.637   c0.903,0,1.639-0.734,1.639-1.637C9.653,77.599,8.917,76.865,8.014,76.865z"/></g><g><path d="M16.789,81.544c-1.677,0-3.042-1.364-3.042-3.04c0-1.679,1.364-3.043,3.042-3.043c1.678,0,3.042,1.364,3.042,3.043   C19.831,80.18,18.467,81.544,16.789,81.544z M16.789,76.865c-0.904,0-1.638,0.734-1.638,1.64c0,0.902,0.734,1.637,1.638,1.637   c0.903,0,1.638-0.734,1.638-1.637C18.427,77.599,17.692,76.865,16.789,76.865z"/></g><g><path d="M25.564,81.544c-1.678,0-3.042-1.364-3.042-3.04c0-1.679,1.364-3.043,3.042-3.043c1.677,0,3.042,1.364,3.042,3.043   C28.605,80.18,27.241,81.544,25.564,81.544z M25.564,76.865c-0.903,0-1.638,0.734-1.638,1.64c0,0.902,0.735,1.637,1.638,1.637   c0.903,0,1.638-0.734,1.638-1.637C27.202,77.599,26.467,76.865,25.564,76.865z"/></g><g><path d="M69.436,81.544c-1.676,0-3.04-1.364-3.04-3.04c0-1.679,1.364-3.043,3.04-3.043c1.679,0,3.043,1.364,3.043,3.043   C72.479,80.18,71.114,81.544,69.436,81.544z M69.436,76.865c-0.901,0-1.637,0.734-1.637,1.64c0,0.902,0.735,1.637,1.637,1.637   c0.904,0,1.641-0.734,1.641-1.637C71.076,77.599,70.34,76.865,69.436,76.865z"/></g><g><path d="M78.212,81.544c-1.678,0-3.042-1.364-3.042-3.04c0-1.679,1.364-3.043,3.042-3.043c1.677,0,3.041,1.364,3.041,3.043   C81.253,80.18,79.889,81.544,78.212,81.544z M78.212,76.865c-0.904,0-1.639,0.734-1.639,1.64c0,0.902,0.734,1.637,1.639,1.637   c0.901,0,1.637-0.734,1.637-1.637C79.849,77.599,79.113,76.865,78.212,76.865z"/></g><g><path d="M86.985,81.544c-1.677,0-3.041-1.364-3.041-3.04c0-1.679,1.364-3.043,3.041-3.043c1.679,0,3.043,1.364,3.043,3.043   C90.028,80.18,88.664,81.544,86.985,81.544z M86.985,76.865c-0.902,0-1.637,0.734-1.637,1.64c0,0.902,0.734,1.637,1.637,1.637   c0.904,0,1.639-0.734,1.639-1.637C88.624,77.599,87.89,76.865,86.985,76.865z"/></g><g><path d="M62.71,82.628H32.291c-1.677,0-3.042-1.349-3.042-3.005s1.365-3.004,3.042-3.004H62.71c1.677,0,3.041,1.348,3.041,3.004   S64.387,82.628,62.71,82.628z M32.291,78.023c-0.903,0-1.637,0.719-1.637,1.601c0,0.883,0.734,1.601,1.637,1.601H62.71   c0.902,0,1.638-0.718,1.638-1.601c0-0.882-0.735-1.601-1.638-1.601H32.291z"/></g></svg>
